SplineFontDB: 3.2
FontName: noto_monosans_minified
FullName: noto_monosans_minified
FamilyName: noto_monosans_minified
Weight: Book
Copyright: Copyright 2022 The Noto Project Authors (https://github.com/notofonts/latin-greek-cyrillic)
Version: 2.010
ItalicAngle: 0
UnderlinePosition: -125
UnderlineWidth: 50
Ascent: 800
Descent: 200
InvalidEm: 0
sfntRevision: 0x0002028f
LayerCount: 2
Layer: 0 1 "Back" 1
Layer: 1 1 "Fore" 0
XUID: [1021 467 -1121320856 5378815]
StyleMap: 0x0040
FSType: 0
OS2Version: 4
OS2_WeightWidthSlopeOnly: 0
OS2_UseTypoMetrics: 1
CreationTime: 1633360997
ModificationTime: 1680069332
PfmFamily: 17
TTFWeight: 400
TTFWidth: 5
LineGap: 0
VLineGap: 0
Panose: 2 11 5 9 4 5 4 2 2 4
OS2TypoAscent: 1069
OS2TypoAOffset: 0
OS2TypoDescent: -293
OS2TypoDOffset: 0
OS2TypoLinegap: 0
OS2WinAscent: 1069
OS2WinAOffset: 0
OS2WinDescent: 293
OS2WinDOffset: 0
HheadAscent: 1069
HheadAOffset: 0
HheadDescent: -293
HheadDOffset: 0
OS2SubXSize: 650
OS2SubYSize: 600
OS2SubXOff: 0
OS2SubYOff: 75
OS2SupXSize: 650
OS2SupYSize: 600
OS2SupXOff: 0
OS2SupYOff: 350
OS2StrikeYSize: 50
OS2StrikeYPos: 322
OS2CapHeight: 714
OS2XHeight: 536
OS2Vendor: 'GOOG'
OS2CodePages: 0000019f.dfd70000
OS2UnicodeRanges: e00002ff.0200fcff.08000039.00100000
Lookup: 1 0 0 "'aalt' Access All Alternates lookup 0" { "'aalt' Access All Alternates lookup 0 subtable"  } ['aalt' ('DFLT' <'dflt' > 'cyrl' <'MKD ' 'SRB ' 'dflt' > 'grek' <'dflt' > 'latn' <'APPH' 'CAT ' 'IPPH' 'MAH ' 'MOL ' 'NAV ' 'ROM ' 'dflt' > ) ]
Lookup: 3 0 0 "'aalt' Access All Alternates lookup 1" { "'aalt' Access All Alternates lookup 1 subtable"  } ['aalt' ('DFLT' <'dflt' > 'cyrl' <'MKD ' 'SRB ' 'dflt' > 'grek' <'dflt' > 'latn' <'APPH' 'CAT ' 'IPPH' 'MAH ' 'MOL ' 'NAV ' 'ROM ' 'dflt' > ) ]

StartChar: .notdef
Encoding: 1114112 -1 0
Width: 600
Flags: W
LayerCount: 2
Fore
SplineSet
94 0 m 1,0,-1
 94 714 l 1,1,-1
 505 714 l 1,2,-1
 505 0 l 1,3,-1
 94 0 l 1,0,-1
145 51 m 1,4,-1
 454 51 l 1,5,-1
 454 663 l 1,6,-1
 145 663 l 1,7,-1
 145 51 l 1,4,-1
EndSplineSet
EndChar

StartChar: exclam
Encoding: 33 33 4
Width: 771
Flags: W
LayerCount: 2
Fore
SplineSet
336.419921875 202 m 1,0,-1
 315.860351562 714 l 1,1,-1
 455.924804688 714 l 1,2,-1
 435.365234375 202 l 1,3,-1
 336.419921875 202 l 1,0,-1
385.25 -10 m 256,4,5
 351.83984375 -10 351.83984375 -10 328.709960938 6 c 128,-1,6
 305.580078125 22 305.580078125 22 305.580078125 58 c 0,7,8
 305.580078125 96 305.580078125 96 328.709960938 111 c 128,-1,9
 351.83984375 126 351.83984375 126 385.25 126 c 256,10,11
 418.66015625 126 418.66015625 126 441.790039062 111 c 128,-1,12
 464.919921875 96 464.919921875 96 464.919921875 58 c 0,13,14
 464.919921875 22 464.919921875 22 441.790039062 6 c 128,-1,15
 418.66015625 -10 418.66015625 -10 385.25 -10 c 256,4,5
EndSplineSet
Substitution2: "'smcp' Lowercase to Small Capitals lookup 35 subtable" exclam.sc
Substitution2: "'c2sc' Capitals to Small Capitals lookup 34 subtable" exclam.sc
Substitution2: "'aalt' Access All Alternates lookup 0 subtable" exclam.sc
EndChar

StartChar: quotedbl
Encoding: 34 34 5
Width: 771
Flags: W
LayerCount: 2
Fore
SplineSet
468.775390625 456 m 1,0,-1
 443.075195312 714 l 1,1,-1
 565.150390625 714 l 1,2,-1
 539.450195312 456 l 1,3,-1
 468.775390625 456 l 1,0,-1
231.049804688 456 m 1,4,-1
 205.349609375 714 l 1,5,-1
 327.424804688 714 l 1,6,-1
 301.724609375 456 l 1,7,-1
 231.049804688 456 l 1,4,-1
EndSplineSet
EndChar

StartChar: numbersign
Encoding: 35 35 6
Width: 771
Flags: W
LayerCount: 2
Fore
SplineSet
129.53515625 0 m 1,0,-1
 178.365234375 209 l 1,1,-1
 25.4501953125 209 l 1,2,-1
 25.4501953125 276 l 1,3,-1
 195.0703125 276 l 1,4,-1
 236.190429688 436 l 1,5,-1
 72.9951171875 436 l 1,6,-1
 72.9951171875 502 l 1,7,-1
 251.610351562 502 l 1,8,-1
 303.009765625 714 l 1,9,-1
 395.530273438 714 l 1,10,-1
 344.129882812 502 l 1,11,-1
 503.469726562 502 l 1,12,-1
 554.870117188 714 l 1,13,-1
 643.53515625 714 l 1,14,-1
 592.134765625 502 l 1,15,-1
 745.049804688 502 l 1,16,-1
 745.049804688 436 l 1,17,-1
 575.4296875 436 l 1,18,-1
 535.594726562 276 l 1,19,-1
 701.360351562 276 l 1,20,-1
 701.360351562 209 l 1,21,-1
 518.889648438 209 l 1,22,-1
 466.205078125 0 l 1,23,-1
 374.969726562 0 l 1,24,-1
 427.655273438 209 l 1,25,-1
 269.599609375 209 l 1,26,-1
 219.485351562 0 l 1,27,-1
 129.53515625 0 l 1,0,-1
286.3046875 276 m 1,28,-1
 444.360351562 276 l 1,29,-1
 484.1953125 436 l 1,30,-1
 326.139648438 436 l 1,31,-1
 286.3046875 276 l 1,28,-1
EndSplineSet
EndChar

StartChar: dollar
Encoding: 36 36 7
Width: 771
Flags: W
LayerCount: 2
Fore
SplineSet
337.705078125 34 m 1,0,1
 273.455078125 35 273.455078125 35 214.987304688 43.5 c 128,-1,2
 156.51953125 52 156.51953125 52 115.400390625 67 c 1,3,-1
 115.400390625 152 l 1,4,5
 159.08984375 136 159.08984375 136 218.842773438 124 c 128,-1,6
 278.594726562 112 278.594726562 112 337.705078125 111 c 1,7,-1
 337.705078125 328 l 1,8,9
 260.60546875 348 260.60546875 348 207.919921875 371.5 c 128,-1,10
 155.235351562 395 155.235351562 395 128.892578125 429.5 c 128,-1,11
 102.549804688 464 102.549804688 464 102.549804688 515 c 0,12,13
 102.549804688 565 102.549804688 565 131.462890625 602 c 128,-1,14
 160.375 639 160.375 639 213.059570312 660.5 c 128,-1,15
 265.745117188 682 265.745117188 682 337.705078125 686 c 1,16,-1
 337.705078125 759 l 1,17,-1
 419.9453125 759 l 1,18,-1
 419.9453125 687 l 1,19,20
 484.1953125 686 484.1953125 686 535.594726562 675.5 c 128,-1,21
 586.995117188 665 586.995117188 665 633.254882812 650 c 1,22,-1
 598.559570312 576 l 1,23,24
 557.440429688 589 557.440429688 589 512.46484375 598.5 c 128,-1,25
 467.490234375 608 467.490234375 608 419.9453125 611 c 1,26,-1
 419.9453125 395 l 1,27,28
 502.184570312 376 502.184570312 376 557.440429688 354.5 c 128,-1,29
 612.6953125 333 612.6953125 333 640.322265625 299.5 c 128,-1,30
 667.950195312 266 667.950195312 266 667.950195312 212 c 0,31,32
 667.950195312 142 667.950195312 142 603.057617188 95.5 c 128,-1,33
 538.165039062 49 538.165039062 49 419.9453125 38 c 1,34,-1
 419.9453125 -58 l 1,35,-1
 337.705078125 -58 l 1,36,-1
 337.705078125 34 l 1,0,1
419.9453125 116 m 1,37,38
 491.905273438 123 491.905273438 123 524.672851562 148.5 c 128,-1,39
 557.440429688 174 557.440429688 174 557.440429688 214 c 0,40,41
 557.440429688 239 557.440429688 239 545.232421875 255.5 c 128,-1,42
 533.025390625 272 533.025390625 272 503.469726562 284 c 128,-1,43
 473.915039062 296 473.915039062 296 419.9453125 307 c 1,44,-1
 419.9453125 116 l 1,37,38
337.705078125 609 m 1,45,46
 295.299804688 606 295.299804688 606 267.672851562 593.5 c 128,-1,47
 240.044921875 581 240.044921875 581 226.552734375 561 c 128,-1,48
 213.059570312 541 213.059570312 541 213.059570312 515 c 0,49,50
 213.059570312 490 213.059570312 490 224.625 471.5 c 128,-1,51
 236.190429688 453 236.190429688 453 263.174804688 440 c 128,-1,52
 290.16015625 427 290.16015625 427 337.705078125 417 c 1,53,-1
 337.705078125 609 l 1,45,46
EndSplineSet
EndChar

StartChar: percent
Encoding: 37 37 8
Width: 771
Flags: W
LayerCount: 2
Fore
SplineSet
106.405273438 0 m 1,0,-1
 563.865234375 714 l 1,1,-1
 662.809570312 714 l 1,2,-1
 205.349609375 0 l 1,3,-1
 106.405273438 0 l 1,0,-1
585.709960938 -9 m 0,4,5
 507.325195312 -9 507.325195312 -9 455.282226562 35.5 c 128,-1,6
 403.240234375 80 403.240234375 80 403.240234375 161 c 256,7,8
 403.240234375 242 403.240234375 242 452.712890625 286 c 128,-1,9
 502.184570312 330 502.184570312 330 588.280273438 330 c 0,10,11
 666.665039062 330 666.665039062 330 718.70703125 286 c 128,-1,12
 770.75 242 770.75 242 770.75 161 c 256,13,14
 770.75 80 770.75 80 720.634765625 35.5 c 128,-1,15
 670.51953125 -9 670.51953125 -9 585.709960938 -9 c 0,4,5
586.995117188 49 m 256,16,17
 630.684570312 49 630.684570312 49 652.530273438 76 c 128,-1,18
 674.375 103 674.375 103 674.375 161 c 0,19,20
 674.375 220 674.375 220 652.530273438 245.5 c 128,-1,21
 630.684570312 271 630.684570312 271 586.995117188 271 c 256,22,23
 543.3046875 271 543.3046875 271 520.817382812 245.5 c 128,-1,24
 498.330078125 220 498.330078125 220 498.330078125 161 c 0,25,26
 498.330078125 103 498.330078125 103 520.817382812 76 c 128,-1,27
 543.3046875 49 543.3046875 49 586.995117188 49 c 256,16,17
182.219726562 383 m 0,28,29
 103.834960938 383 103.834960938 383 51.79296875 427.5 c 128,-1,30
 -0.25 472 -0.25 472 -0.25 553 c 256,31,32
 -0.25 634 -0.25 634 49.22265625 678 c 128,-1,33
 98.6953125 722 98.6953125 722 184.790039062 722 c 0,34,35
 263.174804688 722 263.174804688 722 315.217773438 678 c 128,-1,36
 367.259765625 634 367.259765625 634 367.259765625 553 c 256,37,38
 367.259765625 472 367.259765625 472 317.14453125 427.5 c 128,-1,39
 267.030273438 383 267.030273438 383 182.219726562 383 c 0,28,29
183.504882812 441 m 256,40,41
 227.1953125 441 227.1953125 441 249.040039062 468 c 128,-1,42
 270.884765625 495 270.884765625 495 270.884765625 553 c 0,43,44
 270.884765625 612 270.884765625 612 249.040039062 637.5 c 128,-1,45
 227.1953125 663 227.1953125 663 183.504882812 663 c 256,46,47
 139.815429688 663 139.815429688 663 117.327148438 637.5 c 128,-1,48
 94.83984375 612 94.83984375 612 94.83984375 553 c 0,49,50
 94.83984375 495 94.83984375 495 117.327148438 468 c 128,-1,51
 139.815429688 441 139.815429688 441 183.504882812 441 c 256,40,41
EndSplineSet
EndChar

StartChar: ampersand
Encoding: 38 38 9
Width: 771
Flags: W
LayerCount: 2
Fore
SplineSet
284.740234375 -10 m 0,0,1
 208.924804688 -10 208.924804688 -10 155.59765625 14 c 128,-1,2
 102.26953125 38 102.26953125 38 74.642578125 80.5 c 128,-1,3
 47.0146484375 123 47.0146484375 123 47.0146484375 176 c 0,4,5
 47.0146484375 233 47.0146484375 233 75.927734375 275.5 c 128,-1,6
 104.83984375 318 104.83984375 318 151.099609375 351.5 c 128,-1,7
 197.360351562 385 197.360351562 385 250.044921875 414 c 0,8,9
 279.599609375 430 279.599609375 430 315.580078125 454 c 128,-1,10
 351.559570312 478 351.559570312 478 378.544921875 509.5 c 128,-1,11
 405.530273438 541 405.530273438 541 405.530273438 580 c 0,12,13
 405.530273438 616 405.530273438 616 381.115234375 636 c 128,-1,14
 356.700195312 656 356.700195312 656 316.865234375 656 c 256,15,16
 277.030273438 656 277.030273438 656 253.2578125 635 c 128,-1,17
 229.485351562 614 229.485351562 614 229.485351562 576 c 0,18,19
 229.485351562 550 229.485351562 550 240.407226562 522 c 128,-1,20
 251.330078125 494 251.330078125 494 269.962890625 468 c 128,-1,21
 288.594726562 442 288.594726562 442 310.440429688 420 c 2,22,-1
 743.485351562 0 l 1,23,-1
 605.990234375 0 l 1,24,-1
 243.620117188 364 l 2,25,26
 215.349609375 393 215.349609375 393 187.72265625 427 c 128,-1,27
 160.094726562 461 160.094726562 461 142.10546875 499.5 c 128,-1,28
 124.115234375 538 124.115234375 538 124.115234375 578 c 0,29,30
 124.115234375 644 124.115234375 644 175.514648438 684.5 c 128,-1,31
 226.915039062 725 226.915039062 725 316.865234375 725 c 256,32,33
 406.815429688 725 406.815429688 725 458.21484375 684.5 c 128,-1,34
 509.615234375 644 509.615234375 644 509.615234375 580 c 0,35,36
 509.615234375 530 509.615234375 530 480.059570312 490 c 128,-1,37
 450.504882812 450 450.504882812 450 405.530273438 418.5 c 128,-1,38
 360.5546875 387 360.5546875 387 315.580078125 359 c 0,39,40
 278.315429688 336 278.315429688 336 241.692382812 310.5 c 128,-1,41
 205.0703125 285 205.0703125 285 181.297851562 253.5 c 128,-1,42
 157.525390625 222 157.525390625 222 157.525390625 181 c 0,43,44
 157.525390625 133 157.525390625 133 194.790039062 100 c 128,-1,45
 232.0546875 67 232.0546875 67 297.58984375 67 c 0,46,47
 345.134765625 67 345.134765625 67 386.897460938 84.5 c 128,-1,48
 428.66015625 102 428.66015625 102 463.35546875 132 c 128,-1,49
 498.049804688 162 498.049804688 162 524.392578125 198.5 c 128,-1,50
 550.735351562 235 550.735351562 235 568.08203125 274 c 128,-1,51
 585.4296875 313 585.4296875 313 593.139648438 349 c 1,52,-1
 699.794921875 349 l 1,53,54
 686.9453125 292 686.9453125 292 661.887695312 239 c 128,-1,55
 636.830078125 186 636.830078125 186 599.565429688 140.5 c 128,-1,56
 562.299804688 95 562.299804688 95 514.754882812 61.5 c 128,-1,57
 467.209960938 28 467.209960938 28 409.384765625 9 c 128,-1,58
 351.559570312 -10 351.559570312 -10 284.740234375 -10 c 0,0,1
EndSplineSet
Substitution2: "'smcp' Lowercase to Small Capitals lookup 35 subtable" ampersand.sc
Substitution2: "'c2sc' Capitals to Small Capitals lookup 34 subtable" ampersand.sc
Substitution2: "'aalt' Access All Alternates lookup 0 subtable" ampersand.sc
EndChar

StartChar: quotesingle
Encoding: 39 39 10
Width: 771
Flags: W
LayerCount: 2
Fore
SplineSet
349.412109375 456 m 1,0,-1
 323.712890625 714 l 1,1,-1
 445.787109375 714 l 1,2,-1
 420.087890625 456 l 1,3,-1
 349.412109375 456 l 1,0,-1
EndSplineSet
EndChar

StartChar: parenleft
Encoding: 40 40 11
Width: 771
Flags: W
LayerCount: 2
Fore
SplineSet
441.370117188 -158 m 1,0,1
 343.709960938 -70 343.709960938 -70 298.092773438 41.5 c 128,-1,2
 252.474609375 153 252.474609375 153 252.474609375 274 c 0,3,4
 252.474609375 396 252.474609375 396 298.092773438 509.5 c 128,-1,5
 343.709960938 623 343.709960938 623 441.370117188 714 c 1,6,-1
 548.025390625 714 l 1,7,8
 458.075195312 620 458.075195312 620 412.45703125 507 c 128,-1,9
 366.83984375 394 366.83984375 394 366.83984375 275 c 0,10,11
 366.83984375 159 366.83984375 159 412.45703125 47.5 c 128,-1,12
 458.075195312 -64 458.075195312 -64 546.740234375 -158 c 1,13,-1
 441.370117188 -158 l 1,0,1
EndSplineSet
Substitution2: "'smcp' Lowercase to Small Capitals lookup 35 subtable" parenleft.sc
Substitution2: "'c2sc' Capitals to Small Capitals lookup 34 subtable" parenleft.sc
Substitution2: "'sups' Superscript lookup 23 subtable" uni207D
Substitution2: "'subs' Subscript lookup 22 subtable" uni208D
AlternateSubs2: "'aalt' Access All Alternates lookup 1 subtable" uni208D uni207D parenleft.sc
EndChar

StartChar: parenright
Encoding: 41 41 12
Width: 771
Flags: W
LayerCount: 2
Fore
SplineSet
329.129882812 714 m 1,0,1
 426.790039062 626 426.790039062 626 472.407226562 514.5 c 128,-1,2
 518.025390625 403 518.025390625 403 518.025390625 282 c 0,3,4
 518.025390625 160 518.025390625 160 472.407226562 46.5 c 128,-1,5
 426.790039062 -67 426.790039062 -67 329.129882812 -158 c 1,6,-1
 222.474609375 -158 l 1,7,8
 312.424804688 -64 312.424804688 -64 358.04296875 49.5 c 128,-1,9
 403.66015625 163 403.66015625 163 403.66015625 281 c 0,10,11
 403.66015625 397 403.66015625 397 358.04296875 508.5 c 128,-1,12
 312.424804688 620 312.424804688 620 223.759765625 714 c 1,13,-1
 329.129882812 714 l 1,0,1
EndSplineSet
Substitution2: "'smcp' Lowercase to Small Capitals lookup 35 subtable" parenright.sc
Substitution2: "'c2sc' Capitals to Small Capitals lookup 34 subtable" parenright.sc
Substitution2: "'sups' Superscript lookup 23 subtable" uni207E
Substitution2: "'subs' Subscript lookup 22 subtable" uni208E
AlternateSubs2: "'aalt' Access All Alternates lookup 1 subtable" uni208E uni207E parenright.sc
EndChar

StartChar: asterisk
Encoding: 42 42 13
Width: 771
Flags: W
LayerCount: 2
Fore
SplineSet
488.907226562 334 m 1,0,-1
 384.822265625 489 l 1,1,-1
 282.022460938 335 l 1,2,-1
 186.932617188 382 l 1,3,-1
 323.142578125 516 l 1,4,-1
 114.97265625 537 l 1,5,-1
 132.962890625 612 l 1,6,-1
 351.412109375 569 l 1,7,-1
 333.422851562 746 l 1,8,-1
 434.9375 746 l 1,9,-1
 419.517578125 569 l 1,10,-1
 639.252929688 616 l 1,11,-1
 658.52734375 534 l 1,12,-1
 451.642578125 514 l 1,13,-1
 587.852539062 381 l 1,14,-1
 488.907226562 334 l 1,0,-1
EndSplineSet
EndChar

StartChar: plus
Encoding: 43 43 14
Width: 771
Flags: W
LayerCount: 2
Fore
SplineSet
340.275390625 121 m 1,0,-1
 340.275390625 317 l 1,1,-1
 102.549804688 317 l 1,2,-1
 102.549804688 388 l 1,3,-1
 340.275390625 388 l 1,4,-1
 340.275390625 585 l 1,5,-1
 432.794921875 585 l 1,6,-1
 432.794921875 388 l 1,7,-1
 667.950195312 388 l 1,8,-1
 667.950195312 317 l 1,9,-1
 432.794921875 317 l 1,10,-1
 432.794921875 121 l 1,11,-1
 340.275390625 121 l 1,0,-1
EndSplineSet
Substitution2: "'sups' Superscript lookup 23 subtable" uni207A
Substitution2: "'subs' Subscript lookup 22 subtable" uni208A
AlternateSubs2: "'aalt' Access All Alternates lookup 1 subtable" uni208A uni207A
EndChar

StartChar: comma
Encoding: 44 44 15
Width: 771
Flags: W
LayerCount: 2
Fore
SplineSet
272.16796875 -140 m 1,0,1
 286.302734375 -96 286.302734375 -96 299.15234375 -48.5 c 128,-1,2
 312.002929688 -1 312.002929688 -1 323.567382812 45 c 128,-1,3
 335.1328125 91 335.1328125 91 341.557617188 129 c 1,4,-1
 479.052734375 129 l 1,5,-1
 489.33203125 117 l 1,6,7
 480.337890625 88 480.337890625 88 466.202148438 55.5 c 128,-1,8
 452.067382812 23 452.067382812 23 436.004882812 -10.5 c 128,-1,9
 419.942382812 -44 419.942382812 -44 402.594726562 -77 c 128,-1,10
 385.247070312 -110 385.247070312 -110 367.2578125 -140 c 1,11,-1
 272.16796875 -140 l 1,0,1
EndSplineSet
EndChar

StartChar: hyphen
Encoding: 45 45 16
Width: 771
Flags: W
LayerCount: 2
Fore
SplineSet
192.5 230 m 1,0,-1
 192.5 310 l 1,1,-1
 578 310 l 1,2,-1
 578 230 l 1,3,-1
 192.5 230 l 1,0,-1
EndSplineSet
EndChar

StartChar: period
Encoding: 46 46 17
Width: 771
Flags: W
LayerCount: 2
Fore
SplineSet
385.25 -10 m 256,0,1
 351.83984375 -10 351.83984375 -10 328.709960938 6 c 128,-1,2
 305.580078125 22 305.580078125 22 305.580078125 58 c 0,3,4
 305.580078125 96 305.580078125 96 328.709960938 111 c 128,-1,5
 351.83984375 126 351.83984375 126 385.25 126 c 256,6,7
 418.66015625 126 418.66015625 126 441.790039062 111 c 128,-1,8
 464.919921875 96 464.919921875 96 464.919921875 58 c 0,9,10
 464.919921875 22 464.919921875 22 441.790039062 6 c 128,-1,11
 418.66015625 -10 418.66015625 -10 385.25 -10 c 256,0,1
EndSplineSet
EndChar

StartChar: slash
Encoding: 47 47 18
Width: 771
Flags: W
LayerCount: 2
Fore
SplineSet
153.950195312 0 m 1,0,-1
 506.040039062 714 l 1,1,-1
 616.549804688 714 l 1,2,-1
 264.459960938 0 l 1,3,-1
 153.950195312 0 l 1,0,-1
EndSplineSet
Substitution2: "'frac' Diagonal Fractions lookup 26 subtable" fraction
Substitution2: "'aalt' Access All Alternates lookup 0 subtable" fraction
EndChar

StartChar: zero
Encoding: 48 48 19
Width: 771
Flags: W
LayerCount: 2
Fore
SplineSet
383.96484375 -10 m 0,0,1
 277.309570312 -10 277.309570312 -10 209.205078125 34 c 128,-1,2
 141.099609375 78 141.099609375 78 108.974609375 160.5 c 128,-1,3
 76.849609375 243 76.849609375 243 76.849609375 358 c 0,4,5
 76.849609375 474 76.849609375 474 107.690429688 555.5 c 128,-1,6
 138.530273438 637 138.530273438 637 205.9921875 680.5 c 128,-1,7
 273.455078125 724 273.455078125 724 383.96484375 724 c 0,8,9
 491.905273438 724 491.905273438 724 560.65234375 681 c 128,-1,10
 629.400390625 638 629.400390625 638 661.525390625 556 c 128,-1,11
 693.650390625 474 693.650390625 474 693.650390625 358 c 0,12,13
 693.650390625 271 693.650390625 271 676.302734375 203 c 128,-1,14
 658.955078125 135 658.955078125 135 622.33203125 87.5 c 128,-1,15
 585.709960938 40 585.709960938 40 526.599609375 15 c 128,-1,16
 467.490234375 -10 467.490234375 -10 383.96484375 -10 c 0,0,1
237.474609375 100 m 1,17,-1
 161.66015625 152 l 1,18,-1
 521.459960938 626 l 1,19,-1
 588.280273438 560 l 1,20,-1
 237.474609375 100 l 1,17,-1
383.96484375 69 m 0,21,22
 489.334960938 69 489.334960938 69 539.450195312 139.5 c 128,-1,23
 589.565429688 210 589.565429688 210 589.565429688 358 c 0,24,25
 589.565429688 453 589.565429688 453 567.719726562 516.5 c 128,-1,26
 545.875 580 545.875 580 500.2578125 612.5 c 128,-1,27
 454.639648438 645 454.639648438 645 383.96484375 645 c 0,28,29
 314.575195312 645 314.575195312 645 270.884765625 614 c 128,-1,30
 227.1953125 583 227.1953125 583 205.9921875 519.5 c 128,-1,31
 184.790039062 456 184.790039062 456 184.790039062 358 c 0,32,33
 184.790039062 219 184.790039062 219 230.407226562 144 c 128,-1,34
 276.025390625 69 276.025390625 69 383.96484375 69 c 0,21,22
EndSplineSet
Substitution2: "'zero' Slashed Zero lookup 37 subtable" zero.slash
Substitution2: "'onum' Oldstyle Figures lookup 33 subtable" zero.osf
Substitution2: "'frac' Diagonal Fractions lookup 27 subtable" zero.numr
Substitution2: "'dnom' Denominators lookup 25 subtable" zero.dnom
Substitution2: "'numr' Numerators lookup 24 subtable" zero.numr
Substitution2: "'sups' Superscript lookup 23 subtable" uni2070
Substitution2: "'subs' Subscript lookup 22 subtable" uni2080
AlternateSubs2: "'aalt' Access All Alternates lookup 1 subtable" uni2070 zero.osf zero.dnom zero.numr uni2080
EndChar

StartChar: one
Encoding: 49 49 20
Width: 771
Flags: W
LayerCount: 2
Fore
SplineSet
360.982421875 446 m 2,0,1
 360.982421875 474 360.982421875 474 361.625 506.5 c 128,-1,2
 362.267578125 539 362.267578125 539 363.552734375 569.5 c 128,-1,3
 364.837890625 600 364.837890625 600 366.122070312 622 c 1,4,5
 345.5625 613 345.5625 613 328.857421875 607 c 128,-1,6
 312.15234375 601 312.15234375 601 278.7421875 588 c 2,7,-1
 172.087890625 545 l 1,8,-1
 121.97265625 613 l 1,9,-1
 377.6875 714 l 1,10,-1
 471.4921875 714 l 1,11,-1
 471.4921875 0 l 1,12,-1
 360.982421875 0 l 1,13,-1
 360.982421875 446 l 2,0,1
168.232421875 0 m 1,14,-1
 168.232421875 60 l 1,15,-1
 360.982421875 70 l 1,16,-1
 471.4921875 70 l 1,17,-1
 665.52734375 60 l 1,18,-1
 665.52734375 0 l 1,19,-1
 168.232421875 0 l 1,14,-1
EndSplineSet
Substitution2: "'onum' Oldstyle Figures lookup 33 subtable" one.osf
Substitution2: "'frac' Diagonal Fractions lookup 27 subtable" one.numr
Substitution2: "'dnom' Denominators lookup 25 subtable" one.dnom
Substitution2: "'numr' Numerators lookup 24 subtable" one.numr
Substitution2: "'sups' Superscript lookup 23 subtable" uni00B9
Substitution2: "'subs' Subscript lookup 22 subtable" uni2081
AlternateSubs2: "'aalt' Access All Alternates lookup 1 subtable" uni00B9 one.osf one.dnom one.numr uni2081
EndChar

StartChar: two
Encoding: 50 50 21
Width: 771
Flags: W
LayerCount: 2
Fore
SplineSet
87.5625 0 m 1,0,-1
 87.5625 76 l 1,1,-1
 331.712890625 263 l 2,2,3
 395.962890625 312 395.962890625 312 440.9375 354.5 c 128,-1,4
 485.912109375 397 485.912109375 397 509.684570312 438 c 128,-1,5
 533.45703125 479 533.45703125 479 533.45703125 524 c 0,6,7
 533.45703125 588 533.45703125 588 488.482421875 616.5 c 128,-1,8
 443.5078125 645 443.5078125 645 374.1171875 645 c 0,9,10
 313.72265625 645 313.72265625 645 260.39453125 626 c 128,-1,11
 207.067382812 607 207.067382812 607 160.807617188 578 c 1,12,-1
 96.5576171875 640 l 1,13,14
 131.252929688 664 131.252929688 664 173.657226562 683 c 128,-1,15
 216.0625 702 216.0625 702 267.462890625 713 c 128,-1,16
 318.862304688 724 318.862304688 724 377.97265625 724 c 0,17,18
 460.212890625 724 460.212890625 724 521.25 701 c 128,-1,19
 582.287109375 678 582.287109375 678 615.697265625 634.5 c 128,-1,20
 649.107421875 591 649.107421875 591 649.107421875 527 c 0,21,22
 649.107421875 473 649.107421875 473 624.049804688 424.5 c 128,-1,23
 598.9921875 376 598.9921875 376 552.08984375 329.5 c 128,-1,24
 505.1875 283 505.1875 283 439.65234375 233 c 2,25,-1
 243.047851562 84 l 1,26,-1
 243.047851562 80 l 1,27,-1
 697.9375 80 l 1,28,-1
 697.9375 0 l 1,29,-1
 87.5625 0 l 1,0,-1
EndSplineSet
Substitution2: "'onum' Oldstyle Figures lookup 33 subtable" two.osf
Substitution2: "'frac' Diagonal Fractions lookup 27 subtable" two.numr
Substitution2: "'dnom' Denominators lookup 25 subtable" two.dnom
Substitution2: "'numr' Numerators lookup 24 subtable" two.numr
Substitution2: "'sups' Superscript lookup 23 subtable" uni00B2
Substitution2: "'subs' Subscript lookup 22 subtable" uni2082
AlternateSubs2: "'aalt' Access All Alternates lookup 1 subtable" uni00B2 two.osf two.dnom two.numr uni2082
EndChar

StartChar: three
Encoding: 51 51 22
Width: 771
Flags: W
LayerCount: 2
Fore
SplineSet
335.27734375 -10 m 0,0,1
 280.022460938 -10 280.022460938 -10 215.772460938 -1.5 c 128,-1,2
 151.522460938 7 151.522460938 7 94.982421875 29 c 1,3,-1
 94.982421875 114 l 1,4,5
 151.522460938 92 151.522460938 92 217.057617188 80.5 c 128,-1,6
 282.592773438 69 282.592773438 69 342.987304688 69 c 0,7,8
 454.782226562 69 454.782226562 69 506.182617188 106 c 128,-1,9
 557.58203125 143 557.58203125 143 557.58203125 203 c 0,10,11
 557.58203125 249 557.58203125 249 529.955078125 276.5 c 128,-1,12
 502.327148438 304 502.327148438 304 450.927734375 316.5 c 128,-1,13
 399.52734375 329 399.52734375 329 324.997070312 329 c 2,14,-1
 229.907226562 329 l 1,15,-1
 229.907226562 409 l 1,16,-1
 324.997070312 409 l 2,17,18
 391.817382812 409 391.817382812 409 436.79296875 425.5 c 128,-1,19
 481.767578125 442 481.767578125 442 505.540039062 471.5 c 128,-1,20
 529.3125 501 529.3125 501 529.3125 539 c 0,21,22
 529.3125 589 529.3125 589 488.834960938 617 c 128,-1,23
 448.357421875 645 448.357421875 645 369.97265625 645 c 0,24,25
 304.4375 645 304.4375 645 249.825195312 627.5 c 128,-1,26
 195.212890625 610 195.212890625 610 156.662109375 590 c 1,27,-1
 98.837890625 651 l 1,28,29
 147.66796875 681 147.66796875 681 218.342773438 702.5 c 128,-1,30
 289.017578125 724 289.017578125 724 377.682617188 724 c 256,31,32
 466.34765625 724 466.34765625 724 526.099609375 701 c 128,-1,33
 585.852539062 678 585.852539062 678 616.049804688 638.5 c 128,-1,34
 646.247070312 599 646.247070312 599 646.247070312 547 c 0,35,36
 646.247070312 499 646.247070312 499 622.474609375 463.5 c 128,-1,37
 598.702148438 428 598.702148438 428 555.655273438 406 c 128,-1,38
 512.607421875 384 512.607421875 384 454.782226562 376 c 1,39,-1
 454.782226562 373 l 1,40,41
 526.7421875 366 526.7421875 366 575.572265625 344 c 128,-1,42
 624.40234375 322 624.40234375 322 649.459960938 285.5 c 128,-1,43
 674.517578125 249 674.517578125 249 674.517578125 198 c 0,44,45
 674.517578125 138 674.517578125 138 638.537109375 91 c 128,-1,46
 602.557617188 44 602.557617188 44 528.02734375 17 c 128,-1,47
 453.497070312 -10 453.497070312 -10 335.27734375 -10 c 0,0,1
EndSplineSet
Substitution2: "'onum' Oldstyle Figures lookup 33 subtable" three.osf
Substitution2: "'frac' Diagonal Fractions lookup 27 subtable" three.numr
Substitution2: "'dnom' Denominators lookup 25 subtable" three.dnom
Substitution2: "'numr' Numerators lookup 24 subtable" three.numr
Substitution2: "'sups' Superscript lookup 23 subtable" uni00B3
Substitution2: "'subs' Subscript lookup 22 subtable" uni2083
AlternateSubs2: "'aalt' Access All Alternates lookup 1 subtable" uni00B3 three.osf three.dnom three.numr uni2083
EndChar

StartChar: four
Encoding: 52 52 23
Width: 771
Flags: W
LayerCount: 2
Fore
SplineSet
462.349609375 0 m 1,0,-1
 462.349609375 160 l 1,1,-1
 64 160 l 1,2,-1
 64 234 l 1,3,-1
 441.790039062 718 l 1,4,-1
 572.860351562 718 l 1,5,-1
 572.860351562 237 l 1,6,-1
 706.5 237 l 1,7,-1
 706.5 160 l 1,8,-1
 572.860351562 160 l 1,9,-1
 572.860351562 0 l 1,10,-1
 462.349609375 0 l 1,0,-1
175.794921875 237 m 1,11,-1
 462.349609375 237 l 1,12,-1
 462.349609375 415 l 2,13,14
 462.349609375 442 462.349609375 442 462.9921875 472 c 128,-1,15
 463.634765625 502 463.634765625 502 464.919921875 531 c 128,-1,16
 466.205078125 560 466.205078125 560 467.490234375 584.5 c 128,-1,17
 468.775390625 609 468.775390625 609 470.059570312 626 c 1,18,-1
 464.919921875 626 l 1,19,20
 455.924804688 607 455.924804688 607 438.577148438 581 c 128,-1,21
 421.23046875 555 421.23046875 555 408.379882812 538 c 2,22,-1
 175.794921875 237 l 1,11,-1
EndSplineSet
Substitution2: "'onum' Oldstyle Figures lookup 33 subtable" four.osf
Substitution2: "'frac' Diagonal Fractions lookup 27 subtable" four.numr
Substitution2: "'dnom' Denominators lookup 25 subtable" four.dnom
Substitution2: "'numr' Numerators lookup 24 subtable" four.numr
Substitution2: "'sups' Superscript lookup 23 subtable" uni2074
Substitution2: "'subs' Subscript lookup 22 subtable" uni2084
AlternateSubs2: "'aalt' Access All Alternates lookup 1 subtable" uni2074 four.osf four.dnom four.numr uni2084
EndChar

StartChar: five
Encoding: 53 53 24
Width: 771
Flags: W
LayerCount: 2
Fore
SplineSet
330.137695312 -10 m 0,0,1
 269.7421875 -10 269.7421875 -10 208.0625 0 c 128,-1,2
 146.3828125 10 146.3828125 10 102.692382812 29 c 1,3,-1
 102.692382812 114 l 1,4,5
 146.3828125 92 146.3828125 92 202.922851562 80.5 c 128,-1,6
 259.462890625 69 259.462890625 69 319.857421875 69 c 0,7,8
 427.797851562 69 427.797851562 69 488.192382812 104.5 c 128,-1,9
 548.587890625 140 548.587890625 140 548.587890625 214 c 0,10,11
 548.587890625 264 548.587890625 264 521.602539062 297.5 c 128,-1,12
 494.6171875 331 494.6171875 331 445.14453125 348 c 128,-1,13
 395.672851562 365 395.672851562 365 328.852539062 365 c 0,14,15
 292.872070312 365 292.872070312 365 251.752929688 360.5 c 128,-1,16
 210.6328125 356 210.6328125 356 178.5078125 350 c 1,17,-1
 121.967773438 378 l 1,18,-1
 156.662109375 714 l 1,19,-1
 614.122070312 714 l 1,20,-1
 614.122070312 634 l 1,21,-1
 255.607421875 634 l 1,22,-1
 231.192382812 428 l 1,23,24
 258.177734375 433 258.177734375 433 297.370117188 435.5 c 128,-1,25
 336.5625 438 336.5625 438 366.1171875 438 c 0,26,27
 449.642578125 438 449.642578125 438 517.747070312 414 c 128,-1,28
 585.852539062 390 585.852539062 390 626.330078125 341.5 c 128,-1,29
 666.807617188 293 666.807617188 293 666.807617188 220 c 0,30,31
 666.807617188 150 666.807617188 150 627.615234375 98.5 c 128,-1,32
 588.422851562 47 588.422851562 47 513.25 18.5 c 128,-1,33
 438.077148438 -10 438.077148438 -10 330.137695312 -10 c 0,0,1
EndSplineSet
Substitution2: "'onum' Oldstyle Figures lookup 33 subtable" five.osf
Substitution2: "'frac' Diagonal Fractions lookup 27 subtable" five.numr
Substitution2: "'dnom' Denominators lookup 25 subtable" five.dnom
Substitution2: "'numr' Numerators lookup 24 subtable" five.numr
Substitution2: "'sups' Superscript lookup 23 subtable" uni2075
Substitution2: "'subs' Subscript lookup 22 subtable" uni2085
AlternateSubs2: "'aalt' Access All Alternates lookup 1 subtable" uni2075 five.osf five.dnom five.numr uni2085
EndChar

StartChar: six
Encoding: 54 54 25
Width: 771
Flags: W
LayerCount: 2
Fore
SplineSet
395.530273438 -10 m 0,0,1
 322.28515625 -10 322.28515625 -10 263.174804688 9.5 c 128,-1,2
 204.065429688 29 204.065429688 29 162.9453125 68.5 c 128,-1,3
 121.825195312 108 121.825195312 108 99.337890625 168 c 128,-1,4
 76.849609375 228 76.849609375 228 76.849609375 308 c 0,5,6
 76.849609375 385 76.849609375 385 94.197265625 459 c 128,-1,7
 111.544921875 533 111.544921875 533 157.8046875 593 c 128,-1,8
 204.065429688 653 204.065429688 653 287.58984375 688.5 c 128,-1,9
 371.115234375 724 371.115234375 724 503.469726562 724 c 0,10,11
 529.169921875 724 529.169921875 724 563.22265625 722 c 128,-1,12
 597.275390625 720 597.275390625 720 617.834960938 715 c 1,13,-1
 617.834960938 636 l 1,14,15
 595.990234375 642 595.990234375 642 566.434570312 645 c 128,-1,16
 536.879882812 648 536.879882812 648 507.325195312 648 c 0,17,18
 414.8046875 648 414.8046875 648 354.41015625 625.5 c 128,-1,19
 294.014648438 603 294.014648438 603 259.3203125 564 c 128,-1,20
 224.625 525 224.625 525 209.205078125 473.5 c 128,-1,21
 193.78515625 422 193.78515625 422 191.21484375 364 c 1,22,-1
 198.924804688 364 l 1,23,24
 215.629882812 389 215.629882812 389 245.184570312 409 c 128,-1,25
 274.740234375 429 274.740234375 429 317.14453125 440.5 c 128,-1,26
 359.549804688 452 359.549804688 452 413.51953125 452 c 0,27,28
 542.01953125 452 542.01953125 452 617.834960938 394 c 128,-1,29
 693.650390625 336 693.650390625 336 693.650390625 230 c 0,30,31
 693.650390625 156 693.650390625 156 657.02734375 102 c 128,-1,32
 620.405273438 48 620.405273438 48 553.584960938 19 c 128,-1,33
 486.764648438 -10 486.764648438 -10 395.530273438 -10 c 0,0,1
394.245117188 65 m 0,34,35
 477.76953125 65 477.76953125 65 530.455078125 103.5 c 128,-1,36
 583.139648438 142 583.139648438 142 583.139648438 230 c 0,37,38
 583.139648438 304 583.139648438 304 536.237304688 343 c 128,-1,39
 489.334960938 382 489.334960938 382 398.099609375 382 c 0,40,41
 336.419921875 382 336.419921875 382 289.517578125 362 c 128,-1,42
 242.615234375 342 242.615234375 342 216.915039062 311 c 128,-1,43
 191.21484375 280 191.21484375 280 191.21484375 247 c 0,44,45
 191.21484375 221 191.21484375 221 199.567382812 195 c 128,-1,46
 207.919921875 169 207.919921875 169 223.982421875 145.5 c 128,-1,47
 240.044921875 122 240.044921875 122 264.459960938 104 c 128,-1,48
 288.875 86 288.875 86 321.642578125 75.5 c 128,-1,49
 354.41015625 65 354.41015625 65 394.245117188 65 c 0,34,35
EndSplineSet
Substitution2: "'onum' Oldstyle Figures lookup 33 subtable" six.osf
Substitution2: "'frac' Diagonal Fractions lookup 27 subtable" six.numr
Substitution2: "'dnom' Denominators lookup 25 subtable" six.dnom
Substitution2: "'numr' Numerators lookup 24 subtable" six.numr
Substitution2: "'sups' Superscript lookup 23 subtable" uni2076
Substitution2: "'subs' Subscript lookup 22 subtable" uni2086
AlternateSubs2: "'aalt' Access All Alternates lookup 1 subtable" uni2076 six.osf six.dnom six.numr uni2086
EndChar

StartChar: seven
Encoding: 55 55 26
Width: 771
Flags: W
LayerCount: 2
Fore
SplineSet
223.33984375 0 m 1,0,-1
 576.71484375 634 l 1,1,-1
 76.849609375 634 l 1,2,-1
 76.849609375 714 l 1,3,-1
 693.650390625 714 l 1,4,-1
 693.650390625 643 l 1,5,-1
 345.415039062 0 l 1,6,-1
 223.33984375 0 l 1,0,-1
EndSplineSet
Substitution2: "'onum' Oldstyle Figures lookup 33 subtable" seven.osf
Substitution2: "'frac' Diagonal Fractions lookup 27 subtable" seven.numr
Substitution2: "'dnom' Denominators lookup 25 subtable" seven.dnom
Substitution2: "'numr' Numerators lookup 24 subtable" seven.numr
Substitution2: "'sups' Superscript lookup 23 subtable" uni2077
Substitution2: "'subs' Subscript lookup 22 subtable" uni2087
AlternateSubs2: "'aalt' Access All Alternates lookup 1 subtable" uni2077 seven.osf seven.dnom seven.numr uni2087
EndChar

StartChar: eight
Encoding: 56 56 27
Width: 771
Flags: W
LayerCount: 2
Fore
SplineSet
378.967773438 -10 m 0,0,1
 290.302734375 -10 290.302734375 -10 224.767578125 13 c 128,-1,2
 159.232421875 36 159.232421875 36 123.252929688 78.5 c 128,-1,3
 87.2724609375 121 87.2724609375 121 87.2724609375 179 c 0,4,5
 87.2724609375 230 87.2724609375 230 112.97265625 266.5 c 128,-1,6
 138.672851562 303 138.672851562 303 181.077148438 329.5 c 128,-1,7
 223.482421875 356 223.482421875 356 274.8828125 374 c 1,8,9
 233.762695312 393 233.762695312 393 197.139648438 418.5 c 128,-1,10
 160.517578125 444 160.517578125 444 138.672851562 477.5 c 128,-1,11
 116.827148438 511 116.827148438 511 116.827148438 554 c 0,12,13
 116.827148438 610 116.827148438 610 154.092773438 648 c 128,-1,14
 191.357421875 686 191.357421875 686 253.037109375 705 c 128,-1,15
 314.717773438 724 314.717773438 724 386.677734375 724 c 256,16,17
 458.637695312 724 458.637695312 724 519.032226562 705 c 128,-1,18
 579.427734375 686 579.427734375 686 616.049804688 648 c 128,-1,19
 652.672851562 610 652.672851562 610 652.672851562 554 c 0,20,21
 652.672851562 488 652.672851562 488 603.200195312 446.5 c 128,-1,22
 553.727539062 405 553.727539062 405 479.197265625 378 c 1,23,24
 535.737304688 356 535.737304688 356 581.997070312 328.5 c 128,-1,25
 628.2578125 301 628.2578125 301 655.2421875 265 c 128,-1,26
 682.227539062 229 682.227539062 229 682.227539062 180 c 0,27,28
 682.227539062 125 682.227539062 125 644.962890625 82 c 128,-1,29
 607.697265625 39 607.697265625 39 540.235351562 14.5 c 128,-1,30
 472.772460938 -10 472.772460938 -10 378.967773438 -10 c 0,0,1
382.822265625 63 m 0,31,32
 474.057617188 63 474.057617188 63 522.245117188 97.5 c 128,-1,33
 570.432617188 132 570.432617188 132 570.432617188 185 c 0,34,35
 570.432617188 221 570.432617188 221 547.9453125 246 c 128,-1,36
 525.45703125 271 525.45703125 271 481.125 293 c 128,-1,37
 436.79296875 315 436.79296875 315 368.6875 340 c 1,38,39
 317.287109375 322 317.287109375 322 279.379882812 299.5 c 128,-1,40
 241.47265625 277 241.47265625 277 220.912109375 247.5 c 128,-1,41
 200.352539062 218 200.352539062 218 200.352539062 180 c 0,42,43
 200.352539062 129 200.352539062 129 244.04296875 96 c 128,-1,44
 287.732421875 63 287.732421875 63 382.822265625 63 c 0,31,32
386.677734375 414 m 1,45,46
 430.3671875 429 430.3671875 429 465.0625 447 c 128,-1,47
 499.7578125 465 499.7578125 465 520.317382812 490 c 128,-1,48
 540.877929688 515 540.877929688 515 540.877929688 549 c 0,49,50
 540.877929688 598 540.877929688 598 498.47265625 623.5 c 128,-1,51
 456.067382812 649 456.067382812 649 384.107421875 649 c 0,52,53
 313.432617188 649 313.432617188 649 271.02734375 624 c 128,-1,54
 228.622070312 599 228.622070312 599 228.622070312 549 c 0,55,56
 228.622070312 512 228.622070312 512 251.752929688 487 c 128,-1,57
 274.8828125 462 274.8828125 462 310.862304688 445 c 128,-1,58
 346.842773438 428 346.842773438 428 386.677734375 414 c 1,45,46
EndSplineSet
Substitution2: "'onum' Oldstyle Figures lookup 33 subtable" eight.osf
Substitution2: "'frac' Diagonal Fractions lookup 27 subtable" eight.numr
Substitution2: "'dnom' Denominators lookup 25 subtable" eight.dnom
Substitution2: "'numr' Numerators lookup 24 subtable" eight.numr
Substitution2: "'sups' Superscript lookup 23 subtable" uni2078
Substitution2: "'subs' Subscript lookup 22 subtable" uni2088
AlternateSubs2: "'aalt' Access All Alternates lookup 1 subtable" uni2078 eight.osf eight.dnom eight.numr uni2088
EndChar

StartChar: nine
Encoding: 57 57 28
Width: 771
Flags: W
LayerCount: 2
Fore
SplineSet
278.594726562 -10 m 0,0,1
 249.040039062 -10 249.040039062 -10 218.200195312 -7.5 c 128,-1,2
 187.360351562 -5 187.360351562 -5 165.514648438 -1 c 1,3,-1
 165.514648438 78 l 1,4,5
 187.360351562 72 187.360351562 72 214.987304688 69 c 128,-1,6
 242.615234375 66 242.615234375 66 273.455078125 66 c 0,7,8
 360.834960938 66 360.834960938 66 418.66015625 88.5 c 128,-1,9
 476.485351562 111 476.485351562 111 510.537109375 150.5 c 128,-1,10
 544.58984375 190 544.58984375 190 560.65234375 241 c 128,-1,11
 576.71484375 292 576.71484375 292 579.28515625 350 c 1,12,-1
 571.575195312 350 l 1,13,14
 554.870117188 325 554.870117188 325 524.672851562 305 c 128,-1,15
 494.474609375 285 494.474609375 285 452.712890625 273.5 c 128,-1,16
 410.950195312 262 410.950195312 262 356.98046875 262 c 0,17,18
 228.48046875 262 228.48046875 262 152.665039062 320.5 c 128,-1,19
 76.849609375 379 76.849609375 379 76.849609375 488 c 0,20,21
 76.849609375 561 76.849609375 561 113.47265625 613.5 c 128,-1,22
 150.094726562 666 150.094726562 666 217.557617188 695 c 128,-1,23
 285.01953125 724 285.01953125 724 377.540039062 724 c 0,24,25
 448.21484375 724 448.21484375 724 506.682617188 705 c 128,-1,26
 565.150390625 686 565.150390625 686 606.912109375 645.5 c 128,-1,27
 648.674804688 605 648.674804688 605 671.162109375 542 c 128,-1,28
 693.650390625 479 693.650390625 479 693.650390625 391 c 0,29,30
 693.650390625 337 693.650390625 337 683.370117188 280.5 c 128,-1,31
 673.08984375 224 673.08984375 224 646.747070312 172 c 128,-1,32
 620.405273438 120 620.405273438 120 573.502929688 79 c 128,-1,33
 526.599609375 38 526.599609375 38 453.997070312 14 c 128,-1,34
 381.39453125 -10 381.39453125 -10 278.594726562 -10 c 0,0,1
368.544921875 332 m 0,35,36
 428.940429688 332 428.940429688 332 476.485351562 350.5 c 128,-1,37
 524.030273438 369 524.030273438 369 551.657226562 402 c 128,-1,38
 579.28515625 435 579.28515625 435 579.28515625 477 c 0,39,40
 579.28515625 503 579.28515625 503 567.077148438 532.5 c 128,-1,41
 554.870117188 562 554.870117188 562 530.455078125 588.5 c 128,-1,42
 506.040039062 615 506.040039062 615 467.490234375 632 c 128,-1,43
 428.940429688 649 428.940429688 649 376.254882812 649 c 0,44,45
 290.16015625 649 290.16015625 649 238.759765625 609 c 128,-1,46
 187.360351562 569 187.360351562 569 187.360351562 487 c 0,47,48
 187.360351562 406 187.360351562 406 235.547851562 369 c 128,-1,49
 283.735351562 332 283.735351562 332 368.544921875 332 c 0,35,36
EndSplineSet
Substitution2: "'onum' Oldstyle Figures lookup 33 subtable" nine.osf
Substitution2: "'frac' Diagonal Fractions lookup 27 subtable" nine.numr
Substitution2: "'dnom' Denominators lookup 25 subtable" nine.dnom
Substitution2: "'numr' Numerators lookup 24 subtable" nine.numr
Substitution2: "'sups' Superscript lookup 23 subtable" uni2079
Substitution2: "'subs' Subscript lookup 22 subtable" uni2089
AlternateSubs2: "'aalt' Access All Alternates lookup 1 subtable" uni2079 nine.osf nine.dnom nine.numr uni2089
EndChar

StartChar: colon
Encoding: 58 58 29
Width: 771
Flags: W
LayerCount: 2
Fore
SplineSet
386.53515625 410 m 256,0,1
 353.125 410 353.125 410 329.995117188 426 c 128,-1,2
 306.865234375 442 306.865234375 442 306.865234375 478 c 0,3,4
 306.865234375 516 306.865234375 516 329.995117188 531 c 128,-1,5
 353.125 546 353.125 546 386.53515625 546 c 256,6,7
 419.9453125 546 419.9453125 546 442.432617188 531 c 128,-1,8
 464.919921875 516 464.919921875 516 464.919921875 478 c 0,9,10
 464.919921875 442 464.919921875 442 442.432617188 426 c 128,-1,11
 419.9453125 410 419.9453125 410 386.53515625 410 c 256,0,1
385.25 -10 m 256,12,13
 351.83984375 -10 351.83984375 -10 328.709960938 6 c 128,-1,14
 305.580078125 22 305.580078125 22 305.580078125 58 c 0,15,16
 305.580078125 96 305.580078125 96 328.709960938 111 c 128,-1,17
 351.83984375 126 351.83984375 126 385.25 126 c 256,18,19
 418.66015625 126 418.66015625 126 441.147460938 111 c 128,-1,20
 463.634765625 96 463.634765625 96 463.634765625 58 c 0,21,22
 463.634765625 22 463.634765625 22 441.147460938 6 c 128,-1,23
 418.66015625 -10 418.66015625 -10 385.25 -10 c 256,12,13
EndSplineSet
EndChar

StartChar: semicolon
Encoding: 59 59 30
Width: 771
Flags: W
LayerCount: 2
Fore
SplineSet
271.455078125 -140 m 1,0,1
 285.58984375 -96 285.58984375 -96 298.440429688 -48.5 c 128,-1,2
 311.290039062 -1 311.290039062 -1 322.85546875 45 c 128,-1,3
 334.419921875 91 334.419921875 91 340.844726562 129 c 1,4,-1
 478.33984375 129 l 1,5,-1
 488.620117188 117 l 1,6,7
 479.625 88 479.625 88 465.490234375 55.5 c 128,-1,8
 451.35546875 23 451.35546875 23 435.29296875 -10.5 c 128,-1,9
 419.23046875 -44 419.23046875 -44 401.8828125 -77 c 128,-1,10
 384.53515625 -110 384.53515625 -110 366.544921875 -140 c 1,11,-1
 271.455078125 -140 l 1,0,1
415.375 410 m 256,12,13
 381.96484375 410 381.96484375 410 358.834960938 426 c 128,-1,14
 335.705078125 442 335.705078125 442 335.705078125 478 c 0,15,16
 335.705078125 516 335.705078125 516 358.834960938 531 c 128,-1,17
 381.96484375 546 381.96484375 546 415.375 546 c 256,18,19
 448.78515625 546 448.78515625 546 471.915039062 531 c 128,-1,20
 495.044921875 516 495.044921875 516 495.044921875 478 c 0,21,22
 495.044921875 442 495.044921875 442 471.915039062 426 c 128,-1,23
 448.78515625 410 448.78515625 410 415.375 410 c 256,12,13
EndSplineSet
EndChar

StartChar: less
Encoding: 60 60 31
Width: 771
Flags: W
LayerCount: 2
Fore
SplineSet
655.099609375 116 m 1,0,-1
 115.400390625 323 l 1,1,-1
 115.400390625 373 l 1,2,-1
 655.099609375 608 l 1,3,-1
 655.099609375 530 l 1,4,-1
 236.190429688 351 l 1,5,-1
 655.099609375 194 l 1,6,-1
 655.099609375 116 l 1,0,-1
EndSplineSet
EndChar

StartChar: equal
Encoding: 61 61 32
Width: 771
Flags: W
LayerCount: 2
Fore
SplineSet
89.7001953125 407 m 1,0,-1
 89.7001953125 487 l 1,1,-1
 680.799804688 487 l 1,2,-1
 680.799804688 407 l 1,3,-1
 89.7001953125 407 l 1,0,-1
89.7001953125 217 m 1,4,-1
 89.7001953125 297 l 1,5,-1
 680.799804688 297 l 1,6,-1
 680.799804688 217 l 1,7,-1
 89.7001953125 217 l 1,4,-1
EndSplineSet
Substitution2: "'sups' Superscript lookup 23 subtable" uni207C
Substitution2: "'subs' Subscript lookup 22 subtable" uni208C
AlternateSubs2: "'aalt' Access All Alternates lookup 1 subtable" uni208C uni207C
EndChar

StartChar: greater
Encoding: 62 62 33
Width: 771
Flags: W
LayerCount: 2
Fore
SplineSet
115.400390625 116 m 1,0,-1
 115.400390625 194 l 1,1,-1
 534.309570312 351 l 1,2,-1
 115.400390625 530 l 1,3,-1
 115.400390625 608 l 1,4,-1
 655.099609375 373 l 1,5,-1
 655.099609375 323 l 1,6,-1
 115.400390625 116 l 1,0,-1
EndSplineSet
EndChar

StartChar: question
Encoding: 63 63 34
Width: 771
Flags: W
LayerCount: 2
Fore
SplineSet
295.299804688 220 m 2,0,1
 295.299804688 258 295.299804688 258 306.865234375 286 c 128,-1,2
 318.4296875 314 318.4296875 314 347.342773438 339.5 c 128,-1,3
 376.254882812 365 376.254882812 365 425.084960938 392 c 0,4,5
 468.775390625 416 468.775390625 416 495.1171875 437 c 128,-1,6
 521.459960938 458 521.459960938 458 533.66796875 483 c 128,-1,7
 545.875 508 545.875 508 545.875 545 c 0,8,9
 545.875 589 545.875 589 504.112304688 617.5 c 128,-1,10
 462.349609375 646 462.349609375 646 382.6796875 646 c 0,11,12
 315.860351562 646 315.860351562 646 262.532226562 633.5 c 128,-1,13
 209.205078125 621 209.205078125 621 156.51953125 602 c 1,14,-1
 115.400390625 677 l 1,15,16
 168.084960938 695 168.084960938 695 229.122070312 709.5 c 128,-1,17
 290.16015625 724 290.16015625 724 376.254882812 724 c 256,18,19
 462.349609375 724 462.349609375 724 524.672851562 702.5 c 128,-1,20
 586.995117188 681 586.995117188 681 621.047851562 642 c 128,-1,21
 655.099609375 603 655.099609375 603 655.099609375 549 c 0,22,23
 655.099609375 502 655.099609375 502 639.6796875 468 c 128,-1,24
 624.259765625 434 624.259765625 434 592.77734375 406.5 c 128,-1,25
 561.294921875 379 561.294921875 379 511.1796875 350 c 256,26,27
 461.065429688 321 461.065429688 321 436.0078125 300.5 c 128,-1,28
 410.950195312 280 410.950195312 280 403.240234375 260 c 128,-1,29
 395.530273438 240 395.530273438 240 395.530273438 211 c 2,30,-1
 395.530273438 202 l 1,31,-1
 295.299804688 202 l 1,32,-1
 295.299804688 220 l 2,0,1
350.5546875 -10 m 256,33,34
 317.14453125 -10 317.14453125 -10 294.014648438 6 c 128,-1,35
 270.884765625 22 270.884765625 22 270.884765625 58 c 0,36,37
 270.884765625 96 270.884765625 96 294.014648438 111 c 128,-1,38
 317.14453125 126 317.14453125 126 350.5546875 126 c 256,39,40
 383.96484375 126 383.96484375 126 407.094726562 111 c 128,-1,41
 430.224609375 96 430.224609375 96 430.224609375 58 c 0,42,43
 430.224609375 22 430.224609375 22 407.094726562 6 c 128,-1,44
 383.96484375 -10 383.96484375 -10 350.5546875 -10 c 256,33,34
EndSplineSet
Substitution2: "'smcp' Lowercase to Small Capitals lookup 35 subtable" question.sc
Substitution2: "'c2sc' Capitals to Small Capitals lookup 34 subtable" question.sc
Substitution2: "'aalt' Access All Alternates lookup 0 subtable" question.sc
EndChar

StartChar: at
Encoding: 64 64 35
Width: 771
Flags: W
LayerCount: 2
Fore
SplineSet
416.08984375 -89 m 0,0,1
 287.58984375 -89 287.58984375 -89 198.924804688 -42 c 128,-1,2
 110.259765625 5 110.259765625 5 64.642578125 91.5 c 128,-1,3
 19.025390625 178 19.025390625 178 19.025390625 294 c 0,4,5
 19.025390625 386 19.025390625 386 44.08203125 463 c 128,-1,6
 69.1396484375 540 69.1396484375 540 118.612304688 596 c 128,-1,7
 168.084960938 652 168.084960938 652 241.330078125 683 c 128,-1,8
 314.575195312 714 314.575195312 714 409.665039062 714 c 0,9,10
 513.75 714 513.75 714 590.20703125 671 c 128,-1,11
 666.665039062 628 666.665039062 628 709.0703125 548 c 128,-1,12
 751.474609375 468 751.474609375 468 751.474609375 357 c 0,13,14
 751.474609375 311 751.474609375 311 743.122070312 267 c 128,-1,15
 734.76953125 223 734.76953125 223 717.422851562 187 c 128,-1,16
 700.075195312 151 700.075195312 151 671.162109375 129.5 c 128,-1,17
 642.25 108 642.25 108 599.844726562 108 c 0,18,19
 556.155273438 108 556.155273438 108 531.740234375 135 c 128,-1,20
 507.325195312 162 507.325195312 162 500.900390625 196 c 1,21,-1
 498.330078125 196 l 1,22,23
 480.33984375 159 480.33984375 159 444.360351562 133.5 c 128,-1,24
 408.379882812 108 408.379882812 108 354.41015625 108 c 0,25,26
 276.025390625 108 276.025390625 108 233.620117188 160 c 128,-1,27
 191.21484375 212 191.21484375 212 191.21484375 296 c 0,28,29
 191.21484375 362 191.21484375 362 218.200195312 412.5 c 128,-1,30
 245.184570312 463 245.184570312 463 294.657226562 491.5 c 128,-1,31
 344.129882812 520 344.129882812 520 412.235351562 520 c 0,32,33
 458.495117188 520 458.495117188 520 503.469726562 512.5 c 128,-1,34
 548.4453125 505 548.4453125 505 572.860351562 497 c 1,35,-1
 558.724609375 294 l 2,36,37
 557.440429688 286 557.440429688 286 557.440429688 275.5 c 128,-1,38
 557.440429688 265 557.440429688 265 557.440429688 257 c 0,39,40
 557.440429688 205 557.440429688 205 571.575195312 188 c 128,-1,41
 585.709960938 171 585.709960938 171 602.415039062 171 c 0,42,43
 625.544921875 171 625.544921875 171 639.6796875 196.5 c 128,-1,44
 653.815429688 222 653.815429688 222 659.59765625 264.5 c 128,-1,45
 665.379882812 307 665.379882812 307 665.379882812 358 c 0,46,47
 665.379882812 497 665.379882812 497 594.0625 572.5 c 128,-1,48
 522.745117188 648 522.745117188 648 408.379882812 648 c 0,49,50
 310.719726562 648 310.719726562 648 243.2578125 604 c 128,-1,51
 175.794921875 560 175.794921875 560 141.7421875 481.5 c 128,-1,52
 107.690429688 403 107.690429688 403 107.690429688 297 c 0,53,54
 107.690429688 199 107.690429688 199 142.384765625 127 c 128,-1,55
 177.080078125 55 177.080078125 55 246.469726562 16.5 c 128,-1,56
 315.860351562 -22 315.860351562 -22 419.9453125 -22 c 0,57,58
 484.1953125 -22 484.1953125 -22 538.165039062 -11 c 128,-1,59
 592.134765625 0 592.134765625 0 637.110351562 16 c 1,60,-1
 637.110351562 -49 l 1,61,62
 590.849609375 -67 590.849609375 -67 538.165039062 -78 c 128,-1,63
 485.48046875 -89 485.48046875 -89 416.08984375 -89 c 0,0,1
371.115234375 171 m 0,64,65
 418.66015625 171 418.66015625 171 437.934570312 213.5 c 128,-1,66
 457.209960938 256 457.209960938 256 462.349609375 323 c 2,67,-1
 471.344726562 447 l 1,68,69
 458.495117188 451 458.495117188 451 441.790039062 454 c 128,-1,70
 425.084960938 457 425.084960938 457 407.094726562 457 c 0,71,72
 364.690429688 457 364.690429688 457 339.6328125 433 c 128,-1,73
 314.575195312 409 314.575195312 409 303.009765625 372 c 128,-1,74
 291.4453125 335 291.4453125 335 291.4453125 294 c 0,75,76
 291.4453125 229 291.4453125 229 313.290039062 200 c 128,-1,77
 335.134765625 171 335.134765625 171 371.115234375 171 c 0,64,65
EndSplineSet
EndChar

StartChar: A
Encoding: 65 65 36
Width: 771
GlyphClass: 2
Flags: W
AnchorPoint: "Anchor-3" 745.05 572 basechar 0
AnchorPoint: "Anchor-2" 387.82 572 basechar 0
AnchorPoint: "Anchor-1" 385.25 0 basechar 0
AnchorPoint: "Anchor-0" 610.125 10 basechar 0
LayerCount: 2
Fore
SplineSet
46.009765625 0 m 1,0,-1
 323.5703125 574 l 1,1,-1
 450.78515625 574 l 1,2,-1
 724.490234375 0 l 1,3,-1
 601.129882812 0 l 1,4,-1
 527.884765625 163 l 1,5,-1
 246.469726562 163 l 1,6,-1
 169.370117188 0 l 1,7,-1
 46.009765625 0 l 1,0,-1
277.309570312 236 m 1,8,-1
 494.474609375 236 l 1,9,-1
 425.084960938 395 l 2,10,11
 418.66015625 411 418.66015625 411 411.592773438 426.5 c 128,-1,12
 404.525390625 442 404.525390625 442 398.7421875 457.5 c 128,-1,13
 392.959960938 473 392.959960938 473 386.53515625 489 c 1,14,15
 381.39453125 473 381.39453125 473 375.612304688 457.5 c 128,-1,16
 369.830078125 442 369.830078125 442 363.405273438 426.5 c 128,-1,17
 356.98046875 411 356.98046875 411 349.26953125 395 c 2,18,-1
 277.309570312 236 l 1,8,-1
EndSplineSet
Substitution2: "'c2sc' Capitals to Small Capitals lookup 34 subtable" a.sc
Substitution2: "Single Substitution lookup 32 subtable" ordfeminine
AlternateSubs2: "'aalt' Access All Alternates lookup 1 subtable" ordfeminine a.sc
EndChar

StartChar: B
Encoding: 66 66 37
Width: 771
GlyphClass: 2
Flags: W
AnchorPoint: "Anchor-3" 736.643 572 basechar 0
AnchorPoint: "Anchor-2" 376.843 572 basechar 0
AnchorPoint: "Anchor-1" 389.692 0 basechar 0
LayerCount: 2
Fore
SplineSet
153.252929688 0 m 1,0,-1
 153.252929688 572 l 1,1,-1
 379.412109375 572 l 2,2,3
 478.357421875 572 478.357421875 572 540.037109375 555.5 c 128,-1,4
 601.717773438 539 601.717773438 539 631.272460938 507 c 128,-1,5
 660.827148438 475 660.827148438 475 660.827148438 427 c 0,6,7
 660.827148438 393 660.827148438 393 643.48046875 367 c 128,-1,8
 626.1328125 341 626.1328125 341 594.650390625 324.5 c 128,-1,9
 563.16796875 308 563.16796875 308 520.762695312 302 c 1,10,-1
 520.762695312 299 l 1,11,12
 568.307617188 293 568.307617188 293 603.002929688 277.5 c 128,-1,13
 637.697265625 262 637.697265625 262 656.97265625 234.5 c 128,-1,14
 676.247070312 207 676.247070312 207 676.247070312 165 c 0,15,16
 676.247070312 83 676.247070312 83 602.360351562 41.5 c 128,-1,17
 528.47265625 0 528.47265625 0 406.397460938 0 c 2,18,-1
 153.252929688 0 l 1,0,-1
401.2578125 69 m 2,19,20
 483.497070312 69 483.497070312 69 522.690429688 95 c 128,-1,21
 561.8828125 121 561.8828125 121 561.8828125 170 c 0,22,23
 561.8828125 214 561.8828125 214 520.762695312 239 c 128,-1,24
 479.642578125 264 479.642578125 264 392.262695312 264 c 2,25,-1
 265.047851562 264 l 1,26,-1
 265.047851562 69 l 1,27,-1
 401.2578125 69 l 2,19,20
389.692382812 328 m 2,28,29
 473.217773438 328 473.217773438 328 509.197265625 350.5 c 128,-1,30
 545.177734375 373 545.177734375 373 545.177734375 417 c 256,31,32
 545.177734375 461 545.177734375 461 504.057617188 482 c 128,-1,33
 462.9375 503 462.9375 503 379.412109375 503 c 2,34,-1
 265.047851562 503 l 1,35,-1
 265.047851562 328 l 1,36,-1
 389.692382812 328 l 2,28,29
EndSplineSet
Substitution2: "'c2sc' Capitals to Small Capitals lookup 34 subtable" b.sc
Substitution2: "'aalt' Access All Alternates lookup 0 subtable" b.sc
EndChar

StartChar: C
Encoding: 67 67 38
Width: 771
GlyphClass: 2
Flags: W
AnchorPoint: "Anchor-3" 743.197 572 basechar 0
AnchorPoint: "Anchor-2" 460.497 572 basechar 0
AnchorPoint: "Anchor-1" 447.647 0 basechar 0
LayerCount: 2
Fore
SplineSet
450.217773438 -8 m 0,0,1
 335.852539062 -8 335.852539062 -8 260.037109375 29 c 128,-1,2
 184.22265625 66 184.22265625 66 146.315429688 132.5 c 128,-1,3
 108.407226562 199 108.407226562 199 108.407226562 287 c 0,4,5
 108.407226562 373 108.407226562 373 151.455078125 439 c 128,-1,6
 194.502929688 505 194.502929688 505 274.815429688 542.5 c 128,-1,7
 355.127929688 580 355.127929688 580 465.637695312 580 c 0,8,9
 520.892578125 580 520.892578125 580 574.219726562 571 c 128,-1,10
 627.547851562 562 627.547851562 562 675.092773438 544 c 1,11,-1
 637.827148438 473 l 1,12,13
 597.9921875 488 597.9921875 488 555.587890625 497 c 128,-1,14
 513.182617188 506 513.182617188 506 468.20703125 506 c 0,15,16
 391.107421875 506 391.107421875 506 337.137695312 479 c 128,-1,17
 283.16796875 452 283.16796875 452 254.897460938 402.5 c 128,-1,18
 226.627929688 353 226.627929688 353 226.627929688 286 c 0,19,20
 226.627929688 183 226.627929688 183 286.379882812 124.5 c 128,-1,21
 346.1328125 66 346.1328125 66 466.922851562 66 c 0,22,23
 514.467773438 66 514.467773438 66 558.799804688 73.5 c 128,-1,24
 603.1328125 81 603.1328125 81 645.537109375 94 c 1,25,-1
 645.537109375 17 l 1,26,27
 604.41796875 4 604.41796875 4 555.587890625 -2 c 128,-1,28
 506.7578125 -8 506.7578125 -8 450.217773438 -8 c 0,0,1
EndSplineSet
Substitution2: "'c2sc' Capitals to Small Capitals lookup 34 subtable" c.sc
Substitution2: "'aalt' Access All Alternates lookup 0 subtable" c.sc
EndChar

StartChar: D
Encoding: 68 68 39
Width: 771
GlyphClass: 2
Flags: W
AnchorPoint: "Anchor-4" 378.268 286 basechar 0
AnchorPoint: "Anchor-3" 738.067 572 basechar 0
AnchorPoint: "Anchor-2" 378.268 572 basechar 0
AnchorPoint: "Anchor-1" 378.268 0 basechar 0
LayerCount: 2
Fore
SplineSet
113.557617188 0 m 1,0,-1
 113.557617188 572 l 1,1,-1
 337.147460938 572 l 2,2,3
 517.047851562 572 517.047851562 572 611.495117188 500.5 c 128,-1,4
 705.942382812 429 705.942382812 429 705.942382812 293 c 0,5,6
 705.942382812 196 705.942382812 196 660.325195312 131 c 128,-1,7
 614.70703125 66 614.70703125 66 527.969726562 33 c 128,-1,8
 441.232421875 0 441.232421875 0 317.872070312 0 c 2,9,-1
 113.557617188 0 l 1,0,-1
317.872070312 73 m 2,10,11
 455.3671875 73 455.3671875 73 522.1875 127 c 128,-1,12
 589.0078125 181 589.0078125 181 589.0078125 290 c 0,13,14
 589.0078125 394 589.0078125 394 523.47265625 446.5 c 128,-1,15
 457.9375 499 457.9375 499 332.0078125 499 c 2,16,-1
 225.352539062 499 l 1,17,-1
 225.352539062 73 l 1,18,-1
 317.872070312 73 l 2,10,11
EndSplineSet
Substitution2: "'c2sc' Capitals to Small Capitals lookup 34 subtable" d.sc
Substitution2: "'aalt' Access All Alternates lookup 0 subtable" d.sc
EndChar

StartChar: E
Encoding: 69 69 40
Width: 771
GlyphClass: 2
Flags: W
AnchorPoint: "Anchor-2" 409.525 536 basechar 0
AnchorPoint: "Anchor-1" 428.8 0 basechar 0
LayerCount: 2
Fore
SplineSet
418.51953125 -10 m 0,0,1
 270.745117188 -10 270.745117188 -10 200.0703125 34.5 c 128,-1,2
 129.39453125 79 129.39453125 79 129.39453125 146 c 0,3,4
 129.39453125 186 129.39453125 186 150.59765625 211.5 c 128,-1,5
 171.799804688 237 171.799804688 237 206.495117188 252.5 c 128,-1,6
 241.190429688 268 241.190429688 268 282.309570312 277 c 1,7,-1
 282.309570312 282 l 1,8,9
 243.759765625 291 243.759765625 291 214.84765625 307 c 128,-1,10
 185.934570312 323 185.934570312 323 169.872070312 347.5 c 128,-1,11
 153.809570312 372 153.809570312 372 153.809570312 404 c 0,12,13
 153.809570312 449 153.809570312 449 187.862304688 481 c 128,-1,14
 221.915039062 513 221.915039062 513 281.66796875 529.5 c 128,-1,15
 341.419921875 546 341.419921875 546 418.51953125 546 c 0,16,17
 493.049804688 546 493.049804688 546 546.377929688 536 c 128,-1,18
 599.705078125 526 599.705078125 526 651.10546875 508 c 1,19,-1
 608.700195312 438 l 1,20,21
 566.294921875 453 566.294921875 453 521.962890625 463 c 128,-1,22
 477.629882812 473 477.629882812 473 417.235351562 473 c 0,23,24
 340.134765625 473 340.134765625 473 300.942382812 454 c 128,-1,25
 261.75 435 261.75 435 261.75 397 c 0,26,27
 261.75 353 261.75 353 315.077148438 334 c 128,-1,28
 368.405273438 315 368.405273438 315 458.35546875 315 c 2,29,-1
 530.315429688 315 l 1,30,-1
 530.315429688 243 l 1,31,-1
 436.509765625 243 l 2,32,33
 338.849609375 243 338.849609375 243 290.662109375 220 c 128,-1,34
 242.474609375 197 242.474609375 197 242.474609375 151 c 0,35,36
 242.474609375 118 242.474609375 118 266.889648438 98.5 c 128,-1,37
 291.3046875 79 291.3046875 79 332.424804688 70.5 c 128,-1,38
 373.544921875 62 373.544921875 62 424.9453125 62 c 0,39,40
 496.905273438 62 496.905273438 62 551.517578125 75 c 128,-1,41
 606.129882812 88 606.129882812 88 648.53515625 104 c 1,42,-1
 648.53515625 27 l 1,43,44
 608.700195312 11 608.700195312 11 553.4453125 0.5 c 128,-1,45
 498.190429688 -10 498.190429688 -10 418.51953125 -10 c 0,0,1
EndSplineSet
Substitution2: "'c2sc' Capitals to Small Capitals lookup 34 subtable" e.sc
Substitution2: "'aalt' Access All Alternates lookup 0 subtable" e.sc
EndChar

StartChar: F
Encoding: 70 70 41
Width: 771
GlyphClass: 2
Flags: W
AnchorPoint: "Anchor-3" 742.2 572 basechar 0
AnchorPoint: "Anchor-2" 408.1 572 basechar 0
AnchorPoint: "Anchor-1" 408.1 0 basechar 0
LayerCount: 2
Fore
SplineSet
171.66015625 0 m 1,0,-1
 171.66015625 572 l 1,1,-1
 618.83984375 572 l 1,2,-1
 618.83984375 501 l 1,3,-1
 283.455078125 501 l 1,4,-1
 283.455078125 309 l 1,5,-1
 599.565429688 309 l 1,6,-1
 599.565429688 238 l 1,7,-1
 283.455078125 238 l 1,8,-1
 283.455078125 0 l 1,9,-1
 171.66015625 0 l 1,0,-1
EndSplineSet
Substitution2: "'c2sc' Capitals to Small Capitals lookup 34 subtable" f.sc
Substitution2: "'aalt' Access All Alternates lookup 0 subtable" f.sc
EndChar

StartChar: G
Encoding: 71 71 42
Width: 771
GlyphClass: 2
Flags: W
AnchorPoint: "Anchor-3" 748.043 572 basechar 0
AnchorPoint: "Anchor-2" 426.793 572 basechar 0
AnchorPoint: "Anchor-1" 426.793 0 basechar 0
LayerCount: 2
Fore
SplineSet
433.217773438 -8 m 0,0,1
 255.887695312 -8 255.887695312 -8 159.512695312 66.5 c 128,-1,2
 63.1376953125 141 63.1376953125 141 63.1376953125 278 c 0,3,4
 63.1376953125 370 63.1376953125 370 106.827148438 438 c 128,-1,5
 150.517578125 506 150.517578125 506 236.612304688 544 c 128,-1,6
 322.70703125 582 322.70703125 582 449.922851562 582 c 0,7,8
 510.317382812 582 510.317382812 582 568.78515625 573 c 128,-1,9
 627.252929688 564 627.252929688 564 674.797851562 547 c 1,10,-1
 636.247070312 476 l 1,11,12
 591.272460938 493 591.272460938 493 544.370117188 501 c 128,-1,13
 497.467773438 509 497.467773438 509 449.922851562 509 c 0,14,15
 361.2578125 509 361.2578125 509 301.504882812 481 c 128,-1,16
 241.752929688 453 241.752929688 453 210.912109375 402 c 128,-1,17
 180.072265625 351 180.072265625 351 180.072265625 281 c 0,18,19
 180.072265625 177 180.072265625 177 246.892578125 121 c 128,-1,20
 313.712890625 65 313.712890625 65 442.212890625 65 c 0,21,22
 479.477539062 65 479.477539062 65 515.45703125 69.5 c 128,-1,23
 551.4375 74 551.4375 74 578.422851562 81 c 1,24,-1
 578.422851562 235 l 1,25,-1
 393.3828125 235 l 1,26,-1
 393.3828125 306 l 1,27,-1
 686.362304688 306 l 1,28,-1
 686.362304688 27 l 1,29,30
 634.962890625 11 634.962890625 11 566.857421875 1.5 c 128,-1,31
 498.752929688 -8 498.752929688 -8 433.217773438 -8 c 0,0,1
EndSplineSet
Substitution2: "'c2sc' Capitals to Small Capitals lookup 34 subtable" g.sc
Substitution2: "'aalt' Access All Alternates lookup 0 subtable" g.sc
EndChar

StartChar: H
Encoding: 72 72 43
Width: 771
GlyphClass: 2
Flags: W
AnchorPoint: "Anchor-4" 385.25 286 basechar 0
AnchorPoint: "Anchor-3" 745.05 572 basechar 0
AnchorPoint: "Anchor-2" 385.25 572 basechar 0
AnchorPoint: "Anchor-1" 385.25 0 basechar 0
LayerCount: 2
Fore
SplineSet
96.125 0 m 1,0,-1
 96.125 572 l 1,1,-1
 207.919921875 572 l 1,2,-1
 207.919921875 334 l 1,3,-1
 562.580078125 334 l 1,4,-1
 562.580078125 572 l 1,5,-1
 674.375 572 l 1,6,-1
 674.375 0 l 1,7,-1
 562.580078125 0 l 1,8,-1
 562.580078125 261 l 1,9,-1
 207.919921875 261 l 1,10,-1
 207.919921875 0 l 1,11,-1
 96.125 0 l 1,0,-1
EndSplineSet
Substitution2: "'c2sc' Capitals to Small Capitals lookup 34 subtable" h.sc
Substitution2: "'aalt' Access All Alternates lookup 0 subtable" h.sc
EndChar

StartChar: I
Encoding: 73 73 44
Width: 771
GlyphClass: 2
Flags: W
AnchorPoint: "Anchor-3" 745.05 572 basechar 0
AnchorPoint: "Anchor-2" 385.25 572 basechar 0
AnchorPoint: "Anchor-1" 385.25 0 basechar 0
LayerCount: 2
Fore
SplineSet
153.950195312 0 m 1,0,-1
 153.950195312 62 l 1,1,-1
 326.139648438 75 l 1,2,-1
 326.139648438 497 l 1,3,-1
 153.950195312 510 l 1,4,-1
 153.950195312 572 l 1,5,-1
 616.549804688 572 l 1,6,-1
 616.549804688 510 l 1,7,-1
 441.790039062 497 l 1,8,-1
 441.790039062 75 l 1,9,-1
 616.549804688 62 l 1,10,-1
 616.549804688 0 l 1,11,-1
 153.950195312 0 l 1,0,-1
EndSplineSet
Substitution2: "'c2sc' Capitals to Small Capitals lookup 34 subtable" i.sc
Substitution2: "'aalt' Access All Alternates lookup 0 subtable" i.sc
EndChar

StartChar: J
Encoding: 74 74 45
Width: 771
GlyphClass: 2
Flags: W
AnchorPoint: "Anchor-3" 744.338 572 basechar 0
AnchorPoint: "Anchor-2" 534.883 572 basechar 0
AnchorPoint: "Anchor-1" 384.537 -15 basechar 0
LayerCount: 2
Fore
SplineSet
348.557617188 -15 m 0,0,1
 306.15234375 -15 306.15234375 -15 260.53515625 -7 c 128,-1,2
 214.91796875 1 214.91796875 1 178.9375 14 c 1,3,-1
 178.9375 99 l 1,4,5
 208.4921875 89 208.4921875 89 251.540039062 78.5 c 128,-1,6
 294.587890625 68 294.587890625 68 339.5625 68 c 0,7,8
 403.8125 68 403.8125 68 442.362304688 103.5 c 128,-1,9
 480.912109375 139 480.912109375 139 480.912109375 224 c 2,10,-1
 480.912109375 572 l 1,11,-1
 596.5625 572 l 1,12,-1
 596.5625 212 l 2,13,14
 596.5625 140 596.5625 140 568.29296875 89 c 128,-1,15
 540.022460938 38 540.022460938 38 485.41015625 11.5 c 128,-1,16
 430.797851562 -15 430.797851562 -15 348.557617188 -15 c 0,0,1
EndSplineSet
Substitution2: "'c2sc' Capitals to Small Capitals lookup 34 subtable" j.sc
Substitution2: "'aalt' Access All Alternates lookup 0 subtable" j.sc
EndChar

StartChar: K
Encoding: 75 75 46
Width: 771
GlyphClass: 2
Flags: W
AnchorPoint: "Anchor-3" 739.35 572 basechar 0
AnchorPoint: "Anchor-2" 398.825 572 basechar 0
AnchorPoint: "Anchor-1" 398.825 0 basechar 0
LayerCount: 2
Fore
SplineSet
127.690429688 0 m 1,0,-1
 127.690429688 572 l 1,1,-1
 240.76953125 572 l 1,2,-1
 240.76953125 294 l 1,3,4
 257.474609375 311 257.474609375 311 276.75 328 c 128,-1,5
 296.025390625 345 296.025390625 345 314.014648438 361 c 2,6,-1
 551.740234375 572 l 1,7,-1
 680.240234375 572 l 1,8,-1
 403.96484375 324 l 1,9,-1
 682.809570312 0 l 1,10,-1
 553.025390625 0 l 1,11,-1
 323.009765625 268 l 1,12,-1
 240.76953125 217 l 1,13,-1
 240.76953125 0 l 1,14,-1
 127.690429688 0 l 1,0,-1
EndSplineSet
Substitution2: "'c2sc' Capitals to Small Capitals lookup 34 subtable" k.sc
Substitution2: "'aalt' Access All Alternates lookup 0 subtable" k.sc
EndChar

StartChar: L
Encoding: 76 76 47
Width: 771
GlyphClass: 2
Flags: W
AnchorPoint: "Anchor-4" 253.91 286 basechar 0
AnchorPoint: "Anchor-3" 575.16 572 basechar 0
AnchorPoint: "Anchor-2" 248.77 572 basechar 0
AnchorPoint: "Anchor-1" 431.24 0 basechar 0
LayerCount: 2
Fore
SplineSet
193.514648438 0 m 1,0,-1
 193.514648438 572 l 1,1,-1
 305.309570312 572 l 1,2,-1
 305.309570312 73 l 1,3,-1
 632.985351562 73 l 1,4,-1
 632.985351562 0 l 1,5,-1
 193.514648438 0 l 1,0,-1
EndSplineSet
Substitution2: "'c2sc' Capitals to Small Capitals lookup 34 subtable" l.sc
Substitution2: "'aalt' Access All Alternates lookup 0 subtable" l.sc
EndChar

StartChar: M
Encoding: 77 77 48
Width: 771
GlyphClass: 2
Flags: W
AnchorPoint: "Anchor-1" 389.635 511.861 basechar 0
AnchorPoint: "Anchor-0" 389.635 22.2148 basechar 0
LayerCount: 2
Fore
SplineSet
729.532226562 531.440429688 m 5,0,-1
 729.532226562 0.7998046875 l 5,1,-1
 635.123046875 0.7998046875 l 5,2,-1
 635.123046875 339.379882812 l 6,3,4
 635.123046875 360.169921875 635.123046875 360.169921875 636.915039062 382.940429688 c 132,-1,5
 638.708007812 405.709960938 638.708007812 405.709960938 641.098632812 427.490234375 c 5,6,-1
 637.512695312 427.490234375 l 5,7,-1
 428.37890625 0.7998046875 l 5,8,-1
 339.9453125 0.7998046875 l 5,9,-1
 136.787109375 427.490234375 l 5,10,-1
 133.202148438 427.490234375 l 5,11,12
 136.787109375 382.940429688 136.787109375 382.940429688 136.787109375 336.41015625 c 6,13,-1
 136.787109375 0.7998046875 l 5,14,-1
 42.3779296875 0.7998046875 l 5,15,-1
 42.3779296875 531.440429688 l 5,16,-1
 182.198242188 531.440429688 l 5,17,-1
 384.162109375 104.75 l 5,18,-1
 589.7109375 531.440429688 l 5,19,-1
 729.532226562 531.440429688 l 5,0,-1
EndSplineSet
Substitution2: "'c2sc' Capitals to Small Capitals lookup 34 subtable" m.sc
Substitution2: "'aalt' Access All Alternates lookup 0 subtable" m.sc
EndChar

StartChar: N
Encoding: 78 78 49
Width: 771
GlyphClass: 2
Flags: W
AnchorPoint: "Anchor-2" 711.67 536 basechar 0
AnchorPoint: "Anchor-1" 375 536 basechar 0
AnchorPoint: "Anchor-0" 375 0 basechar 0
LayerCount: 2
Fore
SplineSet
78.1650390625 0 m 5,0,-1
 78.1650390625 536 l 5,1,-1
 216.9453125 536 l 5,2,-1
 572.889648438 104 l 5,3,4
 571.60546875 118 571.60546875 118 569.677734375 142 c 132,-1,5
 567.75 166 567.75 166 566.46484375 190 c 132,-1,6
 565.1796875 214 565.1796875 214 565.1796875 226 c 6,7,-1
 565.1796875 536 l 5,8,-1
 671.834960938 536 l 5,9,-1
 671.834960938 0 l 5,10,-1
 531.76953125 0 l 5,11,-1
 179.6796875 431 l 5,12,13
 180.96484375 418 180.96484375 418 182.25 392.5 c 132,-1,14
 183.53515625 367 183.53515625 367 184.177734375 341 c 132,-1,15
 184.8203125 315 184.8203125 315 184.8203125 299 c 6,16,-1
 184.8203125 0 l 5,17,-1
 78.1650390625 0 l 5,0,-1
EndSplineSet
Substitution2: "'c2sc' Capitals to Small Capitals lookup 34 subtable" n.sc
Substitution2: "'aalt' Access All Alternates lookup 0 subtable" n.sc
EndChar

StartChar: O
Encoding: 79 79 50
Width: 771
GlyphClass: 2
Flags: W
AnchorPoint: "Anchor-4" 384.073 238.814 basechar 0
AnchorPoint: "Anchor-3" 706.215 643.501 basechar 0
AnchorPoint: "Anchor-2" 384.073 643.501 basechar 0
AnchorPoint: "Anchor-1" 384.073 -165.877 basechar 0
AnchorPoint: "Anchor-0" 385.224 -150.777 basechar 0
LayerCount: 2
Fore
SplineSet
123.07421875 253.450195312 m 5,0,-1
 123.07421875 334.923828125 l 5,1,-1
 654.833007812 334.923828125 l 5,2,-1
 654.833007812 253.450195312 l 5,3,-1
 123.07421875 253.450195312 l 5,0,-1
386.41015625 -0.3671875 m 4,4,5
 320.2578125 -0.3671875 320.2578125 -0.3671875 263.010742188 17.3896484375 c 132,-1,6
 205.764648438 35.146484375 205.764648438 35.146484375 163.147460938 71.703125 c 132,-1,7
 120.530273438 108.26171875 120.530273438 108.26171875 96.9951171875 163.099609375 c 132,-1,8
 73.4609375 217.9375 73.4609375 217.9375 73.4609375 292.098632812 c 4,9,10
 73.4609375 389.23828125 73.4609375 389.23828125 113.533203125 452.953125 c 132,-1,11
 153.606445312 516.66796875 153.606445312 516.66796875 223.57421875 548.526367188 c 132,-1,12
 293.54296875 580.384765625 293.54296875 580.384765625 382.592773438 580.384765625 c 260,13,14
 471.643554688 580.384765625 471.643554688 580.384765625 542.883789062 548.526367188 c 132,-1,15
 614.124023438 516.66796875 614.124023438 516.66796875 655.469726562 452.430664062 c 132,-1,16
 696.814453125 388.192382812 696.814453125 388.192382812 696.814453125 288.963867188 c 4,17,18
 696.814453125 215.846679688 696.814453125 215.846679688 673.279296875 161.532226562 c 132,-1,19
 649.745117188 107.217773438 649.745117188 107.217773438 608.400390625 71.181640625 c 132,-1,20
 567.0546875 35.146484375 567.0546875 35.146484375 510.444335938 17.3896484375 c 132,-1,21
 453.833007812 -0.3671875 453.833007812 -0.3671875 386.41015625 -0.3671875 c 4,4,5
385.137695312 75.8828125 m 260,22,23
 451.290039062 75.8828125 451.290039062 75.8828125 494.541992188 101.99609375 c 132,-1,24
 537.795898438 128.107421875 537.795898438 128.107421875 559.421875 176.678710938 c 132,-1,25
 581.047851562 225.248046875 581.047851562 225.248046875 581.047851562 291.052734375 c 4,26,27
 581.047851562 357.901367188 581.047851562 357.901367188 559.421875 405.427734375 c 132,-1,28
 537.795898438 452.953125 537.795898438 452.953125 493.90625 478.543945312 c 132,-1,29
 450.017578125 504.133789062 450.017578125 504.133789062 383.865234375 504.133789062 c 4,30,31
 284.637695312 504.133789062 284.637695312 504.133789062 235.66015625 447.208984375 c 132,-1,32
 186.682617188 390.283203125 186.682617188 390.283203125 186.682617188 291.052734375 c 4,33,34
 186.682617188 225.248046875 186.682617188 225.248046875 208.944335938 176.678710938 c 132,-1,35
 231.20703125 128.107421875 231.20703125 128.107421875 275.096679688 101.99609375 c 132,-1,36
 318.985351562 75.8828125 318.985351562 75.8828125 385.137695312 75.8828125 c 260,22,23
EndSplineSet
Substitution2: "'c2sc' Capitals to Small Capitals lookup 34 subtable" o.sc
Substitution2: "Single Substitution lookup 32 subtable" ordmasculine
AlternateSubs2: "'aalt' Access All Alternates lookup 1 subtable" ordmasculine o.sc
EndChar

StartChar: P
Encoding: 80 80 51
Width: 771
GlyphClass: 2
Flags: W
AnchorPoint: "Anchor-3" 738.495 572 basechar 0
AnchorPoint: "Anchor-2" 378.695 572 basechar 0
AnchorPoint: "Anchor-1" 378.695 0 basechar 0
LayerCount: 2
Fore
SplineSet
165.384765625 0 m 1,0,-1
 165.384765625 572 l 1,1,-1
 377.41015625 572 l 2,2,3
 514.905273438 572 514.905273438 572 583.009765625 528 c 128,-1,4
 651.115234375 484 651.115234375 484 651.115234375 400 c 0,5,6
 651.115234375 344 651.115234375 344 618.990234375 302.5 c 128,-1,7
 586.865234375 261 586.865234375 261 523.900390625 239 c 128,-1,8
 460.934570312 217 460.934570312 217 368.415039062 217 c 2,9,-1
 277.1796875 217 l 1,10,-1
 277.1796875 0 l 1,11,-1
 165.384765625 0 l 1,0,-1
356.849609375 288 m 2,12,13
 440.375 288 440.375 288 488.5625 311 c 128,-1,14
 536.75 334 536.75 334 536.75 395 c 0,15,16
 536.75 448 536.75 448 496.915039062 474.5 c 128,-1,17
 457.080078125 501 457.080078125 501 373.5546875 501 c 2,18,-1
 277.1796875 501 l 1,19,-1
 277.1796875 288 l 1,20,-1
 356.849609375 288 l 2,12,13
EndSplineSet
Substitution2: "'c2sc' Capitals to Small Capitals lookup 34 subtable" p.sc
Substitution2: "'aalt' Access All Alternates lookup 0 subtable" p.sc
EndChar

StartChar: Q
Encoding: 81 81 52
Width: 771
GlyphClass: 2
Flags: W
AnchorPoint: "Anchor-4" 385.25 286 basechar 0
AnchorPoint: "Anchor-3" 745.05 572 basechar 0
AnchorPoint: "Anchor-2" 385.25 572 basechar 0
AnchorPoint: "Anchor-1" 385.25 -136 basechar 0
AnchorPoint: "Anchor-0" 386.535 10 basechar 0
LayerCount: 2
Fore
SplineSet
565.150390625 -136 m 1,0,-1
 421.23046875 -3 l 1,1,-1
 534.309570312 17 l 1,2,-1
 716.780273438 -136 l 1,3,-1
 565.150390625 -136 l 1,0,-1
386.53515625 -8 m 0,4,5
 270.884765625 -8 270.884765625 -8 193.78515625 29 c 128,-1,6
 116.684570312 66 116.684570312 66 78.77734375 133 c 128,-1,7
 40.8701171875 200 40.8701171875 200 40.8701171875 288 c 0,8,9
 40.8701171875 375 40.8701171875 375 79.419921875 441 c 128,-1,10
 117.969726562 507 117.969726562 507 194.427734375 544 c 128,-1,11
 270.884765625 581 270.884765625 581 386.53515625 581 c 0,12,13
 503.469726562 581 503.469726562 581 579.28515625 544 c 128,-1,14
 655.099609375 507 655.099609375 507 692.365234375 440.5 c 128,-1,15
 729.629882812 374 729.629882812 374 729.629882812 287 c 0,16,17
 729.629882812 199 729.629882812 199 692.365234375 132.5 c 128,-1,18
 655.099609375 66 655.099609375 66 579.28515625 29 c 128,-1,19
 503.469726562 -8 503.469726562 -8 386.53515625 -8 c 0,4,5
385.25 67 m 0,20,21
 464.919921875 67 464.919921875 67 514.392578125 94 c 128,-1,22
 563.865234375 121 563.865234375 121 587.637695312 170.5 c 128,-1,23
 611.41015625 220 611.41015625 220 611.41015625 287 c 0,24,25
 611.41015625 391 611.41015625 391 554.870117188 448.5 c 128,-1,26
 498.330078125 506 498.330078125 506 385.25 506 c 0,27,28
 308.150390625 506 308.150390625 506 258.03515625 479 c 128,-1,29
 207.919921875 452 207.919921875 452 183.504882812 403 c 128,-1,30
 159.08984375 354 159.08984375 354 159.08984375 287 c 0,31,32
 159.08984375 221 159.08984375 221 182.862304688 171.5 c 128,-1,33
 206.634765625 122 206.634765625 122 256.75 94.5 c 128,-1,34
 306.865234375 67 306.865234375 67 385.25 67 c 0,20,21
EndSplineSet
Substitution2: "'c2sc' Capitals to Small Capitals lookup 34 subtable" q.sc
Substitution2: "'aalt' Access All Alternates lookup 0 subtable" q.sc
EndChar

StartChar: R
Encoding: 82 82 53
Width: 771
GlyphClass: 2
Flags: W
AnchorPoint: "Anchor-3" 737.355 572 basechar 0
AnchorPoint: "Anchor-2" 364.705 572 basechar 0
AnchorPoint: "Anchor-1" 410.965 0 basechar 0
LayerCount: 2
Fore
SplineSet
138.544921875 0 m 1,0,-1
 138.544921875 572 l 1,1,-1
 342.860351562 572 l 2,2,3
 486.780273438 572 486.780273438 572 556.8125 530.5 c 128,-1,4
 626.844726562 489 626.844726562 489 626.844726562 409 c 0,5,6
 626.844726562 354 626.844726562 354 592.150390625 314 c 128,-1,7
 557.455078125 274 557.455078125 274 481.639648438 254 c 1,8,-1
 685.955078125 0 l 1,9,-1
 558.740234375 0 l 1,10,-1
 382.6953125 232 l 1,11,-1
 250.33984375 232 l 1,12,-1
 250.33984375 0 l 1,13,-1
 138.544921875 0 l 1,0,-1
351.85546875 302 m 2,14,15
 427.669921875 302 427.669921875 302 470.075195312 326 c 128,-1,16
 512.48046875 350 512.48046875 350 512.48046875 402 c 0,17,18
 512.48046875 457 512.48046875 457 468.790039062 479.5 c 128,-1,19
 425.099609375 502 425.099609375 502 341.575195312 502 c 2,20,-1
 250.33984375 502 l 1,21,-1
 250.33984375 302 l 1,22,-1
 351.85546875 302 l 2,14,15
EndSplineSet
Substitution2: "'c2sc' Capitals to Small Capitals lookup 34 subtable" r.sc
Substitution2: "'aalt' Access All Alternates lookup 0 subtable" r.sc
EndChar

StartChar: S
Encoding: 83 83 54
Width: 771
GlyphClass: 2
Flags: W
AnchorPoint: "Anchor-3" 745.192 572 basechar 0
AnchorPoint: "Anchor-2" 395.673 572 basechar 0
AnchorPoint: "Anchor-1" 398.242 0 basechar 0
LayerCount: 2
Fore
SplineSet
345.557617188 -8 m 0,0,1
 294.157226562 -8 294.157226562 -8 238.90234375 -1 c 128,-1,2
 183.647460938 6 183.647460938 6 142.52734375 20 c 1,3,-1
 142.52734375 100 l 1,4,5
 188.787109375 83 188.787109375 83 246.612304688 73.5 c 128,-1,6
 304.4375 64 304.4375 64 353.267578125 64 c 0,7,8
 429.08203125 64 429.08203125 64 470.844726562 86.5 c 128,-1,9
 512.607421875 109 512.607421875 109 512.607421875 151 c 0,10,11
 512.607421875 180 512.607421875 180 492.690429688 198 c 128,-1,12
 472.772460938 216 472.772460938 216 435.5078125 230 c 128,-1,13
 398.2421875 244 398.2421875 244 342.987304688 260 c 0,14,15
 294.157226562 275 294.157226562 275 249.825195312 293.5 c 128,-1,16
 205.4921875 312 205.4921875 312 177.865234375 342 c 128,-1,17
 150.237304688 372 150.237304688 372 150.237304688 421 c 0,18,19
 150.237304688 474 150.237304688 474 183.647460938 509.5 c 128,-1,20
 217.057617188 545 217.057617188 545 274.8828125 562.5 c 128,-1,21
 332.70703125 580 332.70703125 580 404.66796875 580 c 0,22,23
 462.4921875 580 462.4921875 580 516.462890625 570 c 128,-1,24
 570.432617188 560 570.432617188 560 615.407226562 545 c 1,25,-1
 579.427734375 476 l 1,26,27
 533.16796875 492 533.16796875 492 487.549804688 500.5 c 128,-1,28
 441.932617188 509 441.932617188 509 400.8125 509 c 0,29,30
 339.1328125 509 339.1328125 509 300.58203125 488.5 c 128,-1,31
 262.032226562 468 262.032226562 468 262.032226562 427 c 0,32,33
 262.032226562 398 262.032226562 398 283.235351562 380 c 128,-1,34
 304.4375 362 304.4375 362 342.344726562 349.5 c 128,-1,35
 380.252929688 337 380.252929688 337 429.08203125 321 c 0,36,37
 484.337890625 304 484.337890625 304 529.3125 285 c 128,-1,38
 574.287109375 266 574.287109375 266 600.629882812 237 c 128,-1,39
 626.97265625 208 626.97265625 208 626.97265625 159 c 0,40,41
 626.97265625 109 626.97265625 109 596.1328125 71.5 c 128,-1,42
 565.29296875 34 565.29296875 34 502.969726562 13 c 128,-1,43
 440.647460938 -8 440.647460938 -8 345.557617188 -8 c 0,0,1
EndSplineSet
Substitution2: "'c2sc' Capitals to Small Capitals lookup 34 subtable" s.sc
Substitution2: "'aalt' Access All Alternates lookup 0 subtable" s.sc
EndChar

StartChar: T
Encoding: 84 84 55
Width: 771
GlyphClass: 2
Flags: W
AnchorPoint: "Anchor-4" 385.393 286 basechar 0
AnchorPoint: "Anchor-3" 745.192 572 basechar 0
AnchorPoint: "Anchor-2" 385.393 572 basechar 0
AnchorPoint: "Anchor-1" 385.393 0 basechar 0
LayerCount: 2
Fore
SplineSet
328.852539062 0 m 1,0,-1
 328.852539062 497 l 1,1,-1
 110.40234375 497 l 1,2,-1
 110.40234375 572 l 1,3,-1
 659.09765625 572 l 1,4,-1
 659.09765625 497 l 1,5,-1
 440.647460938 497 l 1,6,-1
 440.647460938 0 l 1,7,-1
 328.852539062 0 l 1,0,-1
EndSplineSet
Substitution2: "'c2sc' Capitals to Small Capitals lookup 34 subtable" t.sc
Substitution2: "'aalt' Access All Alternates lookup 0 subtable" t.sc
EndChar

StartChar: U
Encoding: 85 85 56
Width: 771
GlyphClass: 2
Flags: W
AnchorPoint: "Anchor-3" 751.475 572 basechar 0
AnchorPoint: "Anchor-2" 385.25 572 basechar 0
AnchorPoint: "Anchor-1" 385.25 0 basechar 0
LayerCount: 2
Fore
SplineSet
381.39453125 -8 m 0,0,1
 245.184570312 -8 245.184570312 -8 170.655273438 49.5 c 128,-1,2
 96.125 107 96.125 107 96.125 211 c 2,3,-1
 96.125 572 l 1,4,-1
 209.205078125 572 l 1,5,-1
 209.205078125 215 l 2,6,7
 209.205078125 142 209.205078125 142 255.46484375 103.5 c 128,-1,8
 301.724609375 65 301.724609375 65 387.8203125 65 c 0,9,10
 472.629882812 65 472.629882812 65 516.962890625 103.5 c 128,-1,11
 561.294921875 142 561.294921875 142 561.294921875 213 c 2,12,-1
 561.294921875 572 l 1,13,-1
 674.375 572 l 1,14,-1
 674.375 212 l 2,15,16
 674.375 143 674.375 143 640.322265625 94 c 128,-1,17
 606.26953125 45 606.26953125 45 540.735351562 18.5 c 128,-1,18
 475.200195312 -8 475.200195312 -8 381.39453125 -8 c 0,0,1
EndSplineSet
Substitution2: "'c2sc' Capitals to Small Capitals lookup 34 subtable" u.sc
Substitution2: "'aalt' Access All Alternates lookup 0 subtable" u.sc
EndChar

StartChar: V
Encoding: 86 86 57
Width: 771
GlyphClass: 2
Flags: W
AnchorPoint: "Anchor-3" 745.05 572 basechar 0
AnchorPoint: "Anchor-2" 385.25 572 basechar 0
AnchorPoint: "Anchor-1" 385.25 0 basechar 0
LayerCount: 2
Fore
SplineSet
327.424804688 0 m 1,0,-1
 31.875 572 l 1,1,-1
 152.665039062 572 l 1,2,-1
 331.280273438 200 l 2,3,4
 342.844726562 177 342.844726562 177 352.482421875 154 c 128,-1,5
 362.120117188 131 362.120117188 131 371.115234375 110 c 128,-1,6
 380.110351562 89 380.110351562 89 386.53515625 70 c 1,7,-1
 390.389648438 70 l 1,8,9
 396.815429688 89 396.815429688 89 405.16796875 110.5 c 128,-1,10
 413.51953125 132 413.51953125 132 423.157226562 155.5 c 128,-1,11
 432.794921875 179 432.794921875 179 444.360351562 203 c 2,12,-1
 616.549804688 572 l 1,13,-1
 738.625 572 l 1,14,-1
 448.21484375 0 l 1,15,-1
 327.424804688 0 l 1,0,-1
EndSplineSet
Substitution2: "'c2sc' Capitals to Small Capitals lookup 34 subtable" v.sc
Substitution2: "'aalt' Access All Alternates lookup 0 subtable" v.sc
EndChar

StartChar: W
Encoding: 87 87 58
Width: 771
GlyphClass: 2
Flags: W
AnchorPoint: "Anchor-2" 385.25 536 basechar 0
AnchorPoint: "Anchor-1" 385.25 0 basechar 0
LayerCount: 2
Fore
SplineSet
252.89453125 -10 m 0,0,1
 166.799804688 -10 166.799804688 -10 118.612304688 60 c 128,-1,2
 70.4248046875 130 70.4248046875 130 70.4248046875 263 c 0,3,4
 70.4248046875 310 70.4248046875 310 76.849609375 354.5 c 128,-1,5
 83.275390625 399 83.275390625 399 96.125 444.5 c 128,-1,6
 108.974609375 490 108.974609375 490 129.53515625 537 c 1,7,-1
 238.759765625 537 l 1,8,9
 215.629882812 488 215.629882812 488 202.780273438 442.5 c 128,-1,10
 189.9296875 397 189.9296875 397 184.790039062 353.5 c 128,-1,11
 179.650390625 310 179.650390625 310 179.650390625 266 c 0,12,13
 179.650390625 161 179.650390625 161 201.495117188 114.5 c 128,-1,14
 223.33984375 68 223.33984375 68 264.459960938 68 c 0,15,16
 301.724609375 68 301.724609375 68 318.4296875 103.5 c 128,-1,17
 335.134765625 139 335.134765625 139 335.134765625 215 c 2,18,-1
 335.134765625 348 l 1,19,-1
 435.365234375 348 l 1,20,-1
 435.365234375 215 l 2,21,22
 435.365234375 140 435.365234375 140 452.0703125 104 c 128,-1,23
 468.775390625 68 468.775390625 68 504.754882812 68 c 0,24,25
 547.16015625 68 547.16015625 68 569.647460938 116 c 128,-1,26
 592.134765625 164 592.134765625 164 592.134765625 262 c 0,27,28
 592.134765625 308 592.134765625 308 586.352539062 355 c 128,-1,29
 580.5703125 402 580.5703125 402 567.719726562 448 c 128,-1,30
 554.870117188 494 554.870117188 494 533.025390625 537 c 1,31,-1
 640.96484375 537 l 1,32,33
 670.51953125 468 670.51953125 468 685.297851562 400.5 c 128,-1,34
 700.075195312 333 700.075195312 333 700.075195312 264 c 0,35,36
 700.075195312 197 700.075195312 197 687.224609375 146 c 128,-1,37
 674.375 95 674.375 95 649.959960938 60 c 128,-1,38
 625.544921875 25 625.544921875 25 591.4921875 7.5 c 128,-1,39
 557.440429688 -10 557.440429688 -10 515.03515625 -10 c 0,40,41
 466.205078125 -10 466.205078125 -10 433.4375 14 c 128,-1,42
 400.669921875 38 400.669921875 38 386.53515625 81 c 1,43,-1
 383.96484375 81 l 1,44,45
 371.115234375 38 371.115234375 38 338.34765625 14 c 128,-1,46
 305.580078125 -10 305.580078125 -10 252.89453125 -10 c 0,0,1
EndSplineSet
Substitution2: "'c2sc' Capitals to Small Capitals lookup 34 subtable" w.sc
Substitution2: "'aalt' Access All Alternates lookup 0 subtable" w.sc
EndChar

StartChar: X
Encoding: 88 88 59
Width: 771
GlyphClass: 2
Flags: W
AnchorPoint: "Anchor-3" 745.192 572 basechar 0
AnchorPoint: "Anchor-2" 385.393 572 basechar 0
AnchorPoint: "Anchor-1" 385.393 0 basechar 0
LayerCount: 2
Fore
SplineSet
66.712890625 0 m 1,0,-1
 314.717773438 295 l 1,1,-1
 87.2724609375 572 l 1,2,-1
 210.6328125 572 l 1,3,-1
 385.392578125 354 l 1,4,-1
 560.15234375 572 l 1,5,-1
 684.797851562 572 l 1,6,-1
 452.212890625 292 l 1,7,-1
 702.787109375 0 l 1,8,-1
 574.287109375 0 l 1,9,-1
 384.107421875 231 l 1,10,-1
 192.642578125 0 l 1,11,-1
 66.712890625 0 l 1,0,-1
EndSplineSet
Substitution2: "'c2sc' Capitals to Small Capitals lookup 34 subtable" x.sc
Substitution2: "'aalt' Access All Alternates lookup 0 subtable" x.sc
EndChar

StartChar: Y
Encoding: 89 89 60
Width: 771
GlyphClass: 2
Flags: W
AnchorPoint: "Anchor-3" 745.192 572 basechar 0
AnchorPoint: "Anchor-2" 385.393 572 basechar 0
AnchorPoint: "Anchor-1" 385.393 0 basechar 0
LayerCount: 2
Fore
SplineSet
327.567382812 0 m 1,0,-1
 327.567382812 218 l 1,1,-1
 80.84765625 572 l 1,2,-1
 204.20703125 572 l 1,3,-1
 385.392578125 299 l 1,4,-1
 567.862304688 572 l 1,5,-1
 688.65234375 572 l 1,6,-1
 441.932617188 222 l 1,7,-1
 441.932617188 0 l 1,8,-1
 327.567382812 0 l 1,0,-1
EndSplineSet
Substitution2: "'c2sc' Capitals to Small Capitals lookup 34 subtable" y.sc
Substitution2: "'aalt' Access All Alternates lookup 0 subtable" y.sc
EndChar

StartChar: Z
Encoding: 90 90 61
Width: 771
GlyphClass: 2
Flags: W
AnchorPoint: "Anchor-3" 745.05 572 basechar 0
AnchorPoint: "Anchor-2" 385.25 572 basechar 0
AnchorPoint: "Anchor-1" 385.25 0 basechar 0
LayerCount: 2
Fore
SplineSet
114.115234375 0 m 1,0,-1
 114.115234375 56 l 1,1,-1
 503.469726562 499 l 1,2,-1
 128.25 499 l 1,3,-1
 128.25 572 l 1,4,-1
 646.10546875 572 l 1,5,-1
 646.10546875 515 l 1,6,-1
 256.75 73 l 1,7,-1
 656.384765625 73 l 1,8,-1
 656.384765625 0 l 1,9,-1
 114.115234375 0 l 1,0,-1
EndSplineSet
Substitution2: "'c2sc' Capitals to Small Capitals lookup 34 subtable" z.sc
Substitution2: "'aalt' Access All Alternates lookup 0 subtable" z.sc
EndChar

StartChar: bracketleft
Encoding: 91 91 62
Width: 771
Flags: W
LayerCount: 2
Fore
SplineSet
293.1875 -158 m 1,0,-1
 293.1875 714 l 1,1,-1
 582.3125 714 l 1,2,-1
 582.3125 642 l 1,3,-1
 403.697265625 642 l 1,4,-1
 403.697265625 -86 l 1,5,-1
 582.3125 -86 l 1,6,-1
 582.3125 -158 l 1,7,-1
 293.1875 -158 l 1,0,-1
EndSplineSet
Substitution2: "'smcp' Lowercase to Small Capitals lookup 35 subtable" bracketleft.sc
Substitution2: "'c2sc' Capitals to Small Capitals lookup 34 subtable" bracketleft.sc
Substitution2: "'aalt' Access All Alternates lookup 0 subtable" bracketleft.sc
EndChar

StartChar: backslash
Encoding: 92 92 63
Width: 771
Flags: W
LayerCount: 2
Fore
SplineSet
616.549804688 0 m 1,0,-1
 506.040039062 0 l 1,1,-1
 153.950195312 714 l 1,2,-1
 264.459960938 714 l 1,3,-1
 616.549804688 0 l 1,0,-1
EndSplineSet
EndChar

StartChar: bracketright
Encoding: 93 93 64
Width: 771
Flags: W
LayerCount: 2
Fore
SplineSet
477.3125 714 m 1,0,-1
 477.3125 -158 l 1,1,-1
 188.1875 -158 l 1,2,-1
 188.1875 -86 l 1,3,-1
 366.802734375 -86 l 1,4,-1
 366.802734375 642 l 1,5,-1
 188.1875 642 l 1,6,-1
 188.1875 714 l 1,7,-1
 477.3125 714 l 1,0,-1
EndSplineSet
Substitution2: "'smcp' Lowercase to Small Capitals lookup 35 subtable" bracketright.sc
Substitution2: "'c2sc' Capitals to Small Capitals lookup 34 subtable" bracketright.sc
Substitution2: "'aalt' Access All Alternates lookup 0 subtable" bracketright.sc
EndChar

StartChar: asciicircum
Encoding: 94 94 65
Width: 771
Flags: W
LayerCount: 2
Fore
SplineSet
64 267 m 1,0,-1
 338.990234375 719 l 1,1,-1
 403.240234375 719 l 1,2,-1
 706.5 267 l 1,3,-1
 606.26953125 267 l 1,4,-1
 372.400390625 626 l 1,5,-1
 164.23046875 267 l 1,6,-1
 64 267 l 1,0,-1
EndSplineSet
EndChar

StartChar: underscore
Encoding: 95 95 66
Width: 771
Flags: W
LayerCount: 2
Fore
SplineSet
-0.25 -154 m 1,0,-1
 -0.25 -74 l 1,1,-1
 770.75 -74 l 1,2,-1
 770.75 -154 l 1,3,-1
 -0.25 -154 l 1,0,-1
EndSplineSet
EndChar

StartChar: grave
Encoding: 96 96 67
Width: 771
Flags: W
LayerCount: 2
Fore
SplineSet
428.077148438 606 m 1,0,1
 406.232421875 620 406.232421875 620 379.247070312 639.5 c 128,-1,2
 352.262695312 659 352.262695312 659 325.919921875 680.5 c 128,-1,3
 299.577148438 702 299.577148438 702 278.375 722 c 128,-1,4
 257.172851562 742 257.172851562 742 245.607421875 756 c 1,5,-1
 245.607421875 766 l 1,6,-1
 380.532226562 766 l 1,7,8
 394.66796875 744 394.66796875 744 415.870117188 716.5 c 128,-1,9
 437.072265625 689 437.072265625 689 460.844726562 663 c 128,-1,10
 484.6171875 637 484.6171875 637 503.892578125 618 c 1,11,-1
 503.892578125 606 l 1,12,-1
 428.077148438 606 l 1,0,1
EndSplineSet
EndChar

StartChar: a
Encoding: 97 97 68
Width: 771
GlyphClass: 2
Flags: W
AnchorPoint: "Anchor-3" 747.9 536 basechar 0
AnchorPoint: "Anchor-2" 394.525 536 basechar 0
AnchorPoint: "Anchor-1" 388.1 0 basechar 0
AnchorPoint: "Anchor-0" 696.5 10 basechar 0
LayerCount: 2
Fore
SplineSet
318.709960938 -10 m 0,0,1
 217.1953125 -10 217.1953125 -10 154.872070312 29 c 128,-1,2
 92.5498046875 68 92.5498046875 68 92.5498046875 147 c 0,3,4
 92.5498046875 205 92.5498046875 205 128.530273438 243.5 c 128,-1,5
 164.509765625 282 164.509765625 282 234.54296875 301.5 c 128,-1,6
 304.575195312 321 304.575195312 321 404.8046875 323 c 2,7,-1
 552.580078125 326 l 1,8,-1
 552.580078125 348 l 2,9,10
 552.580078125 420 552.580078125 420 506.3203125 446.5 c 128,-1,11
 460.059570312 473 460.059570312 473 381.674804688 473 c 0,12,13
 326.419921875 473 326.419921875 473 276.3046875 462 c 128,-1,14
 226.190429688 451 226.190429688 451 181.21484375 431 c 1,15,-1
 141.379882812 499 l 1,16,17
 190.209960938 518 190.209960938 518 249.962890625 532 c 128,-1,18
 309.71484375 546 309.71484375 546 388.099609375 546 c 0,19,20
 517.884765625 546 517.884765625 546 587.91796875 500.5 c 128,-1,21
 657.950195312 455 657.950195312 455 657.950195312 359 c 2,22,-1
 657.950195312 0 l 1,23,-1
 565.4296875 0 l 1,24,-1
 552.580078125 74 l 1,25,-1
 547.440429688 74 l 1,26,27
 519.169921875 46 519.169921875 46 485.1171875 27.5 c 128,-1,28
 451.065429688 9 451.065429688 9 409.9453125 -0.5 c 128,-1,29
 368.825195312 -10 368.825195312 -10 318.709960938 -10 c 0,0,1
337.985351562 63 m 0,30,31
 395.809570312 63 395.809570312 63 444.639648438 79.5 c 128,-1,32
 493.469726562 96 493.469726562 96 523.025390625 129.5 c 128,-1,33
 552.580078125 163 552.580078125 163 552.580078125 214 c 2,34,-1
 552.580078125 262 l 1,35,-1
 429.219726562 259 l 2,36,37
 346.98046875 257 346.98046875 257 296.865234375 243.5 c 128,-1,38
 246.75 230 246.75 230 224.262695312 206.5 c 128,-1,39
 201.775390625 183 201.775390625 183 201.775390625 150 c 0,40,41
 201.775390625 104 201.775390625 104 239.040039062 83.5 c 128,-1,42
 276.3046875 63 276.3046875 63 337.985351562 63 c 0,30,31
EndSplineSet
Substitution2: "'smcp' Lowercase to Small Capitals lookup 35 subtable" a.sc
Substitution2: "Single Substitution lookup 32 subtable" ordfeminine
AlternateSubs2: "'aalt' Access All Alternates lookup 1 subtable" ordfeminine a.sc
EndChar

StartChar: b
Encoding: 98 98 69
Width: 771
GlyphClass: 2
Flags: W
AnchorPoint: "Anchor-3" 741.487 760 basechar 0
AnchorPoint: "Anchor-2" 381.688 760 basechar 0
AnchorPoint: "Anchor-1" 381.688 0 basechar 0
LayerCount: 2
Fore
SplineSet
418.952148438 -10 m 0,0,1
 343.137695312 -10 343.137695312 -10 291.094726562 13.5 c 128,-1,2
 239.052734375 37 239.052734375 37 209.497070312 68 c 1,3,-1
 201.787109375 68 l 1,4,-1
 191.5078125 0 l 1,5,-1
 98.9873046875 0 l 1,6,-1
 98.9873046875 760 l 1,7,-1
 210.782226562 760 l 1,8,-1
 210.782226562 576 l 2,9,10
 210.782226562 548 210.782226562 548 210.139648438 521 c 128,-1,11
 209.497070312 494 209.497070312 494 205.642578125 466 c 1,12,-1
 210.782226562 466 l 1,13,14
 237.767578125 498 237.767578125 498 289.16796875 522 c 128,-1,15
 340.567382812 546 340.567382812 546 418.952148438 546 c 0,16,17
 480.6328125 546 480.6328125 546 532.032226562 528.5 c 128,-1,18
 583.432617188 511 583.432617188 511 620.0546875 476 c 128,-1,19
 656.677734375 441 656.677734375 441 676.594726562 389 c 128,-1,20
 696.512695312 337 696.512695312 337 696.512695312 269 c 0,21,22
 696.512695312 200 696.512695312 200 676.594726562 148 c 128,-1,23
 656.677734375 96 656.677734375 96 619.412109375 60.5 c 128,-1,24
 582.147460938 25 582.147460938 25 531.389648438 7.5 c 128,-1,25
 480.6328125 -10 480.6328125 -10 418.952148438 -10 c 0,0,1
397.107421875 63 m 0,26,27
 490.912109375 63 490.912109375 63 534.602539062 116 c 128,-1,28
 578.29296875 169 578.29296875 169 578.29296875 269 c 0,29,30
 578.29296875 367 578.29296875 367 534.602539062 420 c 128,-1,31
 490.912109375 473 490.912109375 473 395.822265625 473 c 0,32,33
 307.157226562 473 307.157226562 473 258.969726562 420.5 c 128,-1,34
 210.782226562 368 210.782226562 368 210.782226562 271 c 0,35,36
 210.782226562 170 210.782226562 170 256.400390625 116.5 c 128,-1,37
 302.017578125 63 302.017578125 63 397.107421875 63 c 0,26,27
EndSplineSet
Substitution2: "'smcp' Lowercase to Small Capitals lookup 35 subtable" b.sc
Substitution2: "'aalt' Access All Alternates lookup 0 subtable" b.sc
EndChar

StartChar: c
Encoding: 99 99 70
Width: 771
GlyphClass: 2
Flags: W
AnchorPoint: "Anchor-3" 746.475 536 basechar 0
AnchorPoint: "Anchor-2" 422.655 536 basechar 0
AnchorPoint: "Anchor-1" 427.795 0 basechar 0
LayerCount: 2
Fore
SplineSet
435.504882812 -10 m 0,0,1
 335.275390625 -10 335.275390625 -10 262.030273438 18.5 c 128,-1,2
 188.78515625 47 188.78515625 47 149.592773438 107.5 c 128,-1,3
 110.400390625 168 110.400390625 168 110.400390625 264 c 0,4,5
 110.400390625 367 110.400390625 367 153.447265625 429 c 128,-1,6
 196.495117188 491 196.495117188 491 272.952148438 518.5 c 128,-1,7
 349.41015625 546 349.41015625 546 447.0703125 546 c 0,8,9
 507.46484375 546 507.46484375 546 556.9375 536.5 c 128,-1,10
 606.41015625 527 606.41015625 527 650.099609375 509 c 1,11,-1
 615.405273438 436 l 1,12,13
 574.28515625 453 574.28515625 453 535.735351562 460.5 c 128,-1,14
 497.184570312 468 497.184570312 468 452.209960938 468 c 0,15,16
 373.825195312 468 373.825195312 468 324.352539062 445.5 c 128,-1,17
 274.879882812 423 274.879882812 423 251.75 378.5 c 128,-1,18
 228.620117188 334 228.620117188 334 228.620117188 266 c 0,19,20
 228.620117188 195 228.620117188 195 253.03515625 151 c 128,-1,21
 277.450195312 107 277.450195312 107 326.922851562 87 c 128,-1,22
 376.39453125 67 376.39453125 67 448.35546875 67 c 0,23,24
 504.89453125 67 504.89453125 67 555.009765625 76.5 c 128,-1,25
 605.125 86 605.125 86 642.389648438 99 c 1,26,-1
 642.389648438 20 l 1,27,28
 603.83984375 6 603.83984375 6 547.299804688 -2 c 128,-1,29
 490.759765625 -10 490.759765625 -10 435.504882812 -10 c 0,0,1
EndSplineSet
Substitution2: "'smcp' Lowercase to Small Capitals lookup 35 subtable" c.sc
Substitution2: "'aalt' Access All Alternates lookup 0 subtable" c.sc
EndChar

StartChar: d
Encoding: 100 100 71
Width: 771
GlyphClass: 2
Flags: W
AnchorPoint: "Anchor-4" 388.812 268 basechar 0
AnchorPoint: "Anchor-3" 748.612 760 basechar 0
AnchorPoint: "Anchor-2" 388.812 760 basechar 0
AnchorPoint: "Anchor-1" 388.812 0 basechar 0
LayerCount: 2
Fore
SplineSet
355.40234375 -10 m 0,0,1
 292.4375 -10 292.4375 -10 240.39453125 7 c 128,-1,2
 188.352539062 24 188.352539062 24 151.087890625 59 c 128,-1,3
 113.822265625 94 113.822265625 94 93.9052734375 147 c 128,-1,4
 73.9873046875 200 73.9873046875 200 73.9873046875 271 c 0,5,6
 73.9873046875 360 73.9873046875 360 106.754882812 421.5 c 128,-1,7
 139.522460938 483 139.522460938 483 205.057617188 514.5 c 128,-1,8
 270.592773438 546 270.592773438 546 368.252929688 546 c 0,9,10
 415.797851562 546 415.797851562 546 452.419921875 536 c 128,-1,11
 489.04296875 526 489.04296875 526 515.384765625 508.5 c 128,-1,12
 541.727539062 491 541.727539062 491 557.147460938 468 c 1,13,-1
 564.857421875 468 l 1,14,15
 563.572265625 478 563.572265625 478 561.64453125 491.5 c 128,-1,16
 559.717773438 505 559.717773438 505 558.432617188 519.5 c 128,-1,17
 557.147460938 534 557.147460938 534 557.147460938 547 c 2,18,-1
 557.147460938 760 l 1,19,-1
 671.512695312 760 l 1,20,-1
 671.512695312 0 l 1,21,-1
 576.422851562 0 l 1,22,-1
 563.572265625 72 l 1,23,-1
 558.432617188 72 l 1,24,25
 539.157226562 48 539.157226562 48 511.530273438 29.5 c 128,-1,26
 483.90234375 11 483.90234375 11 445.995117188 0.5 c 128,-1,27
 408.087890625 -10 408.087890625 -10 355.40234375 -10 c 0,0,1
377.247070312 63 m 0,28,29
 468.482421875 63 468.482421875 63 512.815429688 112.5 c 128,-1,30
 557.147460938 162 557.147460938 162 557.147460938 247 c 2,31,-1
 557.147460938 267 l 2,32,33
 557.147460938 326 557.147460938 326 540.442382812 372.5 c 128,-1,34
 523.737304688 419 523.737304688 419 485.1875 446 c 128,-1,35
 446.637695312 473 446.637695312 473 381.102539062 473 c 0,36,37
 291.15234375 473 291.15234375 473 241.6796875 421 c 128,-1,38
 192.20703125 369 192.20703125 369 192.20703125 262 c 0,39,40
 192.20703125 163 192.20703125 163 237.825195312 113 c 128,-1,41
 283.442382812 63 283.442382812 63 377.247070312 63 c 0,28,29
EndSplineSet
Substitution2: "'smcp' Lowercase to Small Capitals lookup 35 subtable" d.sc
Substitution2: "'aalt' Access All Alternates lookup 0 subtable" d.sc
EndChar

StartChar: e
Encoding: 101 101 72
Width: 771
GlyphClass: 2
Flags: W
AnchorPoint: "Anchor-3" 745.05 536 basechar 0
AnchorPoint: "Anchor-2" 390.39 536 basechar 0
AnchorPoint: "Anchor-1" 398.1 0 basechar 0
AnchorPoint: "Anchor-0" 392.96 10 basechar 0
LayerCount: 2
Fore
SplineSet
432.794921875 -10 m 0,0,1
 322.28515625 -10 322.28515625 -10 242.615234375 22 c 128,-1,2
 162.9453125 54 162.9453125 54 119.897460938 115.5 c 128,-1,3
 76.849609375 177 76.849609375 177 76.849609375 266 c 0,4,5
 76.849609375 354 76.849609375 354 117.969726562 416.5 c 128,-1,6
 159.08984375 479 159.08984375 479 232.334960938 512.5 c 128,-1,7
 305.580078125 546 305.580078125 546 403.240234375 546 c 0,8,9
 493.190429688 546 493.190429688 546 558.08203125 515 c 128,-1,10
 622.974609375 484 622.974609375 484 658.3125 427.5 c 128,-1,11
 693.650390625 371 693.650390625 371 693.650390625 292 c 2,12,-1
 693.650390625 251 l 1,13,-1
 193.78515625 251 l 1,14,15
 196.35546875 181 196.35546875 181 227.837890625 140 c 128,-1,16
 259.3203125 99 259.3203125 99 313.932617188 81.5 c 128,-1,17
 368.544921875 64 368.544921875 64 440.504882812 64 c 0,18,19
 497.044921875 64 497.044921875 64 552.299804688 76 c 128,-1,20
 607.5546875 88 607.5546875 88 662.809570312 108 c 1,21,-1
 662.809570312 28 l 1,22,23
 603.700195312 8 603.700195312 8 544.58984375 -1 c 128,-1,24
 485.48046875 -10 485.48046875 -10 432.794921875 -10 c 0,0,1
578 323 m 1,25,26
 575.4296875 370 575.4296875 370 554.870117188 403.5 c 128,-1,27
 534.309570312 437 534.309570312 437 496.40234375 455 c 128,-1,28
 458.495117188 473 458.495117188 473 403.240234375 473 c 0,29,30
 317.14453125 473 317.14453125 473 263.817382812 432.5 c 128,-1,31
 210.490234375 392 210.490234375 392 196.35546875 323 c 1,32,-1
 578 323 l 1,25,26
EndSplineSet
Substitution2: "'smcp' Lowercase to Small Capitals lookup 35 subtable" e.sc
Substitution2: "'aalt' Access All Alternates lookup 0 subtable" e.sc
EndChar

StartChar: f
Encoding: 102 102 73
Width: 771
GlyphClass: 2
Flags: W
AnchorPoint: "Anchor-3" 791.32 765 basechar 0
AnchorPoint: "Anchor-2" 516.33 765 basechar 0
AnchorPoint: "Anchor-1" 380.12 0 basechar 0
LayerCount: 2
Fore
SplineSet
304.3046875 0 m 1,0,-1
 304.3046875 461 l 1,1,-1
 79.4296875 461 l 1,2,-1
 79.4296875 523 l 1,3,-1
 304.3046875 536 l 1,4,-1
 304.3046875 597 l 2,5,6
 304.3046875 661 304.3046875 661 335.787109375 697.5 c 128,-1,7
 367.26953125 734 367.26953125 734 423.809570312 749.5 c 128,-1,8
 480.349609375 765 480.349609375 765 554.879882812 765 c 0,9,10
 611.419921875 765 611.419921875 765 653.825195312 759 c 128,-1,11
 696.23046875 753 696.23046875 753 727.0703125 745 c 1,12,-1
 701.370117188 676 l 1,13,14
 675.669921875 682 675.669921875 682 637.120117188 686.5 c 128,-1,15
 598.5703125 691 598.5703125 691 561.3046875 691 c 0,16,17
 494.485351562 691 494.485351562 691 457.219726562 669 c 128,-1,18
 419.955078125 647 419.955078125 647 419.955078125 585 c 2,19,-1
 419.955078125 536 l 1,20,-1
 679.525390625 536 l 1,21,-1
 679.525390625 461 l 1,22,-1
 419.955078125 461 l 1,23,-1
 419.955078125 0 l 1,24,-1
 304.3046875 0 l 1,0,-1
EndSplineSet
Substitution2: "'smcp' Lowercase to Small Capitals lookup 35 subtable" f.sc
Substitution2: "'aalt' Access All Alternates lookup 0 subtable" f.sc
EndChar

StartChar: g
Encoding: 103 103 74
Width: 771
GlyphClass: 2
Flags: W
AnchorPoint: "Anchor-3" 748.612 536 basechar 0
AnchorPoint: "Anchor-2" 388.812 536 basechar 0
AnchorPoint: "Anchor-1" 388.812 -245 basechar 0
LayerCount: 2
Fore
SplineSet
357.97265625 -245 m 0,0,1
 287.297851562 -245 287.297851562 -245 224.974609375 -234.5 c 128,-1,2
 162.65234375 -224 162.65234375 -224 109.967773438 -207 c 1,3,-1
 109.967773438 -127 l 1,4,5
 161.3671875 -150 161.3671875 -150 228.830078125 -161.5 c 128,-1,6
 296.29296875 -173 296.29296875 -173 354.1171875 -173 c 0,7,8
 471.052734375 -173 471.052734375 -173 517.3125 -130.5 c 128,-1,9
 563.572265625 -88 563.572265625 -88 563.572265625 -14 c 2,10,-1
 563.572265625 5 l 2,11,12
 563.572265625 17 563.572265625 17 564.21484375 28 c 128,-1,13
 564.857421875 39 564.857421875 39 567.427734375 62 c 1,14,-1
 562.287109375 62 l 1,15,16
 526.307617188 21 526.307617188 21 478.120117188 5.5 c 128,-1,17
 429.932617188 -10 429.932617188 -10 361.827148438 -10 c 0,18,19
 225.6171875 -10 225.6171875 -10 149.802734375 62.5 c 128,-1,20
 73.9873046875 135 73.9873046875 135 73.9873046875 265 c 0,21,22
 73.9873046875 396 73.9873046875 396 149.16015625 471 c 128,-1,23
 224.33203125 546 224.33203125 546 355.40234375 546 c 0,24,25
 424.79296875 546 424.79296875 546 472.337890625 528.5 c 128,-1,26
 519.8828125 511 519.8828125 511 557.147460938 470 c 1,27,-1
 563.572265625 470 l 1,28,-1
 578.9921875 536 l 1,29,-1
 671.512695312 536 l 1,30,-1
 671.512695312 -14 l 2,31,32
 671.512695312 -90 671.512695312 -90 638.102539062 -141.5 c 128,-1,33
 604.692382812 -193 604.692382812 -193 535.302734375 -219 c 128,-1,34
 465.912109375 -245 465.912109375 -245 357.97265625 -245 c 0,0,1
383.672851562 63 m 0,35,36
 426.077148438 63 426.077148438 63 460.129882812 73.5 c 128,-1,37
 494.182617188 84 494.182617188 84 517.955078125 106.5 c 128,-1,38
 541.727539062 129 541.727539062 129 554.577148438 163.5 c 128,-1,39
 567.427734375 198 567.427734375 198 567.427734375 246 c 2,40,-1
 567.427734375 267 l 2,41,42
 567.427734375 340 567.427734375 340 544.940429688 385.5 c 128,-1,43
 522.452148438 431 522.452148438 431 480.047851562 452 c 128,-1,44
 437.642578125 473 437.642578125 473 379.817382812 473 c 0,45,46
 282.157226562 473 282.157226562 473 237.182617188 419.5 c 128,-1,47
 192.20703125 366 192.20703125 366 192.20703125 268 c 0,48,49
 192.20703125 168 192.20703125 168 239.110351562 115.5 c 128,-1,50
 286.012695312 63 286.012695312 63 383.672851562 63 c 0,35,36
EndSplineSet
Substitution2: "'smcp' Lowercase to Small Capitals lookup 35 subtable" g.sc
Substitution2: "'aalt' Access All Alternates lookup 0 subtable" g.sc
EndChar

StartChar: h
Encoding: 104 104 75
Width: 771
GlyphClass: 2
Flags: W
AnchorPoint: "Anchor-4" 384.537 268 basechar 0
AnchorPoint: "Anchor-3" 744.338 760 basechar 0
AnchorPoint: "Anchor-2" 160.947 760 basechar 0
AnchorPoint: "Anchor-1" 384.537 0 basechar 0
LayerCount: 2
Fore
SplineSet
101.837890625 0 m 1,0,-1
 101.837890625 760 l 1,1,-1
 217.487304688 760 l 1,2,-1
 217.487304688 544 l 2,3,4
 217.487304688 525 217.487304688 525 215.559570312 496 c 128,-1,5
 213.6328125 467 213.6328125 467 212.34765625 450 c 1,6,-1
 218.772460938 450 l 1,7,8
 240.6171875 483 240.6171875 483 273.384765625 504 c 128,-1,9
 306.15234375 525 306.15234375 525 347.272460938 535.5 c 128,-1,10
 388.392578125 546 388.392578125 546 434.65234375 546 c 0,11,12
 541.307617188 546 541.307617188 546 607.485351562 499.5 c 128,-1,13
 673.662109375 453 673.662109375 453 673.662109375 350 c 2,14,-1
 673.662109375 0 l 1,15,-1
 558.012695312 0 l 1,16,-1
 558.012695312 332 l 2,17,18
 558.012695312 405 558.012695312 405 518.177734375 439 c 128,-1,19
 478.342773438 473 478.342773438 473 405.09765625 473 c 0,20,21
 348.557617188 473 348.557617188 473 306.15234375 450 c 128,-1,22
 263.747070312 427 263.747070312 427 240.6171875 383.5 c 128,-1,23
 217.487304688 340 217.487304688 340 217.487304688 278 c 2,24,-1
 217.487304688 0 l 1,25,-1
 101.837890625 0 l 1,0,-1
EndSplineSet
Substitution2: "'smcp' Lowercase to Small Capitals lookup 35 subtable" h.sc
Substitution2: "'subs' Subscript lookup 22 subtable" uni2095
AlternateSubs2: "'aalt' Access All Alternates lookup 1 subtable" h.sc uni2095
EndChar

StartChar: i
Encoding: 105 105 76
Width: 771
GlyphClass: 2
Flags: W
AnchorPoint: "Anchor-4" 408.1 283 basechar 0
AnchorPoint: "Anchor-3" 636.83 760 basechar 0
AnchorPoint: "Anchor-2" 391.395 760 basechar 0
AnchorPoint: "Anchor-1" 409.385 0 basechar 0
LayerCount: 2
Fore
SplineSet
99.7001953125 0 m 1,0,-1
 99.7001953125 60 l 1,1,-1
 345.134765625 75 l 1,2,-1
 345.134765625 461 l 1,3,-1
 120.259765625 474 l 1,4,-1
 120.259765625 536 l 1,5,-1
 460.78515625 536 l 1,6,-1
 460.78515625 75 l 1,7,-1
 690.799804688 60 l 1,8,-1
 690.799804688 0 l 1,9,-1
 99.7001953125 0 l 1,0,-1
391.39453125 633 m 256,10,11
 357.985351562 633 357.985351562 633 334.212890625 649 c 128,-1,12
 310.440429688 665 310.440429688 665 310.440429688 696 c 0,13,14
 310.440429688 729 310.440429688 729 334.212890625 744.5 c 128,-1,15
 357.985351562 760 357.985351562 760 391.39453125 760 c 256,16,17
 424.8046875 760 424.8046875 760 448.577148438 744.5 c 128,-1,18
 472.349609375 729 472.349609375 729 472.349609375 696 c 0,19,20
 472.349609375 665 472.349609375 665 448.577148438 649 c 128,-1,21
 424.8046875 633 424.8046875 633 391.39453125 633 c 256,10,11
EndSplineSet
Substitution2: "'smcp' Lowercase to Small Capitals lookup 35 subtable" i.sc
Substitution2: "Single Substitution lookup 5 subtable" dotlessi
Substitution2: "Single Substitution lookup 4 subtable" dotlessi
AlternateSubs2: "'aalt' Access All Alternates lookup 1 subtable" dotlessi i.sc
EndChar

StartChar: j
Encoding: 106 106 77
Width: 771
GlyphClass: 2
Flags: W
AnchorPoint: "Anchor-3" 687.188 760 basechar 0
AnchorPoint: "Anchor-2" 455.888 760 basechar 0
AnchorPoint: "Anchor-1" 310.683 -245 basechar 0
LayerCount: 2
Fore
SplineSet
265.70703125 -245 m 0,0,1
 225.872070312 -245 225.872070312 -245 177.684570312 -240 c 128,-1,2
 129.497070312 -235 129.497070312 -235 96.087890625 -228 c 1,3,-1
 96.087890625 -149 l 1,4,5
 119.217773438 -155 119.217773438 -155 145.559570312 -159.5 c 128,-1,6
 171.90234375 -164 171.90234375 -164 199.530273438 -167 c 128,-1,7
 227.157226562 -170 227.157226562 -170 252.857421875 -170 c 0,8,9
 310.682617188 -170 310.682617188 -170 346.01953125 -155.5 c 128,-1,10
 381.357421875 -141 381.357421875 -141 397.419921875 -111.5 c 128,-1,11
 413.482421875 -82 413.482421875 -82 413.482421875 -37 c 2,12,-1
 413.482421875 461 l 1,13,-1
 188.607421875 474 l 1,14,-1
 188.607421875 536 l 1,15,-1
 529.1328125 536 l 1,16,-1
 529.1328125 -52 l 2,17,18
 529.1328125 -145 529.1328125 -145 460.384765625 -195 c 128,-1,19
 391.637695312 -245 391.637695312 -245 265.70703125 -245 c 0,0,1
458.45703125 633 m 0,20,21
 425.047851562 633 425.047851562 633 401.91796875 649 c 128,-1,22
 378.787109375 665 378.787109375 665 378.787109375 697 c 256,23,24
 378.787109375 729 378.787109375 729 401.275390625 744.5 c 128,-1,25
 423.762695312 760 423.762695312 760 458.45703125 760 c 0,26,27
 491.8671875 760 491.8671875 760 515.639648438 744.5 c 128,-1,28
 539.412109375 729 539.412109375 729 539.412109375 697 c 0,29,30
 539.412109375 664 539.412109375 664 514.997070312 648.5 c 128,-1,31
 490.58203125 633 490.58203125 633 458.45703125 633 c 0,20,21
EndSplineSet
Substitution2: "'smcp' Lowercase to Small Capitals lookup 35 subtable" j.sc
Substitution2: "Single Substitution lookup 5 subtable" uni0237
Substitution2: "Single Substitution lookup 4 subtable" uni0237
AlternateSubs2: "'aalt' Access All Alternates lookup 1 subtable" uni0237 j.sc
EndChar

StartChar: k
Encoding: 107 107 78
Width: 771
GlyphClass: 2
Flags: W
AnchorPoint: "Anchor-3" 631.562 860 basechar 0
AnchorPoint: "Anchor-2" 425.963 760 basechar 0
AnchorPoint: "Anchor-1" 424.678 0 basechar 0
LayerCount: 2
Fore
SplineSet
123.987304688 0 m 1,0,-1
 123.987304688 760 l 1,1,-1
 239.637695312 760 l 1,2,-1
 239.637695312 394 l 2,3,4
 239.637695312 373 239.637695312 373 238.352539062 347 c 128,-1,5
 237.067382812 321 237.067382812 321 235.139648438 294 c 128,-1,6
 233.212890625 267 233.212890625 267 230.642578125 243 c 1,7,-1
 233.212890625 243 l 1,8,9
 257.627929688 268 257.627929688 268 280.115234375 288.5 c 128,-1,10
 302.602539062 309 302.602539062 309 327.017578125 331 c 2,11,-1
 564.7421875 536 l 1,12,-1
 703.522460938 536 l 1,13,-1
 429.817382812 305 l 1,14,-1
 721.512695312 0 l 1,15,-1
 587.872070312 0 l 1,16,-1
 352.717773438 252 l 1,17,-1
 239.637695312 167 l 1,18,-1
 239.637695312 0 l 1,19,-1
 123.987304688 0 l 1,0,-1
EndSplineSet
Substitution2: "'smcp' Lowercase to Small Capitals lookup 35 subtable" k.sc
Substitution2: "'subs' Subscript lookup 22 subtable" uni2096
AlternateSubs2: "'aalt' Access All Alternates lookup 1 subtable" k.sc uni2096
EndChar

StartChar: l
Encoding: 108 108 79
Width: 771
GlyphClass: 2
Flags: W
AnchorPoint: "Anchor-2" 363.02 536 basechar 0
AnchorPoint: "Anchor-1" 485.095 0 basechar 0
LayerCount: 2
Fore
SplineSet
500.514648438 -10 m 0,0,1
 443.974609375 -10 443.974609375 -10 399.642578125 4.5 c 128,-1,2
 355.309570312 19 355.309570312 19 330.252929688 55.5 c 128,-1,3
 305.1953125 92 305.1953125 92 305.1953125 157 c 2,4,-1
 305.1953125 536 l 1,5,-1
 416.990234375 536 l 1,6,-1
 416.990234375 158 l 2,7,8
 416.990234375 126 416.990234375 126 427.26953125 104.5 c 128,-1,9
 437.549804688 83 437.549804688 83 459.39453125 72.5 c 128,-1,10
 481.240234375 62 481.240234375 62 515.934570312 62 c 0,11,12
 544.205078125 62 544.205078125 62 574.40234375 65.5 c 128,-1,13
 604.599609375 69 604.599609375 69 621.3046875 73 c 1,14,-1
 621.3046875 6 l 1,15,16
 603.315429688 -1 603.315429688 -1 568.620117188 -5.5 c 128,-1,17
 533.924804688 -10 533.924804688 -10 500.514648438 -10 c 0,0,1
EndSplineSet
Substitution2: "'smcp' Lowercase to Small Capitals lookup 35 subtable" l.sc
Substitution2: "'subs' Subscript lookup 22 subtable" uni2097
AlternateSubs2: "'aalt' Access All Alternates lookup 1 subtable" l.sc uni2097
EndChar

StartChar: m
Encoding: 109 109 80
Width: 771
GlyphClass: 2
Flags: W
AnchorPoint: "Anchor-3" 744.907 536 basechar 0
AnchorPoint: "Anchor-2" 418.518 536 basechar 0
AnchorPoint: "Anchor-1" 391.532 0 basechar 0
LayerCount: 2
Fore
SplineSet
63.857421875 0 m 1,0,-1
 63.857421875 536 l 1,1,-1
 143.52734375 536 l 1,2,-1
 160.232421875 477 l 1,3,-1
 166.657226562 477 l 1,4,5
 183.362304688 504 183.362304688 504 202.637695312 519 c 128,-1,6
 221.912109375 534 221.912109375 534 244.400390625 540 c 128,-1,7
 266.887695312 546 266.887695312 546 293.872070312 546 c 0,8,9
 346.557617188 546 346.557617188 546 375.469726562 526.5 c 128,-1,10
 404.3828125 507 404.3828125 507 419.802734375 469 c 1,11,-1
 423.657226562 469 l 1,12,13
 445.502929688 506 445.502929688 506 478.26953125 526 c 128,-1,14
 511.037109375 546 511.037109375 546 565.0078125 546 c 0,15,16
 617.692382812 546 617.692382812 546 649.174804688 525 c 128,-1,17
 680.657226562 504 680.657226562 504 694.150390625 461 c 128,-1,18
 707.642578125 418 707.642578125 418 707.642578125 350 c 2,19,-1
 707.642578125 0 l 1,20,-1
 604.842773438 0 l 1,21,-1
 604.842773438 335 l 2,22,23
 604.842773438 377 604.842773438 377 600.344726562 406.5 c 128,-1,24
 595.84765625 436 595.84765625 436 581.712890625 452 c 128,-1,25
 567.577148438 468 567.577148438 468 535.452148438 468 c 0,26,27
 504.612304688 468 504.612304688 468 482.767578125 445.5 c 128,-1,28
 460.922851562 423 460.922851562 423 449.357421875 379 c 128,-1,29
 437.79296875 335 437.79296875 335 437.79296875 268 c 2,30,-1
 437.79296875 0 l 1,31,-1
 334.9921875 0 l 1,32,-1
 334.9921875 335 l 2,33,34
 334.9921875 378 334.9921875 378 328.567382812 407.5 c 128,-1,35
 322.142578125 437 322.142578125 437 306.080078125 452.5 c 128,-1,36
 290.017578125 468 290.017578125 468 257.892578125 468 c 0,37,38
 224.482421875 468 224.482421875 468 203.922851562 443.5 c 128,-1,39
 183.362304688 419 183.362304688 419 175.009765625 374.5 c 128,-1,40
 166.657226562 330 166.657226562 330 166.657226562 268 c 2,41,-1
 166.657226562 0 l 1,42,-1
 63.857421875 0 l 1,0,-1
EndSplineSet
Substitution2: "'smcp' Lowercase to Small Capitals lookup 35 subtable" m.sc
Substitution2: "'subs' Subscript lookup 22 subtable" uni2098
AlternateSubs2: "'aalt' Access All Alternates lookup 1 subtable" m.sc uni2098
EndChar

StartChar: n
Encoding: 110 110 81
Width: 771
GlyphClass: 2
Flags: W
AnchorPoint: "Anchor-3" 744.338 536 basechar 0
AnchorPoint: "Anchor-2" 399.957 536 basechar 0
AnchorPoint: "Anchor-1" 392.247 0 basechar 0
LayerCount: 2
Fore
SplineSet
101.837890625 0 m 1,0,-1
 101.837890625 536 l 1,1,-1
 194.357421875 536 l 1,2,-1
 211.0625 457 l 1,3,-1
 217.487304688 457 l 1,4,5
 238.047851562 488 238.047851562 488 270.815429688 507.5 c 128,-1,6
 303.58203125 527 303.58203125 527 347.272460938 536.5 c 128,-1,7
 390.962890625 546 390.962890625 546 442.362304688 546 c 0,8,9
 546.447265625 546 546.447265625 546 610.0546875 500.5 c 128,-1,10
 673.662109375 455 673.662109375 455 673.662109375 358 c 2,11,-1
 673.662109375 0 l 1,12,-1
 558.012695312 0 l 1,13,-1
 558.012695312 342 l 2,14,15
 558.012695312 410 558.012695312 410 522.674804688 441.5 c 128,-1,16
 487.337890625 473 487.337890625 473 408.952148438 473 c 0,17,18
 303.58203125 473 303.58203125 473 260.53515625 421 c 128,-1,19
 217.487304688 369 217.487304688 369 217.487304688 275 c 2,20,-1
 217.487304688 0 l 1,21,-1
 101.837890625 0 l 1,0,-1
EndSplineSet
Substitution2: "'smcp' Lowercase to Small Capitals lookup 35 subtable" n.sc
Substitution2: "'sups' Superscript lookup 23 subtable" uni207F
Substitution2: "'subs' Subscript lookup 22 subtable" uni2099
AlternateSubs2: "'aalt' Access All Alternates lookup 1 subtable" uni207F n.sc uni2099
EndChar

StartChar: o
Encoding: 111 111 82
Width: 771
GlyphClass: 2
Flags: W
AnchorPoint: "Anchor-4" 385.25 268 basechar 0
AnchorPoint: "Anchor-3" 745.05 536 basechar 0
AnchorPoint: "Anchor-2" 385.25 536 basechar 0
AnchorPoint: "Anchor-1" 385.25 0 basechar 0
AnchorPoint: "Anchor-0" 386.535 10 basechar 0
LayerCount: 2
Fore
SplineSet
386.53515625 -10 m 0,0,1
 319.71484375 -10 319.71484375 -10 261.889648438 7 c 128,-1,2
 204.065429688 24 204.065429688 24 161.017578125 59 c 128,-1,3
 117.969726562 94 117.969726562 94 94.197265625 146.5 c 128,-1,4
 70.4248046875 199 70.4248046875 199 70.4248046875 270 c 0,5,6
 70.4248046875 363 70.4248046875 363 110.90234375 424 c 128,-1,7
 151.379882812 485 151.379882812 485 222.0546875 515.5 c 128,-1,8
 292.73046875 546 292.73046875 546 382.6796875 546 c 256,9,10
 472.629882812 546 472.629882812 546 544.58984375 515.5 c 128,-1,11
 616.549804688 485 616.549804688 485 658.3125 423.5 c 128,-1,12
 700.075195312 362 700.075195312 362 700.075195312 267 c 0,13,14
 700.075195312 197 700.075195312 197 676.302734375 145 c 128,-1,15
 652.530273438 93 652.530273438 93 610.767578125 58.5 c 128,-1,16
 569.004882812 24 569.004882812 24 511.822265625 7 c 128,-1,17
 454.639648438 -10 454.639648438 -10 386.53515625 -10 c 0,0,1
385.25 63 m 256,18,19
 452.0703125 63 452.0703125 63 495.759765625 88 c 128,-1,20
 539.450195312 113 539.450195312 113 561.294921875 159.5 c 128,-1,21
 583.139648438 206 583.139648438 206 583.139648438 269 c 0,22,23
 583.139648438 333 583.139648438 333 561.294921875 378.5 c 128,-1,24
 539.450195312 424 539.450195312 424 495.1171875 448.5 c 128,-1,25
 450.78515625 473 450.78515625 473 383.96484375 473 c 0,26,27
 283.735351562 473 283.735351562 473 234.262695312 418.5 c 128,-1,28
 184.790039062 364 184.790039062 364 184.790039062 269 c 0,29,30
 184.790039062 206 184.790039062 206 207.27734375 159.5 c 128,-1,31
 229.764648438 113 229.764648438 113 274.09765625 88 c 128,-1,32
 318.4296875 63 318.4296875 63 385.25 63 c 256,18,19
EndSplineSet
Substitution2: "'smcp' Lowercase to Small Capitals lookup 35 subtable" o.sc
Substitution2: "Single Substitution lookup 32 subtable" ordmasculine
AlternateSubs2: "'aalt' Access All Alternates lookup 1 subtable" ordmasculine o.sc
EndChar

StartChar: p
Encoding: 112 112 83
Width: 771
GlyphClass: 2
Flags: W
AnchorPoint: "Anchor-3" 741.487 536 basechar 0
AnchorPoint: "Anchor-2" 394.537 536 basechar 0
AnchorPoint: "Anchor-1" 394.537 -240 basechar 0
LayerCount: 2
Fore
SplineSet
98.9873046875 -240 m 1,0,-1
 98.9873046875 536 l 1,1,-1
 194.077148438 536 l 1,2,-1
 208.212890625 463 l 1,3,-1
 213.352539062 463 l 1,4,5
 233.912109375 489 233.912109375 489 262.182617188 507.5 c 128,-1,6
 290.452148438 526 290.452148438 526 329.002929688 536 c 128,-1,7
 367.552734375 546 367.552734375 546 418.952148438 546 c 0,8,9
 481.91796875 546 481.91796875 546 533.317382812 528.5 c 128,-1,10
 584.717773438 511 584.717773438 511 621.33984375 476 c 128,-1,11
 657.962890625 441 657.962890625 441 677.237304688 389 c 128,-1,12
 696.512695312 337 696.512695312 337 696.512695312 269 c 0,13,14
 696.512695312 178 696.512695312 178 662.459960938 115.5 c 128,-1,15
 628.407226562 53 628.407226562 53 566.084960938 21.5 c 128,-1,16
 503.762695312 -10 503.762695312 -10 418.952148438 -10 c 0,17,18
 368.837890625 -10 368.837890625 -10 329.64453125 1 c 128,-1,19
 290.452148438 12 290.452148438 12 262.182617188 30 c 128,-1,20
 233.912109375 48 233.912109375 48 213.352539062 69 c 1,21,-1
 205.642578125 69 l 1,22,23
 209.497070312 50 209.497070312 50 211.424804688 29.5 c 128,-1,24
 213.352539062 9 213.352539062 9 213.352539062 -11 c 2,25,-1
 213.352539062 -240 l 1,26,-1
 98.9873046875 -240 l 1,0,-1
394.537109375 63 m 0,27,28
 490.912109375 63 490.912109375 63 534.602539062 114.5 c 128,-1,29
 578.29296875 166 578.29296875 166 578.29296875 271 c 0,30,31
 578.29296875 374 578.29296875 374 535.245117188 423.5 c 128,-1,32
 492.197265625 473 492.197265625 473 393.252929688 473 c 0,33,34
 299.447265625 473 299.447265625 473 256.400390625 425.5 c 128,-1,35
 213.352539062 378 213.352539062 378 213.352539062 289 c 2,36,-1
 213.352539062 269 l 2,37,38
 213.352539062 174 213.352539062 174 252.544921875 118.5 c 128,-1,39
 291.737304688 63 291.737304688 63 394.537109375 63 c 0,27,28
EndSplineSet
Substitution2: "'smcp' Lowercase to Small Capitals lookup 35 subtable" p.sc
Substitution2: "'subs' Subscript lookup 22 subtable" uni209A
AlternateSubs2: "'aalt' Access All Alternates lookup 1 subtable" p.sc uni209A
EndChar

StartChar: q
Encoding: 113 113 84
Width: 771
GlyphClass: 2
Flags: W
AnchorPoint: "Anchor-3" 748.612 536 basechar 0
AnchorPoint: "Anchor-2" 363.112 536 basechar 0
AnchorPoint: "Anchor-1" 363.112 -240 basechar 0
LayerCount: 2
Fore
SplineSet
557.147460938 -11 m 2,0,1
 557.147460938 2 557.147460938 2 557.790039062 16 c 128,-1,2
 558.432617188 30 558.432617188 30 559.717773438 44 c 128,-1,3
 561.002929688 58 561.002929688 58 561.002929688 72 c 1,4,-1
 557.147460938 72 l 1,5,6
 528.877929688 38 528.877929688 38 480.690429688 14 c 128,-1,7
 432.502929688 -10 432.502929688 -10 355.40234375 -10 c 0,8,9
 293.72265625 -10 293.72265625 -10 241.6796875 7.5 c 128,-1,10
 189.637695312 25 189.637695312 25 152.372070312 60 c 128,-1,11
 115.107421875 95 115.107421875 95 94.5478515625 147 c 128,-1,12
 73.9873046875 199 73.9873046875 199 73.9873046875 267 c 0,13,14
 73.9873046875 336 73.9873046875 336 94.5478515625 388 c 128,-1,15
 115.107421875 440 115.107421875 440 153.657226562 475 c 128,-1,16
 192.20703125 510 192.20703125 510 243.607421875 528 c 128,-1,17
 295.0078125 546 295.0078125 546 356.6875 546 c 0,18,19
 432.502929688 546 432.502929688 546 480.690429688 522 c 128,-1,20
 528.877929688 498 528.877929688 498 557.147460938 464 c 1,21,-1
 562.287109375 464 l 1,22,-1
 578.9921875 536 l 1,23,-1
 671.512695312 536 l 1,24,-1
 671.512695312 -240 l 1,25,-1
 557.147460938 -240 l 1,26,-1
 557.147460938 -11 l 2,0,1
375.962890625 63 m 0,27,28
 465.912109375 63 465.912109375 63 511.530273438 109 c 128,-1,29
 557.147460938 155 557.147460938 155 557.147460938 247 c 2,30,-1
 557.147460938 267 l 2,31,32
 557.147460938 364 557.147460938 364 516.669921875 418.5 c 128,-1,33
 476.192382812 473 476.192382812 473 373.392578125 473 c 0,34,35
 279.587890625 473 279.587890625 473 235.897460938 420 c 128,-1,36
 192.20703125 367 192.20703125 367 192.20703125 266 c 0,37,38
 192.20703125 174 192.20703125 174 236.540039062 118.5 c 128,-1,39
 280.872070312 63 280.872070312 63 375.962890625 63 c 0,27,28
EndSplineSet
Substitution2: "'smcp' Lowercase to Small Capitals lookup 35 subtable" q.sc
Substitution2: "'aalt' Access All Alternates lookup 0 subtable" q.sc
EndChar

StartChar: r
Encoding: 114 114 85
Width: 771
GlyphClass: 2
Flags: W
AnchorPoint: "Anchor-3" 740.205 536 basechar 0
AnchorPoint: "Anchor-2" 431.805 536 basechar 0
AnchorPoint: "Anchor-1" 343.14 0 basechar 0
LayerCount: 2
Fore
SplineSet
74.5751953125 0 m 1,0,-1
 74.5751953125 60 l 1,1,-1
 284.030273438 75 l 1,2,-1
 284.030273438 461 l 1,3,-1
 95.134765625 474 l 1,4,-1
 95.134765625 536 l 1,5,-1
 376.549804688 536 l 1,6,-1
 391.969726562 438 l 1,7,-1
 397.110351562 438 l 1,8,9
 433.08984375 491 433.08984375 491 476.137695312 518.5 c 128,-1,10
 519.184570312 546 519.184570312 546 589.860351562 546 c 0,11,12
 633.549804688 546 633.549804688 546 667.602539062 540 c 128,-1,13
 701.655273438 534 701.655273438 534 729.924804688 524 c 1,14,-1
 699.084960938 445 l 1,15,16
 678.525390625 454 678.525390625 454 650.254882812 460.5 c 128,-1,17
 621.985351562 467 621.985351562 467 589.860351562 467 c 0,18,19
 534.60546875 467 534.60546875 467 492.200195312 440 c 128,-1,20
 449.794921875 413 449.794921875 413 425.379882812 368 c 128,-1,21
 400.96484375 323 400.96484375 323 400.96484375 269 c 2,22,-1
 400.96484375 75 l 1,23,-1
 601.424804688 60 l 1,24,-1
 601.424804688 0 l 1,25,-1
 74.5751953125 0 l 1,0,-1
EndSplineSet
Substitution2: "'smcp' Lowercase to Small Capitals lookup 35 subtable" r.sc
Substitution2: "'aalt' Access All Alternates lookup 0 subtable" r.sc
EndChar

StartChar: s
Encoding: 115 115 86
Width: 771
GlyphClass: 2
Flags: W
AnchorPoint: "Anchor-3" 745.05 536 basechar 0
AnchorPoint: "Anchor-2" 391.675 536 basechar 0
AnchorPoint: "Anchor-1" 391.675 0 basechar 0
LayerCount: 2
Fore
SplineSet
358.264648438 -10 m 0,0,1
 294.014648438 -10 294.014648438 -10 235.547851562 -1 c 128,-1,2
 177.080078125 8 177.080078125 8 134.674804688 24 c 1,3,-1
 134.674804688 107 l 1,4,5
 179.650390625 91 179.650390625 91 234.262695312 77.5 c 128,-1,6
 288.875 64 288.875 64 364.690429688 64 c 0,7,8
 449.5 64 449.5 64 484.837890625 84.5 c 128,-1,9
 520.174804688 105 520.174804688 105 520.174804688 144 c 0,10,11
 520.174804688 165 520.174804688 165 507.967773438 178.5 c 128,-1,12
 495.759765625 192 495.759765625 192 461.065429688 206 c 128,-1,13
 426.370117188 220 426.370117188 220 359.549804688 242 c 0,14,15
 292.73046875 265 292.73046875 265 245.184570312 285 c 128,-1,16
 197.639648438 305 197.639648438 305 171.940429688 332.5 c 128,-1,17
 146.240234375 360 146.240234375 360 146.240234375 403 c 0,18,19
 146.240234375 451 146.240234375 451 177.72265625 482.5 c 128,-1,20
 209.205078125 514 209.205078125 514 268.95703125 530 c 128,-1,21
 328.709960938 546 328.709960938 546 410.950195312 546 c 0,22,23
 467.490234375 546 467.490234375 546 518.889648438 538 c 128,-1,24
 570.290039062 530 570.290039062 530 625.544921875 512 c 1,25,-1
 590.849609375 442 l 1,26,27
 539.450195312 459 539.450195312 459 496.40234375 465 c 128,-1,28
 453.35546875 471 453.35546875 471 410.950195312 471 c 0,29,30
 331.280273438 471 331.280273438 471 294.657226562 455 c 128,-1,31
 258.03515625 439 258.03515625 439 258.03515625 405 c 0,32,33
 258.03515625 383 258.03515625 383 274.09765625 368 c 128,-1,34
 290.16015625 353 290.16015625 353 326.782226562 339 c 128,-1,35
 363.405273438 325 363.405273438 325 423.799804688 305 c 0,36,37
 491.905273438 283 491.905273438 283 539.450195312 264 c 128,-1,38
 586.995117188 245 586.995117188 245 611.41015625 218.5 c 128,-1,39
 635.825195312 192 635.825195312 192 635.825195312 146 c 0,40,41
 635.825195312 95 635.825195312 95 604.342773438 60.5 c 128,-1,42
 572.860351562 26 572.860351562 26 511.1796875 8 c 128,-1,43
 449.5 -10 449.5 -10 358.264648438 -10 c 0,0,1
EndSplineSet
Substitution2: "'smcp' Lowercase to Small Capitals lookup 35 subtable" s.sc
Substitution2: "'subs' Subscript lookup 22 subtable" uni209B
AlternateSubs2: "'aalt' Access All Alternates lookup 1 subtable" s.sc uni209B
EndChar

StartChar: t
Encoding: 116 116 87
Width: 771
GlyphClass: 2
Flags: W
AnchorPoint: "Anchor-4" 327.56 268 basechar 0
AnchorPoint: "Anchor-3" 633.39 860 basechar 0
AnchorPoint: "Anchor-2" 331.415 679 basechar 0
AnchorPoint: "Anchor-1" 484.33 0 basechar 0
LayerCount: 2
Fore
SplineSet
520.309570312 -10 m 0,0,1
 447.065429688 -10 447.065429688 -10 389.240234375 5 c 128,-1,2
 331.415039062 20 331.415039062 20 297.362304688 58 c 128,-1,3
 263.309570312 96 263.309570312 96 263.309570312 163 c 2,4,-1
 263.309570312 461 l 1,5,-1
 75.7001953125 461 l 1,6,-1
 75.7001953125 523 l 1,7,-1
 263.309570312 539 l 1,8,-1
 286.440429688 679 l 1,9,-1
 378.959960938 679 l 1,10,-1
 378.959960938 536 l 1,11,-1
 647.525390625 536 l 1,12,-1
 647.525390625 461 l 1,13,-1
 378.959960938 461 l 1,14,-1
 378.959960938 180 l 2,15,16
 378.959960938 140 378.959960938 140 393.737304688 114 c 128,-1,17
 408.514648438 88 408.514648438 88 441.924804688 75.5 c 128,-1,18
 475.334960938 63 475.334960938 63 528.01953125 63 c 0,19,20
 561.4296875 63 561.4296875 63 599.98046875 68 c 128,-1,21
 638.530273438 73 638.530273438 73 666.799804688 78 c 1,22,-1
 666.799804688 6 l 1,23,24
 635.959960938 0 635.959960938 0 598.6953125 -5 c 128,-1,25
 561.4296875 -10 561.4296875 -10 520.309570312 -10 c 0,0,1
EndSplineSet
Substitution2: "'smcp' Lowercase to Small Capitals lookup 35 subtable" t.sc
Substitution2: "'subs' Subscript lookup 22 subtable" uni209C
AlternateSubs2: "'aalt' Access All Alternates lookup 1 subtable" t.sc uni209C
EndChar

StartChar: u
Encoding: 117 117 88
Width: 771
GlyphClass: 2
Flags: W
AnchorPoint: "Anchor-3" 745.763 536 basechar 0
AnchorPoint: "Anchor-2" 385.963 536 basechar 0
AnchorPoint: "Anchor-1" 385.963 0 basechar 0
AnchorPoint: "Anchor-0" 694.362 10 basechar 0
LayerCount: 2
Fore
SplineSet
335.84765625 -10 m 0,0,1
 213.772460938 -10 213.772460938 -10 155.3046875 37.5 c 128,-1,2
 96.837890625 85 96.837890625 85 96.837890625 179 c 2,3,-1
 96.837890625 536 l 1,4,-1
 212.487304688 536 l 1,5,-1
 212.487304688 193 l 2,6,7
 212.487304688 129 212.487304688 129 246.540039062 96 c 128,-1,8
 280.592773438 63 280.592773438 63 364.1171875 63 c 0,9,10
 436.077148438 63 436.077148438 63 477.197265625 86.5 c 128,-1,11
 518.317382812 110 518.317382812 110 535.665039062 154 c 128,-1,12
 553.012695312 198 553.012695312 198 553.012695312 260 c 2,13,-1
 553.012695312 536 l 1,14,-1
 668.662109375 536 l 1,15,-1
 668.662109375 0 l 1,16,-1
 576.142578125 0 l 1,17,-1
 559.4375 72 l 1,18,-1
 553.012695312 72 l 1,19,20
 528.59765625 42 528.59765625 42 496.47265625 24 c 128,-1,21
 464.34765625 6 464.34765625 6 424.512695312 -2 c 128,-1,22
 384.677734375 -10 384.677734375 -10 335.84765625 -10 c 0,0,1
EndSplineSet
Substitution2: "'smcp' Lowercase to Small Capitals lookup 35 subtable" u.sc
Substitution2: "'aalt' Access All Alternates lookup 0 subtable" u.sc
EndChar

StartChar: v
Encoding: 118 118 89
Width: 771
GlyphClass: 2
Flags: W
AnchorPoint: "Anchor-3" 745.192 536 basechar 0
AnchorPoint: "Anchor-2" 385.393 536 basechar 0
AnchorPoint: "Anchor-1" 385.393 0 basechar 0
LayerCount: 2
Fore
SplineSet
312.147460938 0 m 1,0,-1
 57.7177734375 536 l 1,1,-1
 175.9375 536 l 1,2,-1
 319.857421875 218 l 2,3,4
 333.9921875 186 333.9921875 186 350.0546875 151 c 128,-1,5
 366.1171875 116 366.1171875 116 382.822265625 76 c 1,6,-1
 386.677734375 76 l 1,7,8
 403.3828125 116 403.3828125 116 420.73046875 151.5 c 128,-1,9
 438.077148438 187 438.077148438 187 450.927734375 218 c 2,10,-1
 590.9921875 536 l 1,11,-1
 711.782226562 536 l 1,12,-1
 454.782226562 0 l 1,13,-1
 312.147460938 0 l 1,0,-1
EndSplineSet
Substitution2: "'smcp' Lowercase to Small Capitals lookup 35 subtable" v.sc
Substitution2: "'aalt' Access All Alternates lookup 0 subtable" v.sc
EndChar

StartChar: w
Encoding: 119 119 90
Width: 771
GlyphClass: 2
Flags: W
AnchorPoint: "Anchor-3" 744.907 536 basechar 0
AnchorPoint: "Anchor-2" 386.393 536 basechar 0
AnchorPoint: "Anchor-1" 386.393 0 basechar 0
LayerCount: 2
Fore
SplineSet
130.677734375 0 m 1,0,-1
 20.16796875 536 l 1,1,-1
 128.107421875 536 l 1,2,-1
 178.22265625 271 l 2,3,4
 185.932617188 234 185.932617188 234 189.14453125 205 c 128,-1,5
 192.357421875 176 192.357421875 176 195.5703125 146 c 128,-1,6
 198.782226562 116 198.782226562 116 201.352539062 75 c 1,7,-1
 205.20703125 75 l 1,8,9
 209.0625 92 209.0625 92 216.129882812 122.5 c 128,-1,10
 223.197265625 153 223.197265625 153 232.834960938 188.5 c 128,-1,11
 242.47265625 224 242.47265625 224 254.037109375 254 c 2,12,-1
 320.857421875 435 l 1,13,-1
 448.072265625 435 l 1,14,-1
 512.322265625 254 l 2,15,16
 523.887695312 224 523.887695312 224 534.16796875 189.5 c 128,-1,17
 544.447265625 155 544.447265625 155 552.799804688 124.5 c 128,-1,18
 561.15234375 94 561.15234375 94 563.72265625 75 c 1,19,-1
 567.577148438 75 l 1,20,21
 571.432617188 115 571.432617188 115 574.002929688 144.5 c 128,-1,22
 576.572265625 174 576.572265625 174 580.427734375 203 c 128,-1,23
 584.282226562 232 584.282226562 232 591.9921875 271 c 2,24,-1
 645.962890625 536 l 1,25,-1
 751.33203125 536 l 1,26,-1
 638.252929688 0 l 1,27,-1
 499.47265625 0 l 1,28,-1
 437.79296875 188 l 2,29,30
 424.942382812 229 424.942382812 229 410.807617188 270 c 128,-1,31
 396.672851562 311 396.672851562 311 386.392578125 351 c 1,32,-1
 382.537109375 351 l 1,33,34
 372.2578125 311 372.2578125 311 357.48046875 270 c 128,-1,35
 342.702148438 229 342.702148438 229 328.567382812 188 c 2,36,-1
 265.602539062 0 l 1,37,-1
 130.677734375 0 l 1,0,-1
EndSplineSet
Substitution2: "'smcp' Lowercase to Small Capitals lookup 35 subtable" w.sc
Substitution2: "'aalt' Access All Alternates lookup 0 subtable" w.sc
EndChar

StartChar: x
Encoding: 120 120 91
Width: 771
GlyphClass: 2
Flags: W
AnchorPoint: "Anchor-3" 745.192 536 basechar 0
AnchorPoint: "Anchor-2" 385.393 536 basechar 0
AnchorPoint: "Anchor-1" 385.393 0 basechar 0
LayerCount: 2
Fore
SplineSet
57.7177734375 0 m 1,0,-1
 318.572265625 274 l 1,1,-1
 70.5673828125 536 l 1,2,-1
 200.352539062 536 l 1,3,-1
 385.392578125 335 l 1,4,-1
 570.432617188 536 l 1,5,-1
 700.217773438 536 l 1,6,-1
 450.927734375 274 l 1,7,-1
 711.782226562 0 l 1,8,-1
 581.997070312 0 l 1,9,-1
 385.392578125 213 l 1,10,-1
 187.502929688 0 l 1,11,-1
 57.7177734375 0 l 1,0,-1
EndSplineSet
Substitution2: "'smcp' Lowercase to Small Capitals lookup 35 subtable" x.sc
Substitution2: "'aalt' Access All Alternates lookup 0 subtable" x.sc
EndChar

StartChar: y
Encoding: 121 121 92
Width: 771
GlyphClass: 2
Flags: W
AnchorPoint: "Anchor-3" 745.192 536 basechar 0
AnchorPoint: "Anchor-2" 385.393 536 basechar 0
AnchorPoint: "Anchor-1" 385.393 -245 basechar 0
LayerCount: 2
Fore
SplineSet
174.65234375 -245 m 0,0,1
 148.952148438 -245 148.952148438 -245 124.537109375 -242.5 c 128,-1,2
 100.122070312 -240 100.122070312 -240 82.1328125 -237 c 1,3,-1
 82.1328125 -168 l 1,4,5
 97.552734375 -170 97.552734375 -170 118.754882812 -172 c 128,-1,6
 139.95703125 -174 139.95703125 -174 160.517578125 -174 c 0,7,8
 200.352539062 -174 200.352539062 -174 226.6953125 -164 c 128,-1,9
 253.037109375 -154 253.037109375 -154 272.955078125 -133 c 128,-1,10
 292.872070312 -112 292.872070312 -112 309.577148438 -78 c 2,11,-1
 346.842773438 -5 l 1,12,-1
 57.7177734375 536 l 1,13,-1
 170.797851562 536 l 1,14,-1
 335.27734375 221 l 2,15,16
 351.982421875 190 351.982421875 190 368.044921875 152 c 128,-1,17
 384.107421875 114 384.107421875 114 396.95703125 79 c 1,18,-1
 400.8125 79 l 1,19,20
 409.807617188 104 409.807617188 104 420.087890625 128.5 c 128,-1,21
 430.3671875 153 430.3671875 153 440.004882812 177 c 128,-1,22
 449.642578125 201 449.642578125 201 458.637695312 222 c 2,23,-1
 593.5625 536 l 1,24,-1
 711.782226562 536 l 1,25,-1
 422.657226562 -70 l 2,26,27
 398.2421875 -122 398.2421875 -122 369.330078125 -161.5 c 128,-1,28
 340.41796875 -201 340.41796875 -201 294.799804688 -223 c 128,-1,29
 249.182617188 -245 249.182617188 -245 174.65234375 -245 c 0,0,1
EndSplineSet
Substitution2: "'smcp' Lowercase to Small Capitals lookup 35 subtable" y.sc
Substitution2: "'aalt' Access All Alternates lookup 0 subtable" y.sc
EndChar

StartChar: z
Encoding: 122 122 93
Width: 771
GlyphClass: 2
Flags: W
AnchorPoint: "Anchor-3" 745.05 536 basechar 0
AnchorPoint: "Anchor-2" 398.1 536 basechar 0
AnchorPoint: "Anchor-1" 398.1 0 basechar 0
LayerCount: 2
Fore
SplineSet
115.400390625 0 m 1,0,-1
 115.400390625 61 l 1,1,-1
 520.174804688 467 l 1,2,-1
 135.959960938 467 l 1,3,-1
 135.959960938 536 l 1,4,-1
 644.8203125 536 l 1,5,-1
 644.8203125 465 l 1,6,-1
 252.89453125 76 l 1,7,-1
 655.099609375 76 l 1,8,-1
 655.099609375 0 l 1,9,-1
 115.400390625 0 l 1,0,-1
EndSplineSet
Substitution2: "'smcp' Lowercase to Small Capitals lookup 35 subtable" z.sc
Substitution2: "'aalt' Access All Alternates lookup 0 subtable" z.sc
EndChar

StartChar: braceleft
Encoding: 123 123 94
Width: 771
Flags: W
LayerCount: 2
Fore
SplineSet
590.849609375 -158 m 1,0,1
 512.46484375 -157 512.46484375 -157 455.282226562 -140 c 128,-1,2
 398.099609375 -123 398.099609375 -123 367.259765625 -87.5 c 128,-1,3
 336.419921875 -52 336.419921875 -52 336.419921875 1 c 2,4,-1
 336.419921875 148 l 2,5,6
 336.419921875 199 336.419921875 199 295.942382812 220.5 c 128,-1,7
 255.46484375 242 255.46484375 242 179.650390625 242 c 1,8,-1
 179.650390625 315 l 1,9,10
 255.46484375 316 255.46484375 316 295.942382812 337 c 128,-1,11
 336.419921875 358 336.419921875 358 336.419921875 408 c 2,12,-1
 336.419921875 556 l 2,13,14
 336.419921875 609 336.419921875 609 368.544921875 644 c 128,-1,15
 400.669921875 679 400.669921875 679 458.495117188 696.5 c 128,-1,16
 516.3203125 714 516.3203125 714 590.849609375 714 c 1,17,-1
 590.849609375 642 l 1,18,19
 547.16015625 641 547.16015625 641 515.03515625 631 c 128,-1,20
 482.91015625 621 482.91015625 621 465.5625 601 c 128,-1,21
 448.21484375 581 448.21484375 581 448.21484375 548 c 2,22,-1
 448.21484375 404 l 2,23,24
 448.21484375 353 448.21484375 353 413.51953125 322.5 c 128,-1,25
 378.825195312 292 378.825195312 292 308.150390625 282 c 1,26,-1
 308.150390625 276 l 1,27,28
 380.110351562 266 380.110351562 266 414.162109375 235.5 c 128,-1,29
 448.21484375 205 448.21484375 205 448.21484375 154 c 2,30,-1
 448.21484375 7 l 2,31,32
 448.21484375 -42 448.21484375 -42 485.48046875 -63.5 c 128,-1,33
 522.745117188 -85 522.745117188 -85 590.849609375 -86 c 1,34,-1
 590.849609375 -158 l 1,0,1
EndSplineSet
Substitution2: "'smcp' Lowercase to Small Capitals lookup 35 subtable" braceleft.sc
Substitution2: "'c2sc' Capitals to Small Capitals lookup 34 subtable" braceleft.sc
Substitution2: "'aalt' Access All Alternates lookup 0 subtable" braceleft.sc
EndChar

StartChar: bar
Encoding: 124 124 95
Width: 771
Flags: W
LayerCount: 2
Fore
SplineSet
338.84765625 -240 m 1,0,-1
 338.84765625 760 l 1,1,-1
 432.65234375 760 l 1,2,-1
 432.65234375 -240 l 1,3,-1
 338.84765625 -240 l 1,0,-1
EndSplineSet
EndChar

StartChar: braceright
Encoding: 125 125 96
Width: 771
Flags: W
LayerCount: 2
Fore
SplineSet
179.650390625 714 m 1,0,1
 259.3203125 714 259.3203125 714 315.860351562 696.5 c 128,-1,2
 372.400390625 679 372.400390625 679 403.240234375 644 c 128,-1,3
 434.080078125 609 434.080078125 609 434.080078125 555 c 2,4,-1
 434.080078125 408 l 2,5,6
 434.080078125 357 434.080078125 357 474.557617188 335.5 c 128,-1,7
 515.03515625 314 515.03515625 314 590.849609375 314 c 1,8,-1
 590.849609375 241 l 1,9,10
 515.03515625 240 515.03515625 240 474.557617188 219 c 128,-1,11
 434.080078125 198 434.080078125 198 434.080078125 148 c 2,12,-1
 434.080078125 0 l 2,13,14
 434.080078125 -53 434.080078125 -53 401.955078125 -88 c 128,-1,15
 369.830078125 -123 369.830078125 -123 312.647460938 -140.5 c 128,-1,16
 255.46484375 -158 255.46484375 -158 179.650390625 -158 c 1,17,-1
 179.650390625 -86 l 1,18,19
 224.625 -85 224.625 -85 256.107421875 -75 c 128,-1,20
 287.58984375 -65 287.58984375 -65 304.9375 -44.5 c 128,-1,21
 322.28515625 -24 322.28515625 -24 322.28515625 8 c 2,22,-1
 322.28515625 152 l 2,23,24
 322.28515625 203 322.28515625 203 356.98046875 233.5 c 128,-1,25
 391.674804688 264 391.674804688 264 462.349609375 274 c 1,26,-1
 462.349609375 280 l 1,27,28
 391.674804688 290 391.674804688 290 356.98046875 320.5 c 128,-1,29
 322.28515625 351 322.28515625 351 322.28515625 402 c 2,30,-1
 322.28515625 549 l 2,31,32
 322.28515625 598 322.28515625 598 285.01953125 619.5 c 128,-1,33
 247.754882812 641 247.754882812 641 179.650390625 642 c 1,34,-1
 179.650390625 714 l 1,0,1
EndSplineSet
Substitution2: "'smcp' Lowercase to Small Capitals lookup 35 subtable" braceright.sc
Substitution2: "'c2sc' Capitals to Small Capitals lookup 34 subtable" braceright.sc
Substitution2: "'aalt' Access All Alternates lookup 0 subtable" braceright.sc
EndChar

StartChar: asciitilde
Encoding: 126 126 97
Width: 771
Flags: W
LayerCount: 2
Fore
SplineSet
95.125 287 m 1,0,1
 98.98046875 316 98.98046875 316 106.690429688 346.5 c 128,-1,2
 114.400390625 377 114.400390625 377 131.10546875 403.5 c 128,-1,3
 147.809570312 430 147.809570312 430 176.72265625 446 c 128,-1,4
 205.634765625 462 205.634765625 462 251.89453125 462 c 0,5,6
 281.450195312 462 281.450195312 462 306.5078125 454.5 c 128,-1,7
 331.565429688 447 331.565429688 447 357.264648438 432.5 c 128,-1,8
 382.96484375 418 382.96484375 418 412.51953125 396 c 0,9,10
 439.504882812 377 439.504882812 377 465.205078125 361.5 c 128,-1,11
 490.905273438 346 490.905273438 346 517.889648438 346 c 0,12,13
 553.870117188 346 553.870117188 346 570.575195312 376.5 c 128,-1,14
 587.280273438 407 587.280273438 407 596.275390625 462 c 1,15,-1
 673.375 462 l 1,16,17
 669.51953125 436 669.51953125 436 661.16796875 406 c 128,-1,18
 652.815429688 376 652.815429688 376 636.110351562 349 c 128,-1,19
 619.405273438 322 619.405273438 322 590.4921875 304.5 c 128,-1,20
 561.580078125 287 561.580078125 287 516.60546875 287 c 0,21,22
 487.049804688 287 487.049804688 287 460.70703125 295 c 128,-1,23
 434.365234375 303 434.365234375 303 410.592773438 317.5 c 128,-1,24
 386.8203125 332 386.8203125 332 362.405273438 350 c 0,25,26
 332.849609375 373 332.849609375 373 307.150390625 388 c 128,-1,27
 281.450195312 403 281.450195312 403 251.89453125 403 c 0,28,29
 214.629882812 403 214.629882812 403 195.997070312 374.5 c 128,-1,30
 177.365234375 346 177.365234375 346 170.940429688 287 c 1,31,-1
 95.125 287 l 1,0,1
EndSplineSet
EndChar

StartChar: exclamdown
Encoding: 161 161 99
Width: 771
Flags: W
LayerCount: 2
Fore
SplineSet
386.392578125 -10 m 256,0,1
 320.857421875 -10 320.857421875 -10 264.317382812 7 c 128,-1,2
 207.77734375 24 207.77734375 24 166.014648438 59 c 128,-1,3
 124.252929688 94 124.252929688 94 101.122070312 146.5 c 128,-1,4
 77.9921875 199 77.9921875 199 77.9921875 270 c 0,5,6
 77.9921875 363 77.9921875 363 117.184570312 424 c 128,-1,7
 156.377929688 485 156.377929688 485 225.125 515.5 c 128,-1,8
 293.872070312 546 293.872070312 546 382.537109375 546 c 256,9,10
 471.202148438 546 471.202148438 546 541.235351562 515.5 c 128,-1,11
 611.267578125 485 611.267578125 485 652.387695312 423.5 c 128,-1,12
 693.5078125 362 693.5078125 362 693.5078125 267 c 0,13,14
 693.5078125 197 693.5078125 197 670.377929688 145 c 128,-1,15
 647.247070312 93 647.247070312 93 606.127929688 58.5 c 128,-1,16
 565.0078125 24 565.0078125 24 508.467773438 7 c 128,-1,17
 451.927734375 -10 451.927734375 -10 386.392578125 -10 c 256,0,1
252.752929688 20 m 1,18,-1
 176.9375 72 l 1,19,-1
 495.6171875 488 l 1,20,-1
 576.572265625 445 l 1,21,-1
 252.752929688 20 l 1,18,-1
385.107421875 63 m 0,22,23
 451.927734375 63 451.927734375 63 494.974609375 88 c 128,-1,24
 538.022460938 113 538.022460938 113 559.8671875 159.5 c 128,-1,25
 581.712890625 206 581.712890625 206 581.712890625 269 c 0,26,27
 581.712890625 333 581.712890625 333 559.8671875 378.5 c 128,-1,28
 538.022460938 424 538.022460938 424 494.33203125 448.5 c 128,-1,29
 450.642578125 473 450.642578125 473 383.822265625 473 c 0,30,31
 284.877929688 473 284.877929688 473 236.047851562 418.5 c 128,-1,32
 187.217773438 364 187.217773438 364 187.217773438 269 c 0,33,34
 187.217773438 206 187.217773438 206 209.0625 159.5 c 128,-1,35
 230.907226562 113 230.907226562 113 275.240234375 88 c 128,-1,36
 319.572265625 63 319.572265625 63 385.107421875 63 c 0,22,23
EndSplineSet
Substitution2: "'smcp' Lowercase to Small Capitals lookup 35 subtable" exclamdown.sc
Substitution2: "'c2sc' Capitals to Small Capitals lookup 34 subtable" exclamdown.sc
Substitution2: "'aalt' Access All Alternates lookup 0 subtable" exclamdown.sc
EndChar

StartChar: cent
Encoding: 162 162 100
Width: 771
Flags: W
LayerCount: 2
Fore
SplineSet
360.5546875 274 m 2,0,1
 360.5546875 302 360.5546875 302 361.197265625 334.5 c 128,-1,2
 361.83984375 367 361.83984375 367 363.125 397.5 c 128,-1,3
 364.41015625 428 364.41015625 428 365.6953125 450 c 1,4,5
 345.134765625 441 345.134765625 441 328.4296875 435 c 128,-1,6
 311.724609375 429 311.724609375 429 278.315429688 416 c 2,7,-1
 171.66015625 373 l 1,8,-1
 125.400390625 443 l 1,9,-1
 377.259765625 542 l 1,10,-1
 471.065429688 542 l 1,11,-1
 471.065429688 0 l 1,12,-1
 360.5546875 0 l 1,13,-1
 360.5546875 274 l 2,0,1
167.8046875 0 m 1,14,-1
 167.8046875 60 l 1,15,-1
 360.5546875 70 l 1,16,-1
 471.065429688 70 l 1,17,-1
 665.099609375 60 l 1,18,-1
 665.099609375 0 l 1,19,-1
 167.8046875 0 l 1,14,-1
EndSplineSet
EndChar

StartChar: sterling
Encoding: 163 163 101
Width: 771
Flags: W
LayerCount: 2
Fore
SplineSet
90.9853515625 0 m 1,0,-1
 90.9853515625 71 l 1,1,-1
 342.844726562 210 l 2,2,3
 404.525390625 244 404.525390625 244 445.002929688 268 c 128,-1,4
 485.48046875 292 485.48046875 292 506.040039062 316 c 128,-1,5
 526.599609375 340 526.599609375 340 526.599609375 373 c 0,6,7
 526.599609375 404 526.599609375 404 509.89453125 425.5 c 128,-1,8
 493.190429688 447 493.190429688 447 459.780273438 459 c 128,-1,9
 426.370117188 471 426.370117188 471 374.969726562 471 c 0,10,11
 318.4296875 471 318.4296875 471 264.459960938 455 c 128,-1,12
 210.490234375 439 210.490234375 439 157.8046875 405 c 1,13,-1
 98.6953125 466 l 1,14,15
 164.23046875 510 164.23046875 510 235.547851562 528.5 c 128,-1,16
 306.865234375 547 306.865234375 547 383.96484375 547 c 0,17,18
 467.490234375 547 467.490234375 547 524.672851562 528 c 128,-1,19
 581.85546875 509 581.85546875 509 611.41015625 473 c 128,-1,20
 640.96484375 437 640.96484375 437 640.96484375 386 c 0,21,22
 640.96484375 341 640.96484375 341 618.477539062 306 c 128,-1,23
 595.990234375 271 595.990234375 271 552.299804688 240.5 c 128,-1,24
 508.610351562 210 508.610351562 210 446.9296875 177 c 2,25,-1
 268.315429688 81 l 1,26,-1
 269.599609375 78 l 1,27,-1
 679.514648438 78 l 1,28,-1
 679.514648438 0 l 1,29,-1
 90.9853515625 0 l 1,0,-1
EndSplineSet
EndChar

StartChar: currency
Encoding: 164 164 102
Width: 771
Flags: W
AnchorPoint: "Anchor-2" 378.695 572 basechar 0
AnchorPoint: "Anchor-1" 378.695 0 basechar 0
LayerCount: 2
Fore
SplineSet
165.384765625 0 m 1,0,-1
 165.384765625 572 l 1,1,-1
 277.1796875 572 l 1,2,-1
 277.1796875 462 l 1,3,-1
 377.41015625 462 l 2,4,5
 514.905273438 462 514.905273438 462 583.009765625 418 c 128,-1,6
 651.115234375 374 651.115234375 374 651.115234375 290 c 0,7,8
 651.115234375 234 651.115234375 234 618.990234375 192.5 c 128,-1,9
 586.865234375 151 586.865234375 151 523.900390625 129 c 128,-1,10
 460.934570312 107 460.934570312 107 368.415039062 107 c 2,11,-1
 277.1796875 107 l 1,12,-1
 277.1796875 0 l 1,13,-1
 165.384765625 0 l 1,0,-1
356.849609375 178 m 2,14,15
 440.375 178 440.375 178 488.5625 201 c 128,-1,16
 536.75 224 536.75 224 536.75 285 c 0,17,18
 536.75 338 536.75 338 496.915039062 364.5 c 128,-1,19
 457.080078125 391 457.080078125 391 373.5546875 391 c 2,20,-1
 277.1796875 391 l 1,21,-1
 277.1796875 178 l 1,22,-1
 356.849609375 178 l 2,14,15
EndSplineSet
EndChar

StartChar: yen
Encoding: 165 165 103
Width: 771
Flags: W
LayerCount: 2
Fore
SplineSet
378.825195312 90 m 1,0,1
 299.155273438 99 299.155273438 99 240.044921875 129 c 128,-1,2
 180.934570312 159 180.934570312 159 148.16796875 216 c 128,-1,3
 115.400390625 273 115.400390625 273 115.400390625 362 c 0,4,5
 115.400390625 449 115.400390625 449 148.16796875 507.5 c 128,-1,6
 180.934570312 566 180.934570312 566 240.6875 598.5 c 128,-1,7
 300.440429688 631 300.440429688 631 378.825195312 640 c 1,8,-1
 378.825195312 724 l 1,9,-1
 466.205078125 724 l 1,10,-1
 466.205078125 644 l 1,11,12
 518.889648438 643 518.889648438 643 570.932617188 634.5 c 128,-1,13
 622.974609375 626 622.974609375 626 655.099609375 615 c 1,14,-1
 621.690429688 542 l 1,15,16
 588.280273438 552 588.280273438 552 543.3046875 560 c 128,-1,17
 498.330078125 568 498.330078125 568 449.5 568 c 0,18,19
 374.969726562 568 374.969726562 568 326.782226562 545.5 c 128,-1,20
 278.594726562 523 278.594726562 523 254.822265625 477.5 c 128,-1,21
 231.049804688 432 231.049804688 432 231.049804688 363 c 256,22,23
 231.049804688 294 231.049804688 294 255.46484375 250 c 128,-1,24
 279.879882812 206 279.879882812 206 327.424804688 185 c 128,-1,25
 374.969726562 164 374.969726562 164 444.360351562 164 c 0,26,27
 504.754882812 164 504.754882812 164 554.227539062 172.5 c 128,-1,28
 603.700195312 181 603.700195312 181 643.53515625 194 c 1,29,-1
 643.53515625 117 l 1,30,31
 608.83984375 104 608.83984375 104 564.5078125 96.5 c 128,-1,32
 520.174804688 89 520.174804688 89 464.919921875 87 c 1,33,-1
 464.919921875 -10 l 1,34,-1
 378.825195312 -10 l 1,35,-1
 378.825195312 90 l 1,0,1
EndSplineSet
EndChar

StartChar: brokenbar
Encoding: 166 166 104
Width: 771
Flags: W
LayerCount: 2
Fore
SplineSet
113.262695312 74 m 1,0,1
 147.95703125 81 147.95703125 81 174.942382812 97.5 c 128,-1,2
 201.927734375 114 201.927734375 114 217.34765625 142.5 c 128,-1,3
 232.767578125 171 232.767578125 171 232.767578125 215 c 2,4,-1
 232.767578125 320 l 1,5,-1
 117.1171875 320 l 1,6,-1
 117.1171875 386 l 1,7,-1
 232.767578125 386 l 1,8,-1
 232.767578125 534 l 2,9,10
 232.767578125 623 232.767578125 623 297.66015625 673 c 128,-1,11
 362.552734375 723 362.552734375 723 469.20703125 723 c 0,12,13
 528.317382812 723 528.317382812 723 573.29296875 712.5 c 128,-1,14
 618.267578125 702 618.267578125 702 660.672851562 682 c 1,15,-1
 620.837890625 614 l 1,16,17
 584.857421875 632 584.857421875 632 550.162109375 640 c 128,-1,18
 515.467773438 648 515.467773438 648 479.487304688 648 c 0,19,20
 412.66796875 648 412.66796875 648 379.2578125 619.5 c 128,-1,21
 345.84765625 591 345.84765625 591 345.84765625 525 c 2,22,-1
 345.84765625 386 l 1,23,-1
 573.29296875 386 l 1,24,-1
 573.29296875 320 l 1,25,-1
 345.84765625 320 l 1,26,-1
 345.84765625 216 l 2,27,28
 345.84765625 189 345.84765625 189 334.282226562 161.5 c 128,-1,29
 322.717773438 134 322.717773438 134 304.727539062 112.5 c 128,-1,30
 286.737304688 91 286.737304688 91 266.177734375 80 c 1,31,-1
 672.237304688 80 l 1,32,-1
 672.237304688 0 l 1,33,-1
 113.262695312 0 l 1,34,-1
 113.262695312 74 l 1,0,1
EndSplineSet
EndChar

StartChar: section
Encoding: 167 167 105
Width: 771
Flags: W
LayerCount: 2
Fore
SplineSet
354.552734375 -10 m 0,0,1
 283.877929688 -10 283.877929688 -10 231.192382812 -1.5 c 128,-1,2
 178.5078125 7 178.5078125 7 139.95703125 23 c 1,3,-1
 139.95703125 97 l 1,4,5
 166.942382812 87 166.942382812 87 202.280273438 77 c 128,-1,6
 237.6171875 67 237.6171875 67 278.094726562 60.5 c 128,-1,7
 318.572265625 54 318.572265625 54 358.407226562 54 c 0,8,9
 449.642578125 54 449.642578125 54 486.264648438 76.5 c 128,-1,10
 522.887695312 99 522.887695312 99 522.887695312 127 c 0,11,12
 522.887695312 147 522.887695312 147 511.322265625 163 c 128,-1,13
 499.7578125 179 499.7578125 179 464.419921875 195.5 c 128,-1,14
 429.08203125 212 429.08203125 212 359.692382812 233 c 0,15,16
 294.157226562 253 294.157226562 253 247.254882812 273.5 c 128,-1,17
 200.352539062 294 200.352539062 294 175.294921875 323 c 128,-1,18
 150.237304688 352 150.237304688 352 150.237304688 395 c 0,19,20
 150.237304688 444 150.237304688 444 182.362304688 474.5 c 128,-1,21
 214.487304688 505 214.487304688 505 254.322265625 520 c 1,22,23
 206.77734375 539 206.77734375 539 180.434570312 568.5 c 128,-1,24
 154.092773438 598 154.092773438 598 154.092773438 638 c 0,25,26
 154.092773438 697 154.092773438 697 217.700195312 731 c 128,-1,27
 281.307617188 765 281.307617188 765 402.09765625 765 c 0,28,29
 474.057617188 765 474.057617188 765 523.530273438 755.5 c 128,-1,30
 573.002929688 746 573.002929688 746 617.977539062 732 c 1,31,-1
 584.567382812 669 l 1,32,33
 543.447265625 684 543.447265625 684 501.684570312 692 c 128,-1,34
 459.922851562 700 459.922851562 700 398.2421875 700 c 0,35,36
 322.427734375 700 322.427734375 700 290.9453125 683.5 c 128,-1,37
 259.462890625 667 259.462890625 667 259.462890625 640 c 0,38,39
 259.462890625 622 259.462890625 622 273.59765625 606.5 c 128,-1,40
 287.732421875 591 287.732421875 591 323.0703125 575.5 c 128,-1,41
 358.407226562 560 358.407226562 560 422.657226562 541 c 0,42,43
 488.192382812 522 488.192382812 522 534.452148438 500.5 c 128,-1,44
 580.712890625 479 580.712890625 479 605.127929688 451 c 128,-1,45
 629.54296875 423 629.54296875 423 629.54296875 383 c 0,46,47
 629.54296875 333 629.54296875 333 599.344726562 300.5 c 128,-1,48
 569.147460938 268 569.147460938 268 530.59765625 251 c 1,49,50
 576.857421875 232 576.857421875 232 602.557617188 203 c 128,-1,51
 628.2578125 174 628.2578125 174 628.2578125 133 c 0,52,53
 628.2578125 65 628.2578125 65 556.297851562 27.5 c 128,-1,54
 484.337890625 -10 484.337890625 -10 354.552734375 -10 c 0,0,1
450.927734375 280 m 1,55,56
 481.767578125 294 481.767578125 294 508.752929688 315.5 c 128,-1,57
 535.737304688 337 535.737304688 337 535.737304688 370 c 0,58,59
 535.737304688 395 535.737304688 395 518.389648438 415 c 128,-1,60
 501.04296875 435 501.04296875 435 457.995117188 453 c 128,-1,61
 414.947265625 471 414.947265625 471 336.5625 490 c 1,62,63
 300.58203125 483 300.58203125 483 271.02734375 460 c 128,-1,64
 241.47265625 437 241.47265625 437 241.47265625 405 c 0,65,66
 241.47265625 381 241.47265625 381 258.8203125 362 c 128,-1,67
 276.16796875 343 276.16796875 343 316.002929688 325.5 c 128,-1,68
 355.837890625 308 355.837890625 308 423.942382812 288 c 2,69,-1
 450.927734375 280 l 1,55,56
EndSplineSet
EndChar

StartChar: dieresis
Encoding: 168 168 106
Width: 771
GlyphClass: 2
Flags: W
LayerCount: 2
Fore
SplineSet
386.53515625 421 m 0,0,1
 328.709960938 421 328.709960938 421 284.377929688 441 c 128,-1,2
 240.044921875 461 240.044921875 461 215.629882812 495 c 128,-1,3
 191.21484375 529 191.21484375 529 191.21484375 572 c 256,4,5
 191.21484375 615 191.21484375 615 216.915039062 649.5 c 128,-1,6
 242.615234375 684 242.615234375 684 286.947265625 704 c 128,-1,7
 331.280273438 724 331.280273438 724 386.53515625 724 c 0,8,9
 440.504882812 724 440.504882812 724 484.1953125 704 c 128,-1,10
 527.884765625 684 527.884765625 684 553.584960938 649.5 c 128,-1,11
 579.28515625 615 579.28515625 615 579.28515625 572 c 256,12,13
 579.28515625 529 579.28515625 529 554.870117188 495 c 128,-1,14
 530.455078125 461 530.455078125 461 486.764648438 441 c 128,-1,15
 443.075195312 421 443.075195312 421 386.53515625 421 c 0,0,1
387.8203125 480 m 0,16,17
 436.650390625 480 436.650390625 480 469.41796875 504.5 c 128,-1,18
 502.184570312 529 502.184570312 529 502.184570312 572 c 256,19,20
 502.184570312 615 502.184570312 615 469.41796875 639.5 c 128,-1,21
 436.650390625 664 436.650390625 664 387.8203125 664 c 0,22,23
 336.419921875 664 336.419921875 664 303.009765625 640 c 128,-1,24
 269.599609375 616 269.599609375 616 269.599609375 572 c 0,25,26
 269.599609375 530 269.599609375 530 304.9375 505 c 128,-1,27
 340.275390625 480 340.275390625 480 387.8203125 480 c 0,16,17
EndSplineSet
EndChar

StartChar: copyright
Encoding: 169 169 107
Width: 771
Flags: W
LayerCount: 2
Fore
SplineSet
336.990234375 124 m 1,0,-1
 336.990234375 320 l 1,1,-1
 97.98046875 320 l 1,2,-1
 97.98046875 391 l 1,3,-1
 336.990234375 391 l 1,4,-1
 336.990234375 588 l 1,5,-1
 429.509765625 588 l 1,6,-1
 429.509765625 391 l 1,7,-1
 668.51953125 391 l 1,8,-1
 668.51953125 320 l 1,9,-1
 429.509765625 320 l 1,10,-1
 429.509765625 124 l 1,11,-1
 336.990234375 124 l 1,0,-1
103.120117188 0 m 1,12,-1
 103.120117188 71 l 1,13,-1
 668.51953125 71 l 1,14,-1
 668.51953125 0 l 1,15,-1
 103.120117188 0 l 1,12,-1
EndSplineSet
EndChar

StartChar: ordfeminine
Encoding: 170 170 108
Width: 771
GlyphClass: 2
Flags: W
LayerCount: 2
Fore
SplineSet
174.3671875 138 m 1,0,-1
 110.1171875 187 l 1,1,-1
 320.857421875 353 l 1,2,-1
 108.83203125 518 l 1,3,-1
 173.08203125 568 l 1,4,-1
 385.107421875 402 l 1,5,-1
 599.702148438 568 l 1,6,-1
 662.66796875 519 l 1,7,-1
 449.357421875 353 l 1,8,-1
 661.3828125 187 l 1,9,-1
 598.41796875 138 l 1,10,-1
 383.822265625 302 l 1,11,-1
 174.3671875 138 l 1,0,-1
EndSplineSet
EndChar

StartChar: guillemotleft
Encoding: 171 171 109
Width: 771
Flags: W
AnchorPoint: "Anchor-2" 379.55 714 basechar 0
AnchorPoint: "Anchor-1" 379.55 0 basechar 0
LayerCount: 2
Fore
SplineSet
116.125 0 m 1,0,-1
 116.125 714 l 1,1,-1
 231.775390625 714 l 1,2,-1
 231.775390625 584 l 1,3,-1
 378.264648438 584 l 2,4,5
 542.745117188 584 542.745117188 584 618.559570312 529.5 c 128,-1,6
 694.375 475 694.375 475 694.375 375 c 0,7,8
 694.375 316 694.375 316 662.892578125 263 c 128,-1,9
 631.41015625 210 631.41015625 210 558.807617188 177.5 c 128,-1,10
 486.205078125 145 486.205078125 145 361.559570312 145 c 2,11,-1
 231.775390625 145 l 1,12,-1
 231.775390625 0 l 1,13,-1
 116.125 0 l 1,0,-1
348.709960938 223 m 2,14,15
 424.525390625 223 424.525390625 223 475.282226562 238 c 128,-1,16
 526.040039062 253 526.040039062 253 551.09765625 285.5 c 128,-1,17
 576.155273438 318 576.155273438 318 576.155273438 370 c 0,18,19
 576.155273438 438 576.155273438 438 525.397460938 472 c 128,-1,20
 474.639648438 506 474.639648438 506 367.985351562 506 c 2,21,-1
 231.775390625 506 l 1,22,-1
 231.775390625 223 l 1,23,-1
 348.709960938 223 l 2,14,15
EndSplineSet
EndChar

StartChar: logicalnot
Encoding: 172 172 110
Width: 771
Flags: W
AnchorPoint: "Anchor-3" 737.669 536 basechar 0
AnchorPoint: "Anchor-2" 386.863 738 basechar 0
AnchorPoint: "Anchor-1" 377.868 0 basechar 0
AnchorPoint: "Anchor-0" 686.269 10 basechar 0
LayerCount: 2
Fore
SplineSet
749.875976562 622 m 256,0,1
 721.606445312 622 721.606445312 622 701.045898438 636.5 c 0,2,3
 680.486328125 651 680.486328125 651 680.486328125 681 c 0,4,5
 680.486328125 712 680.486328125 712 701.045898438 725 c 0,6,7
 721.606445312 738 721.606445312 738 749.875976562 738 c 256,8,9
 778.146484375 738 778.146484375 738 799.348632812 725 c 0,10,11
 820.55078125 712 820.55078125 712 820.55078125 681 c 0,12,13
 820.55078125 651 820.55078125 651 799.348632812 636.5 c 0,14,15
 778.146484375 622 778.146484375 622 749.875976562 622 c 256,0,1
455.611328125 622 m 256,16,17
 427.340820312 622 427.340820312 622 406.78125 636.5 c 0,18,19
 386.220703125 651 386.220703125 651 386.220703125 681 c 0,20,21
 386.220703125 712 386.220703125 712 406.78125 725 c 0,22,23
 427.340820312 738 427.340820312 738 455.611328125 738 c 256,24,25
 483.880859375 738 483.880859375 738 505.083984375 725 c 0,26,27
 526.286132812 712 526.286132812 712 526.286132812 681 c 0,28,29
 526.286132812 651 526.286132812 651 505.083984375 636.5 c 0,30,31
 483.880859375 622 483.880859375 622 455.611328125 622 c 256,16,17
EndSplineSet
Refer: 68 97 N 1 0 0 1 0 0 3
EndChar

StartChar: uni00AD
Encoding: 173 173 111
Width: 771
Flags: W
AnchorPoint: "Anchor-3" 741.965 536 basechar 0
AnchorPoint: "Anchor-2" 429.71 536 basechar 0
AnchorPoint: "Anchor-1" 410.435 -240 basechar 0
LayerCount: 2
Fore
SplineSet
574.272460938 -240 m 0,0,1
 553.711914062 -240 553.711914062 -240 536.365234375 -238.5 c 0,2,3
 519.017578125 -237 519.017578125 -237 508.737304688 -235 c 1,4,-1
 508.737304688 -180 l 1,5,6
 520.302734375 -182 520.302734375 -182 539.577148438 -183.5 c 0,7,8
 558.852539062 -185 558.852539062 -185 576.842773438 -185 c 0,9,10
 621.817382812 -185 621.817382812 -185 646.875 -175.5 c 0,11,12
 671.932617188 -166 671.932617188 -166 671.932617188 -142 c 0,13,14
 671.932617188 -116 671.932617188 -116 641.734375 -104 c 0,15,16
 611.537109375 -92 611.537109375 -92 554.997070312 -86 c 1,17,-1
 610.251953125 5 l 1,18,-1
 684.782226562 5 l 1,19,-1
 651.372070312 -53 l 1,20,21
 697.631835938 -61 697.631835938 -61 730.399414062 -80.5 c 0,22,23
 763.166992188 -100 763.166992188 -100 763.166992188 -141 c 0,24,25
 763.166992188 -187 763.166992188 -187 715.622070312 -213.5 c 0,26,27
 668.077148438 -240 668.077148438 -240 574.272460938 -240 c 0,0,1
EndSplineSet
Refer: 70 99 N 1 0 0 1 0 0 3
EndChar

StartChar: registered
Encoding: 174 174 112
Width: 771
Flags: W
AnchorPoint: "Anchor-3" 706.643 536 basechar 0
AnchorPoint: "Anchor-2" 385.393 536 basechar 0
AnchorPoint: "Anchor-1" 385.393 -10 basechar 0
LayerCount: 2
Fore
SplineSet
706.642578125 536 m 1,0,-1
 706.642578125 0 l 1,1,-1
 626.97265625 0 l 1,2,-1
 610.267578125 59 l 1,3,-1
 603.842773438 59 l 1,4,5
 587.137695312 33 587.137695312 33 567.862304688 17.5 c 128,-1,6
 548.587890625 2 548.587890625 2 526.099609375 -4 c 128,-1,7
 503.612304688 -10 503.612304688 -10 476.627929688 -10 c 0,8,9
 425.227539062 -10 425.227539062 -10 395.672851562 9.5 c 128,-1,10
 366.1171875 29 366.1171875 29 350.697265625 67 c 1,11,-1
 346.842773438 67 l 1,12,13
 324.997070312 30 324.997070312 30 292.23046875 10 c 128,-1,14
 259.462890625 -10 259.462890625 -10 205.4921875 -10 c 0,15,16
 152.807617188 -10 152.807617188 -10 121.325195312 11 c 128,-1,17
 89.8427734375 32 89.8427734375 32 76.349609375 75.5 c 128,-1,18
 62.857421875 119 62.857421875 119 62.857421875 186 c 2,19,-1
 62.857421875 536 l 1,20,-1
 165.657226562 536 l 1,21,-1
 165.657226562 201 l 2,22,23
 165.657226562 159 165.657226562 159 170.155273438 129.5 c 128,-1,24
 174.65234375 100 174.65234375 100 189.4296875 84 c 128,-1,25
 204.20703125 68 204.20703125 68 235.047851562 68 c 0,26,27
 267.172851562 68 267.172851562 68 288.375 90.5 c 128,-1,28
 309.577148438 113 309.577148438 113 321.142578125 157.5 c 128,-1,29
 332.70703125 202 332.70703125 202 332.70703125 268 c 2,30,-1
 332.70703125 536 l 1,31,-1
 435.5078125 536 l 1,32,-1
 435.5078125 201 l 2,33,34
 435.5078125 159 435.5078125 159 441.932617188 129 c 128,-1,35
 448.357421875 99 448.357421875 99 465.0625 83.5 c 128,-1,36
 481.767578125 68 481.767578125 68 512.607421875 68 c 0,37,38
 547.302734375 68 547.302734375 68 567.219726562 92.5 c 128,-1,39
 587.137695312 117 587.137695312 117 595.490234375 162 c 128,-1,40
 603.842773438 207 603.842773438 207 603.842773438 268 c 2,41,-1
 603.842773438 536 l 1,42,-1
 706.642578125 536 l 1,0,-1
EndSplineSet
EndChar

StartChar: overscore
Encoding: 175 175 113
Width: 771
Flags: W
AnchorPoint: "Anchor-2" 385.25 536 basechar 0
AnchorPoint: "Anchor-1" 385.25 0 basechar 0
LayerCount: 2
Fore
SplineSet
385.25 -10 m 0,0,1
 309.434570312 -10 309.434570312 -10 254.1796875 4.5 c 128,-1,2
 198.924804688 19 198.924804688 19 163.587890625 48.5 c 128,-1,3
 128.25 78 128.25 78 110.90234375 123.5 c 128,-1,4
 93.5546875 169 93.5546875 169 93.5546875 232 c 2,5,-1
 93.5546875 536 l 1,6,-1
 206.634765625 536 l 1,7,-1
 206.634765625 235 l 2,8,9
 206.634765625 138 206.634765625 138 249.682617188 100.5 c 128,-1,10
 292.73046875 63 292.73046875 63 385.25 63 c 256,11,12
 477.76953125 63 477.76953125 63 520.817382812 101.5 c 128,-1,13
 563.865234375 140 563.865234375 140 563.865234375 235 c 2,14,-1
 563.865234375 378 l 2,15,16
 563.865234375 433 563.865234375 433 543.947265625 451.5 c 128,-1,17
 524.030273438 470 524.030273438 470 475.200195312 470 c 0,18,19
 458.495117188 470 458.495117188 470 439.219726562 468 c 128,-1,20
 419.9453125 466 419.9453125 466 401.955078125 461 c 1,21,-1
 401.955078125 536 l 1,22,23
 419.9453125 541 419.9453125 541 443.717773438 543.5 c 128,-1,24
 467.490234375 546 467.490234375 546 482.91015625 546 c 0,25,26
 543.3046875 546 543.3046875 546 586.352539062 532 c 128,-1,27
 629.400390625 518 629.400390625 518 653.172851562 482.5 c 128,-1,28
 676.9453125 447 676.9453125 447 676.9453125 381 c 2,29,-1
 676.9453125 232 l 2,30,31
 676.9453125 172 676.9453125 172 658.955078125 126.5 c 128,-1,32
 640.96484375 81 640.96484375 81 604.985351562 50.5 c 128,-1,33
 569.004882812 20 569.004882812 20 514.392578125 5 c 128,-1,34
 459.780273438 -10 459.780273438 -10 385.25 -10 c 0,0,1
EndSplineSet
EndChar

StartChar: degree
Encoding: 176 176 114
Width: 771
Flags: W
AnchorPoint: "Anchor-4" 385.25 357 basechar 0
AnchorPoint: "Anchor-3" 770.75 714 basechar 0
AnchorPoint: "Anchor-2" 385.25 726 basechar 0
AnchorPoint: "Anchor-1" 385.25 0 basechar 0
AnchorPoint: "Anchor-0" 383.965 10 basechar 0
LayerCount: 2
Fore
SplineSet
383.96484375 -10 m 256,0,1
 297.870117188 -10 297.870117188 -10 236.190429688 16.5 c 0,2,3
 174.509765625 43 174.509765625 43 134.674804688 91.5 c 0,4,5
 94.83984375 140 94.83984375 140 76.20703125 207.5 c 0,6,7
 57.5751953125 275 57.5751953125 275 57.5751953125 357 c 0,8,9
 57.5751953125 467 57.5751953125 467 91.6279296875 550 c 0,10,11
 125.6796875 633 125.6796875 633 198.282226562 679.5 c 0,12,13
 270.884765625 726 270.884765625 726 385.25 726 c 0,14,15
 471.344726562 726 471.344726562 726 533.025390625 700 c 0,16,17
 594.705078125 674 594.705078125 674 634.540039062 625 c 0,18,19
 674.375 576 674.375 576 693.650390625 509 c 0,20,21
 712.924804688 442 712.924804688 442 712.924804688 359 c 256,22,23
 712.924804688 276 712.924804688 276 693.650390625 208 c 0,24,25
 674.375 140 674.375 140 634.540039062 91.5 c 0,26,27
 594.705078125 43 594.705078125 43 532.3828125 16.5 c 0,28,29
 470.059570312 -10 470.059570312 -10 383.96484375 -10 c 256,0,1
386.53515625 70 m 256,30,31
 463.634765625 70 463.634765625 70 509.252929688 104.5 c 0,32,33
 554.870117188 139 554.870117188 139 574.787109375 203.5 c 0,34,35
 594.705078125 268 594.705078125 268 594.705078125 358 c 0,36,37
 594.705078125 494 594.705078125 494 548.4453125 570 c 0,38,39
 502.184570312 646 502.184570312 646 387.8203125 646 c 0,40,41
 310.719726562 646 310.719726562 646 263.817382812 611.5 c 0,42,43
 216.915039062 577 216.915039062 577 196.35546875 512.5 c 0,44,45
 175.794921875 448 175.794921875 448 175.794921875 358 c 256,46,47
 175.794921875 268 175.794921875 268 196.35546875 203.5 c 0,48,49
 216.915039062 139 216.915039062 139 263.174804688 104.5 c 0,50,51
 309.434570312 70 309.434570312 70 386.53515625 70 c 256,30,31
EndSplineSet
Refer: 17 46 S 1 0 0 1 0 300 2
EndChar

StartChar: plusminus
Encoding: 177 177 115
Width: 771
Flags: W
LayerCount: 2
Fore
SplineSet
102.549804688 317 m 1,0,-1
 102.549804688 388 l 1,1,-1
 667.950195312 388 l 1,2,-1
 667.950195312 317 l 1,3,-1
 102.549804688 317 l 1,0,-1
383.96484375 121 m 256,4,5
 354.41015625 121 354.41015625 121 333.20703125 135.5 c 128,-1,6
 312.004882812 150 312.004882812 150 312.004882812 182 c 0,7,8
 312.004882812 216 312.004882812 216 333.20703125 229 c 128,-1,9
 354.41015625 242 354.41015625 242 383.96484375 242 c 256,10,11
 413.51953125 242 413.51953125 242 434.080078125 229 c 128,-1,12
 454.639648438 216 454.639648438 216 454.639648438 182 c 0,13,14
 454.639648438 150 454.639648438 150 434.080078125 135.5 c 128,-1,15
 413.51953125 121 413.51953125 121 383.96484375 121 c 256,4,5
383.96484375 462 m 256,16,17
 354.41015625 462 354.41015625 462 333.20703125 476.5 c 128,-1,18
 312.004882812 491 312.004882812 491 312.004882812 523 c 0,19,20
 312.004882812 557 312.004882812 557 333.20703125 570 c 128,-1,21
 354.41015625 583 354.41015625 583 383.96484375 583 c 256,22,23
 413.51953125 583 413.51953125 583 434.080078125 570 c 128,-1,24
 454.639648438 557 454.639648438 557 454.639648438 523 c 0,25,26
 454.639648438 491 454.639648438 491 434.080078125 476.5 c 128,-1,27
 413.51953125 462 413.51953125 462 383.96484375 462 c 256,16,17
EndSplineSet
EndChar

StartChar: uni00B2
Encoding: 178 178 116
Width: 771
Flags: W
AnchorPoint: "Anchor-2" 384.965 714 basechar 0
AnchorPoint: "Anchor-1" 384.965 0 basechar 0
LayerCount: 2
Fore
SplineSet
423.514648438 -10 m 0,0,1
 307.865234375 -10 307.865234375 -10 228.1953125 15 c 128,-1,2
 148.525390625 40 148.525390625 40 108.047851562 86.5 c 128,-1,3
 67.5703125 133 67.5703125 133 67.5703125 195 c 0,4,5
 67.5703125 269 67.5703125 269 132.462890625 315.5 c 128,-1,6
 197.35546875 362 197.35546875 362 314.290039062 372 c 1,7,-1
 314.290039062 376 l 1,8,9
 247.469726562 384 247.469726562 384 197.997070312 405 c 128,-1,10
 148.525390625 426 148.525390625 426 122.182617188 461 c 128,-1,11
 95.83984375 496 95.83984375 496 95.83984375 545 c 0,12,13
 95.83984375 597 95.83984375 597 131.8203125 637.5 c 128,-1,14
 167.799804688 678 167.799804688 678 237.190429688 701 c 128,-1,15
 306.580078125 724 306.580078125 724 406.809570312 724 c 0,16,17
 504.469726562 724 504.469726562 724 575.787109375 704.5 c 128,-1,18
 647.10546875 685 647.10546875 685 704.9296875 654 c 1,19,-1
 643.25 590 l 1,20,21
 590.565429688 616 590.565429688 616 534.66796875 632 c 128,-1,22
 478.76953125 648 478.76953125 648 399.099609375 648 c 0,23,24
 313.004882812 648 313.004882812 648 263.532226562 619.5 c 128,-1,25
 214.059570312 591 214.059570312 591 214.059570312 536 c 0,26,27
 214.059570312 496 214.059570312 496 242.97265625 467 c 128,-1,28
 271.884765625 438 271.884765625 438 329.709960938 422.5 c 128,-1,29
 387.53515625 407 387.53515625 407 473.629882812 407 c 2,30,-1
 603.415039062 407 l 1,31,-1
 603.415039062 333 l 1,32,-1
 474.915039062 333 l 2,33,34
 341.275390625 333 341.275390625 333 264.817382812 300.5 c 128,-1,35
 188.360351562 268 188.360351562 268 188.360351562 200 c 0,36,37
 188.360351562 133 188.360351562 133 251.325195312 99.5 c 128,-1,38
 314.290039062 66 314.290039062 66 427.370117188 66 c 0,39,40
 480.0546875 66 480.0546875 66 527.599609375 71.5 c 128,-1,41
 575.14453125 77 575.14453125 77 618.834960938 87 c 128,-1,42
 662.525390625 97 662.525390625 97 701.075195312 111 c 1,43,-1
 701.075195312 28 l 1,44,45
 644.53515625 9 644.53515625 9 575.787109375 -0.5 c 128,-1,46
 507.040039062 -10 507.040039062 -10 423.514648438 -10 c 0,0,1
EndSplineSet
EndChar

StartChar: uni00B3
Encoding: 179 179 117
Width: 771
Flags: W
AnchorPoint: "Anchor-2" 409.525 536 basechar 0
AnchorPoint: "Anchor-1" 428.8 0 basechar 0
LayerCount: 2
Fore
SplineSet
418.51953125 -10 m 0,0,1
 270.745117188 -10 270.745117188 -10 200.0703125 34.5 c 128,-1,2
 129.39453125 79 129.39453125 79 129.39453125 146 c 0,3,4
 129.39453125 186 129.39453125 186 150.59765625 211.5 c 128,-1,5
 171.799804688 237 171.799804688 237 206.495117188 252.5 c 128,-1,6
 241.190429688 268 241.190429688 268 282.309570312 277 c 1,7,-1
 282.309570312 282 l 1,8,9
 243.759765625 291 243.759765625 291 214.84765625 307 c 128,-1,10
 185.934570312 323 185.934570312 323 169.872070312 347.5 c 128,-1,11
 153.809570312 372 153.809570312 372 153.809570312 404 c 0,12,13
 153.809570312 449 153.809570312 449 187.862304688 481 c 128,-1,14
 221.915039062 513 221.915039062 513 281.66796875 529.5 c 128,-1,15
 341.419921875 546 341.419921875 546 418.51953125 546 c 0,16,17
 493.049804688 546 493.049804688 546 546.377929688 536 c 128,-1,18
 599.705078125 526 599.705078125 526 651.10546875 508 c 1,19,-1
 608.700195312 438 l 1,20,21
 566.294921875 453 566.294921875 453 521.962890625 463 c 128,-1,22
 477.629882812 473 477.629882812 473 417.235351562 473 c 0,23,24
 340.134765625 473 340.134765625 473 300.942382812 454 c 128,-1,25
 261.75 435 261.75 435 261.75 397 c 0,26,27
 261.75 353 261.75 353 315.077148438 334 c 128,-1,28
 368.405273438 315 368.405273438 315 458.35546875 315 c 2,29,-1
 530.315429688 315 l 1,30,-1
 530.315429688 243 l 1,31,-1
 436.509765625 243 l 2,32,33
 338.849609375 243 338.849609375 243 290.662109375 220 c 128,-1,34
 242.474609375 197 242.474609375 197 242.474609375 151 c 0,35,36
 242.474609375 118 242.474609375 118 266.889648438 98.5 c 128,-1,37
 291.3046875 79 291.3046875 79 332.424804688 70.5 c 128,-1,38
 373.544921875 62 373.544921875 62 424.9453125 62 c 0,39,40
 496.905273438 62 496.905273438 62 551.517578125 75 c 128,-1,41
 606.129882812 88 606.129882812 88 648.53515625 104 c 1,42,-1
 648.53515625 27 l 1,43,44
 608.700195312 11 608.700195312 11 553.4453125 0.5 c 128,-1,45
 498.190429688 -10 498.190429688 -10 418.51953125 -10 c 0,0,1
EndSplineSet
EndChar

StartChar: acute
Encoding: 180 180 118
Width: 771
Flags: W
AnchorPoint: "Anchor-2" 290.75 714 basechar 0
AnchorPoint: "Anchor-1" 414.11 0 basechar 0
LayerCount: 2
Fore
SplineSet
461.655273438 -10 m 0,0,1
 394.834960938 -10 394.834960938 -10 343.434570312 7 c 128,-1,2
 292.03515625 24 292.03515625 24 263.122070312 64.5 c 128,-1,3
 234.209960938 105 234.209960938 105 234.209960938 177 c 2,4,-1
 234.209960938 714 l 1,5,-1
 348.575195312 714 l 1,6,-1
 348.575195312 185 l 2,7,8
 348.575195312 146 348.575195312 146 362.067382812 120 c 128,-1,9
 375.559570312 94 375.559570312 94 404.47265625 81.5 c 128,-1,10
 433.384765625 69 433.384765625 69 479.64453125 69 c 0,11,12
 498.919921875 69 498.919921875 69 523.334960938 70.5 c 128,-1,13
 547.75 72 547.75 72 570.879882812 75 c 128,-1,14
 594.009765625 78 594.009765625 78 604.290039062 80 c 1,15,-1
 604.290039062 6 l 1,16,17
 586.299804688 -1 586.299804688 -1 544.537109375 -5.5 c 128,-1,18
 502.775390625 -10 502.775390625 -10 461.655273438 -10 c 0,0,1
EndSplineSet
EndChar

StartChar: uni00B5
Encoding: 181 181 119
Width: 771
GlyphClass: 2
Flags: W
AnchorPoint: "Anchor-2" 363.02 536 basechar 0
AnchorPoint: "Anchor-1" 485.095 0 basechar 0
LayerCount: 2
Fore
SplineSet
500.514648438 -10 m 0,0,1
 443.974609375 -10 443.974609375 -10 399.642578125 4.5 c 128,-1,2
 355.309570312 19 355.309570312 19 330.252929688 55.5 c 128,-1,3
 305.1953125 92 305.1953125 92 305.1953125 157 c 2,4,-1
 305.1953125 536 l 1,5,-1
 416.990234375 536 l 1,6,-1
 416.990234375 158 l 2,7,8
 416.990234375 126 416.990234375 126 427.26953125 104.5 c 128,-1,9
 437.549804688 83 437.549804688 83 459.39453125 72.5 c 128,-1,10
 481.240234375 62 481.240234375 62 515.934570312 62 c 0,11,12
 544.205078125 62 544.205078125 62 574.40234375 65.5 c 128,-1,13
 604.599609375 69 604.599609375 69 621.3046875 73 c 1,14,-1
 621.3046875 6 l 1,15,16
 603.315429688 -1 603.315429688 -1 568.620117188 -5.5 c 128,-1,17
 533.924804688 -10 533.924804688 -10 500.514648438 -10 c 0,0,1
EndSplineSet
EndChar

StartChar: paragraph
Encoding: 182 182 120
Width: 771
Flags: W
AnchorPoint: "Anchor-4" 385.25 357 basechar 0
AnchorPoint: "Anchor-3" 770.75 714 basechar 0
AnchorPoint: "Anchor-2" 385.25 726 basechar 0
AnchorPoint: "Anchor-1" 385.25 0 basechar 0
AnchorPoint: "Anchor-0" 383.965 10 basechar 0
LayerCount: 2
Fore
SplineSet
116.684570312 321 m 1,0,-1
 116.684570312 399 l 1,1,-1
 653.815429688 399 l 1,2,-1
 653.815429688 321 l 1,3,-1
 116.684570312 321 l 1,0,-1
383.96484375 -10 m 256,4,5
 297.870117188 -10 297.870117188 -10 236.190429688 16.5 c 128,-1,6
 174.509765625 43 174.509765625 43 134.674804688 91.5 c 128,-1,7
 94.83984375 140 94.83984375 140 76.20703125 207.5 c 128,-1,8
 57.5751953125 275 57.5751953125 275 57.5751953125 357 c 0,9,10
 57.5751953125 467 57.5751953125 467 91.6279296875 550 c 128,-1,11
 125.6796875 633 125.6796875 633 198.282226562 679.5 c 128,-1,12
 270.884765625 726 270.884765625 726 385.25 726 c 0,13,14
 471.344726562 726 471.344726562 726 533.025390625 700 c 128,-1,15
 594.705078125 674 594.705078125 674 634.540039062 625 c 128,-1,16
 674.375 576 674.375 576 693.650390625 509 c 128,-1,17
 712.924804688 442 712.924804688 442 712.924804688 359 c 256,18,19
 712.924804688 276 712.924804688 276 693.650390625 208 c 128,-1,20
 674.375 140 674.375 140 634.540039062 91.5 c 128,-1,21
 594.705078125 43 594.705078125 43 532.3828125 16.5 c 128,-1,22
 470.059570312 -10 470.059570312 -10 383.96484375 -10 c 256,4,5
386.53515625 70 m 256,23,24
 463.634765625 70 463.634765625 70 509.252929688 104.5 c 128,-1,25
 554.870117188 139 554.870117188 139 574.787109375 203.5 c 128,-1,26
 594.705078125 268 594.705078125 268 594.705078125 358 c 0,27,28
 594.705078125 494 594.705078125 494 548.4453125 570 c 128,-1,29
 502.184570312 646 502.184570312 646 387.8203125 646 c 0,30,31
 310.719726562 646 310.719726562 646 263.817382812 611.5 c 128,-1,32
 216.915039062 577 216.915039062 577 196.35546875 512.5 c 128,-1,33
 175.794921875 448 175.794921875 448 175.794921875 358 c 256,34,35
 175.794921875 268 175.794921875 268 196.35546875 203.5 c 128,-1,36
 216.915039062 139 216.915039062 139 263.174804688 104.5 c 128,-1,37
 309.434570312 70 309.434570312 70 386.53515625 70 c 256,23,24
EndSplineSet
EndChar

StartChar: periodcentered
Encoding: 183 183 121
Width: 771
Flags: W
AnchorPoint: "Anchor-4" 385.25 357 basechar 0
AnchorPoint: "Anchor-2" 385.25 714 basechar 0
AnchorPoint: "Anchor-1" 385.25 0 basechar 0
LayerCount: 2
Fore
SplineSet
121.825195312 0 m 1,0,-1
 121.825195312 74 l 1,1,-1
 383.96484375 373 l 1,2,-1
 129.53515625 639 l 1,3,-1
 129.53515625 714 l 1,4,-1
 611.41015625 714 l 1,5,-1
 611.41015625 634 l 1,6,-1
 347.985351562 634 l 2,7,8
 331.280273438 634 331.280273438 634 302.3671875 634 c 128,-1,9
 273.455078125 634 273.455078125 634 261.889648438 635 c 1,10,-1
 512.46484375 374 l 1,11,-1
 249.040039062 78 l 1,12,13
 282.450195312 78 282.450195312 78 314.575195312 78.5 c 128,-1,14
 346.700195312 79 346.700195312 79 381.39453125 79 c 2,15,-1
 648.674804688 79 l 1,16,-1
 648.674804688 0 l 1,17,-1
 121.825195312 0 l 1,0,-1
EndSplineSet
EndChar

StartChar: cedilla
Encoding: 184 184 122
Width: 771
Flags: W
AnchorPoint: "Anchor-3" 745.05 536 basechar 0
AnchorPoint: "Anchor-2" 385.25 536 basechar 0
AnchorPoint: "Anchor-1" 385.25 0 basechar 0
LayerCount: 2
Fore
SplineSet
165.514648438 243 m 1,0,-1
 165.514648438 313 l 1,1,-1
 624.259765625 313 l 1,2,-1
 624.259765625 243 l 1,3,-1
 165.514648438 243 l 1,0,-1
115.400390625 0 m 1,4,-1
 115.400390625 61 l 1,5,-1
 520.174804688 467 l 1,6,-1
 135.959960938 467 l 1,7,-1
 135.959960938 536 l 1,8,-1
 644.8203125 536 l 1,9,-1
 644.8203125 465 l 1,10,-1
 252.89453125 76 l 1,11,-1
 655.099609375 76 l 1,12,-1
 655.099609375 0 l 1,13,-1
 115.400390625 0 l 1,4,-1
EndSplineSet
EndChar

StartChar: uni00B9
Encoding: 185 185 123
Width: 771
Flags: W
AnchorPoint: "Anchor-4" 385.25 357 basechar 0
AnchorPoint: "Anchor-3" 770.75 714 basechar 0
AnchorPoint: "Anchor-2" 385.25 714 basechar 0
AnchorPoint: "Anchor-1" 385.25 0 basechar 0
AnchorPoint: "Anchor-0" 383.965 10 basechar 0
LayerCount: 2
Fore
SplineSet
255.46484375 324 m 1,0,-1
 255.46484375 402 l 1,1,-1
 515.03515625 402 l 1,2,-1
 515.03515625 324 l 1,3,-1
 255.46484375 324 l 1,0,-1
383.96484375 -10 m 256,4,5
 297.870117188 -10 297.870117188 -10 236.190429688 16.5 c 128,-1,6
 174.509765625 43 174.509765625 43 134.674804688 91.5 c 128,-1,7
 94.83984375 140 94.83984375 140 76.20703125 207.5 c 128,-1,8
 57.5751953125 275 57.5751953125 275 57.5751953125 357 c 0,9,10
 57.5751953125 467 57.5751953125 467 91.6279296875 550 c 128,-1,11
 125.6796875 633 125.6796875 633 198.282226562 679.5 c 128,-1,12
 270.884765625 726 270.884765625 726 385.25 726 c 0,13,14
 471.344726562 726 471.344726562 726 533.025390625 700 c 128,-1,15
 594.705078125 674 594.705078125 674 634.540039062 625 c 128,-1,16
 674.375 576 674.375 576 693.650390625 509 c 128,-1,17
 712.924804688 442 712.924804688 442 712.924804688 359 c 256,18,19
 712.924804688 276 712.924804688 276 693.650390625 208 c 128,-1,20
 674.375 140 674.375 140 634.540039062 91.5 c 128,-1,21
 594.705078125 43 594.705078125 43 532.3828125 16.5 c 128,-1,22
 470.059570312 -10 470.059570312 -10 383.96484375 -10 c 256,4,5
386.53515625 70 m 256,23,24
 463.634765625 70 463.634765625 70 509.252929688 104.5 c 128,-1,25
 554.870117188 139 554.870117188 139 574.787109375 203.5 c 128,-1,26
 594.705078125 268 594.705078125 268 594.705078125 358 c 0,27,28
 594.705078125 494 594.705078125 494 548.4453125 570 c 128,-1,29
 502.184570312 646 502.184570312 646 387.8203125 646 c 0,30,31
 310.719726562 646 310.719726562 646 263.817382812 611.5 c 128,-1,32
 216.915039062 577 216.915039062 577 196.35546875 512.5 c 128,-1,33
 175.794921875 448 175.794921875 448 175.794921875 358 c 256,34,35
 175.794921875 268 175.794921875 268 196.35546875 203.5 c 128,-1,36
 216.915039062 139 216.915039062 139 263.174804688 104.5 c 128,-1,37
 309.434570312 70 309.434570312 70 386.53515625 70 c 256,23,24
EndSplineSet
EndChar

StartChar: ordmasculine
Encoding: 186 186 124
Width: 771
GlyphClass: 2
Flags: W
LayerCount: 2
Fore
SplineSet
178.5078125 0 m 1,0,-1
 178.5078125 536 l 1,1,-1
 590.9921875 536 l 1,2,-1
 590.9921875 464 l 1,3,-1
 292.872070312 464 l 1,4,-1
 292.872070312 315 l 1,5,-1
 573.002929688 315 l 1,6,-1
 573.002929688 244 l 1,7,-1
 292.872070312 244 l 1,8,-1
 292.872070312 0 l 1,9,-1
 178.5078125 0 l 1,0,-1
EndSplineSet
EndChar

StartChar: guillemotright
Encoding: 187 187 125
Width: 771
Flags: W
AnchorPoint: "Anchor-2" 391.675 536 basechar 0
AnchorPoint: "Anchor-1" 391.675 0 basechar 0
LayerCount: 2
Fore
SplineSet
358.264648438 -10 m 0,0,1
 294.014648438 -10 294.014648438 -10 235.547851562 -1 c 128,-1,2
 177.080078125 8 177.080078125 8 134.674804688 24 c 1,3,-1
 134.674804688 107 l 1,4,5
 179.650390625 91 179.650390625 91 234.262695312 77.5 c 128,-1,6
 288.875 64 288.875 64 364.690429688 64 c 0,7,8
 449.5 64 449.5 64 484.837890625 84.5 c 128,-1,9
 520.174804688 105 520.174804688 105 520.174804688 144 c 0,10,11
 520.174804688 165 520.174804688 165 507.967773438 178.5 c 128,-1,12
 495.759765625 192 495.759765625 192 461.065429688 206 c 128,-1,13
 426.370117188 220 426.370117188 220 359.549804688 242 c 0,14,15
 292.73046875 265 292.73046875 265 245.184570312 285 c 128,-1,16
 197.639648438 305 197.639648438 305 171.940429688 332.5 c 128,-1,17
 146.240234375 360 146.240234375 360 146.240234375 403 c 0,18,19
 146.240234375 474 146.240234375 474 216.272460938 510 c 128,-1,20
 286.3046875 546 286.3046875 546 410.950195312 546 c 0,21,22
 467.490234375 546 467.490234375 546 518.889648438 538 c 128,-1,23
 570.290039062 530 570.290039062 530 625.544921875 512 c 1,24,-1
 590.849609375 442 l 1,25,26
 539.450195312 459 539.450195312 459 496.40234375 465 c 128,-1,27
 453.35546875 471 453.35546875 471 410.950195312 471 c 0,28,29
 331.280273438 471 331.280273438 471 294.657226562 455 c 128,-1,30
 258.03515625 439 258.03515625 439 258.03515625 405 c 0,31,32
 258.03515625 383 258.03515625 383 274.09765625 368 c 128,-1,33
 290.16015625 353 290.16015625 353 326.782226562 339 c 128,-1,34
 363.405273438 325 363.405273438 325 423.799804688 305 c 0,35,36
 491.905273438 283 491.905273438 283 539.450195312 264 c 128,-1,37
 586.995117188 245 586.995117188 245 611.41015625 218.5 c 128,-1,38
 635.825195312 192 635.825195312 192 635.825195312 146 c 0,39,40
 635.825195312 95 635.825195312 95 604.342773438 60.5 c 128,-1,41
 572.860351562 26 572.860351562 26 511.1796875 8 c 128,-1,42
 449.5 -10 449.5 -10 358.264648438 -10 c 0,0,1
EndSplineSet
EndChar

StartChar: onequarter
Encoding: 188 188 126
Width: 771
Flags: W
LayerCount: 2
Fore
SplineSet
455.924804688 -10 m 0,0,1
 329.995117188 -10 329.995117188 -10 242.615234375 32.5 c 128,-1,2
 155.235351562 75 155.235351562 75 110.259765625 152 c 128,-1,3
 65.28515625 229 65.28515625 229 65.28515625 332 c 0,4,5
 65.28515625 401 65.28515625 401 90.3427734375 456 c 128,-1,6
 115.400390625 511 115.400390625 511 158.447265625 553 c 128,-1,7
 201.495117188 595 201.495117188 595 258.03515625 623 c 128,-1,8
 314.575195312 651 314.575195312 651 378.182617188 665 c 128,-1,9
 441.790039062 679 441.790039062 679 507.325195312 679 c 1,10,-1
 543.3046875 636 l 1,11,12
 461.065429688 636 461.065429688 636 394.245117188 614 c 128,-1,13
 327.424804688 592 327.424804688 592 279.879882812 552 c 128,-1,14
 232.334960938 512 232.334960938 512 206.634765625 457.5 c 128,-1,15
 180.934570312 403 180.934570312 403 180.934570312 337 c 0,16,17
 180.934570312 253 180.934570312 253 213.702148438 192.5 c 128,-1,18
 246.469726562 132 246.469726562 132 311.362304688 100 c 128,-1,19
 376.254882812 68 376.254882812 68 471.344726562 68 c 0,20,21
 507.325195312 68 507.325195312 68 542.662109375 71.5 c 128,-1,22
 578 75 578 75 612.6953125 81.5 c 128,-1,23
 647.389648438 88 647.389648438 88 680.799804688 97 c 1,24,-1
 680.799804688 20 l 1,25,26
 631.969726562 5 631.969726562 5 577.357421875 -2.5 c 128,-1,27
 522.745117188 -10 522.745117188 -10 455.924804688 -10 c 0,0,1
57.5751953125 636 m 1,28,-1
 57.5751953125 714 l 1,29,-1
 712.924804688 714 l 1,30,-1
 712.924804688 636 l 1,31,-1
 57.5751953125 636 l 1,28,-1
EndSplineSet
EndChar

StartChar: onehalf
Encoding: 189 189 127
Width: 771
Flags: W
AnchorPoint: "Anchor-2" 385.25 536 basechar 0
AnchorPoint: "Anchor-1" 385.25 0 basechar 0
LayerCount: 2
Fore
SplineSet
458.495117188 -10 m 0,0,1
 355.6953125 -10 355.6953125 -10 283.735351562 20 c 128,-1,2
 211.775390625 50 211.775390625 50 173.8671875 107.5 c 128,-1,3
 135.959960938 165 135.959960938 165 135.959960938 245 c 0,4,5
 135.959960938 328 135.959960938 328 175.794921875 384 c 128,-1,6
 215.629882812 440 215.629882812 440 290.802734375 468.5 c 128,-1,7
 365.974609375 497 365.974609375 497 470.059570312 497 c 1,8,-1
 515.03515625 465 l 1,9,10
 434.080078125 465 434.080078125 465 375.612304688 441 c 128,-1,11
 317.14453125 417 317.14453125 417 285.662109375 370 c 128,-1,12
 254.1796875 323 254.1796875 323 254.1796875 252 c 0,13,14
 254.1796875 194 254.1796875 194 279.237304688 152 c 128,-1,15
 304.294921875 110 304.294921875 110 352.482421875 87 c 128,-1,16
 400.669921875 64 400.669921875 64 470.059570312 64 c 0,17,18
 517.60546875 64 517.60546875 64 561.294921875 73.5 c 128,-1,19
 604.985351562 83 604.985351562 83 647.389648438 99 c 1,20,-1
 647.389648438 21 l 1,21,22
 615.264648438 8 615.264648438 8 561.9375 -1 c 128,-1,23
 508.610351562 -10 508.610351562 -10 458.495117188 -10 c 0,0,1
108.974609375 465 m 1,24,-1
 108.974609375 537 l 1,25,-1
 661.525390625 537 l 1,26,-1
 661.525390625 465 l 1,27,-1
 108.974609375 465 l 1,24,-1
EndSplineSet
EndChar

StartChar: threequarters
Encoding: 190 190 128
Width: 771
Flags: W
LayerCount: 2
Fore
SplineSet
178.5078125 0 m 1,0,-1
 178.5078125 536 l 1,1,-1
 590.9921875 536 l 1,2,-1
 590.9921875 464 l 1,3,-1
 292.872070312 464 l 1,4,-1
 292.872070312 315 l 1,5,-1
 573.002929688 315 l 1,6,-1
 573.002929688 244 l 1,7,-1
 292.872070312 244 l 1,8,-1
 292.872070312 0 l 1,9,-1
 178.5078125 0 l 1,0,-1
EndSplineSet
EndChar

StartChar: questiondown
Encoding: 191 191 129
Width: 771
Flags: W
AnchorPoint: "Anchor-2" 391.675 536 basechar 0
AnchorPoint: "Anchor-1" 391.675 0 basechar 0
LayerCount: 2
Fore
SplineSet
358.264648438 -10 m 0,0,1
 294.014648438 -10 294.014648438 -10 235.547851562 -1 c 128,-1,2
 177.080078125 8 177.080078125 8 134.674804688 24 c 1,3,-1
 134.674804688 107 l 1,4,5
 179.650390625 91 179.650390625 91 234.262695312 77.5 c 128,-1,6
 288.875 64 288.875 64 364.690429688 64 c 0,7,8
 449.5 64 449.5 64 484.837890625 84.5 c 128,-1,9
 520.174804688 105 520.174804688 105 520.174804688 144 c 0,10,11
 520.174804688 165 520.174804688 165 507.967773438 178.5 c 128,-1,12
 495.759765625 192 495.759765625 192 461.065429688 206 c 128,-1,13
 426.370117188 220 426.370117188 220 359.549804688 242 c 0,14,15
 292.73046875 265 292.73046875 265 245.184570312 285 c 128,-1,16
 197.639648438 305 197.639648438 305 171.940429688 332.5 c 128,-1,17
 146.240234375 360 146.240234375 360 146.240234375 403 c 0,18,19
 146.240234375 474 146.240234375 474 216.272460938 510 c 128,-1,20
 286.3046875 546 286.3046875 546 410.950195312 546 c 0,21,22
 467.490234375 546 467.490234375 546 518.889648438 538 c 128,-1,23
 570.290039062 530 570.290039062 530 625.544921875 512 c 1,24,-1
 590.849609375 442 l 1,25,26
 539.450195312 459 539.450195312 459 496.40234375 465 c 128,-1,27
 453.35546875 471 453.35546875 471 410.950195312 471 c 0,28,29
 331.280273438 471 331.280273438 471 294.657226562 455 c 128,-1,30
 258.03515625 439 258.03515625 439 258.03515625 405 c 0,31,32
 258.03515625 383 258.03515625 383 274.09765625 368 c 128,-1,33
 290.16015625 353 290.16015625 353 326.782226562 339 c 128,-1,34
 363.405273438 325 363.405273438 325 423.799804688 305 c 0,35,36
 491.905273438 283 491.905273438 283 539.450195312 264 c 128,-1,37
 586.995117188 245 586.995117188 245 611.41015625 218.5 c 128,-1,38
 635.825195312 192 635.825195312 192 635.825195312 146 c 0,39,40
 635.825195312 95 635.825195312 95 604.342773438 60.5 c 128,-1,41
 572.860351562 26 572.860351562 26 511.1796875 8 c 128,-1,42
 449.5 -10 449.5 -10 358.264648438 -10 c 0,0,1
EndSplineSet
Substitution2: "'smcp' Lowercase to Small Capitals lookup 35 subtable" questiondown.sc
Substitution2: "'c2sc' Capitals to Small Capitals lookup 34 subtable" questiondown.sc
Substitution2: "'aalt' Access All Alternates lookup 0 subtable" questiondown.sc
EndChar

StartChar: Agrave
Encoding: 192 192 130
Width: 771
GlyphClass: 2
Flags: W
LayerCount: 2
Fore
SplineSet
455.924804688 -10 m 0,0,1
 329.995117188 -10 329.995117188 -10 242.615234375 32.5 c 128,-1,2
 155.235351562 75 155.235351562 75 110.259765625 152 c 128,-1,3
 65.28515625 229 65.28515625 229 65.28515625 332 c 0,4,5
 65.28515625 401 65.28515625 401 90.3427734375 456 c 128,-1,6
 115.400390625 511 115.400390625 511 158.447265625 553 c 128,-1,7
 201.495117188 595 201.495117188 595 258.03515625 623 c 128,-1,8
 314.575195312 651 314.575195312 651 378.182617188 665 c 128,-1,9
 441.790039062 679 441.790039062 679 507.325195312 679 c 1,10,-1
 543.3046875 636 l 1,11,12
 461.065429688 636 461.065429688 636 394.245117188 614 c 128,-1,13
 327.424804688 592 327.424804688 592 279.879882812 552 c 128,-1,14
 232.334960938 512 232.334960938 512 206.634765625 457.5 c 128,-1,15
 180.934570312 403 180.934570312 403 180.934570312 337 c 0,16,17
 180.934570312 253 180.934570312 253 213.702148438 192.5 c 128,-1,18
 246.469726562 132 246.469726562 132 311.362304688 100 c 128,-1,19
 376.254882812 68 376.254882812 68 471.344726562 68 c 0,20,21
 507.325195312 68 507.325195312 68 542.662109375 71.5 c 128,-1,22
 578 75 578 75 612.6953125 81.5 c 128,-1,23
 647.389648438 88 647.389648438 88 680.799804688 97 c 1,24,-1
 680.799804688 20 l 1,25,26
 631.969726562 5 631.969726562 5 577.357421875 -2.5 c 128,-1,27
 522.745117188 -10 522.745117188 -10 455.924804688 -10 c 0,0,1
57.5751953125 636 m 1,28,-1
 57.5751953125 714 l 1,29,-1
 712.924804688 714 l 1,30,-1
 712.924804688 636 l 1,31,-1
 57.5751953125 636 l 1,28,-1
EndSplineSet
Substitution2: "'c2sc' Capitals to Small Capitals lookup 34 subtable" agrave.sc
Substitution2: "'aalt' Access All Alternates lookup 0 subtable" agrave.sc
EndChar

StartChar: Aacute
Encoding: 193 193 131
Width: 771
GlyphClass: 2
Flags: W
AnchorPoint: "Anchor-2" 385.25 536 basechar 0
AnchorPoint: "Anchor-1" 385.25 0 basechar 0
LayerCount: 2
Fore
SplineSet
458.495117188 -10 m 0,0,1
 355.6953125 -10 355.6953125 -10 283.735351562 20 c 128,-1,2
 211.775390625 50 211.775390625 50 173.8671875 107.5 c 128,-1,3
 135.959960938 165 135.959960938 165 135.959960938 245 c 0,4,5
 135.959960938 328 135.959960938 328 175.794921875 384 c 128,-1,6
 215.629882812 440 215.629882812 440 290.802734375 468.5 c 128,-1,7
 365.974609375 497 365.974609375 497 470.059570312 497 c 1,8,-1
 515.03515625 465 l 1,9,10
 434.080078125 465 434.080078125 465 375.612304688 441 c 128,-1,11
 317.14453125 417 317.14453125 417 285.662109375 370 c 128,-1,12
 254.1796875 323 254.1796875 323 254.1796875 252 c 0,13,14
 254.1796875 194 254.1796875 194 279.237304688 152 c 128,-1,15
 304.294921875 110 304.294921875 110 352.482421875 87 c 128,-1,16
 400.669921875 64 400.669921875 64 470.059570312 64 c 0,17,18
 517.60546875 64 517.60546875 64 561.294921875 73.5 c 128,-1,19
 604.985351562 83 604.985351562 83 647.389648438 99 c 1,20,-1
 647.389648438 21 l 1,21,22
 615.264648438 8 615.264648438 8 561.9375 -1 c 128,-1,23
 508.610351562 -10 508.610351562 -10 458.495117188 -10 c 0,0,1
108.974609375 465 m 1,24,-1
 108.974609375 537 l 1,25,-1
 661.525390625 537 l 1,26,-1
 661.525390625 465 l 1,27,-1
 108.974609375 465 l 1,24,-1
EndSplineSet
Substitution2: "'c2sc' Capitals to Small Capitals lookup 34 subtable" aacute.sc
Substitution2: "'aalt' Access All Alternates lookup 0 subtable" aacute.sc
EndChar

StartChar: Acircumflex
Encoding: 194 194 132
Width: 771
GlyphClass: 2
Flags: W
AnchorPoint: "Anchor-2" 378.695 572 basechar 0
AnchorPoint: "Anchor-1" 378.695 0 basechar 0
LayerCount: 2
Fore
SplineSet
165.384765625 0 m 1,0,-1
 165.384765625 572 l 1,1,-1
 277.1796875 572 l 1,2,-1
 277.1796875 462 l 1,3,-1
 377.41015625 462 l 2,4,5
 514.905273438 462 514.905273438 462 583.009765625 418 c 128,-1,6
 651.115234375 374 651.115234375 374 651.115234375 290 c 0,7,8
 651.115234375 234 651.115234375 234 618.990234375 192.5 c 128,-1,9
 586.865234375 151 586.865234375 151 523.900390625 129 c 128,-1,10
 460.934570312 107 460.934570312 107 368.415039062 107 c 2,11,-1
 277.1796875 107 l 1,12,-1
 277.1796875 0 l 1,13,-1
 165.384765625 0 l 1,0,-1
356.849609375 178 m 2,14,15
 440.375 178 440.375 178 488.5625 201 c 128,-1,16
 536.75 224 536.75 224 536.75 285 c 0,17,18
 536.75 338 536.75 338 496.915039062 364.5 c 128,-1,19
 457.080078125 391 457.080078125 391 373.5546875 391 c 2,20,-1
 277.1796875 391 l 1,21,-1
 277.1796875 178 l 1,22,-1
 356.849609375 178 l 2,14,15
EndSplineSet
Substitution2: "'c2sc' Capitals to Small Capitals lookup 34 subtable" acircumflex.sc
Substitution2: "'aalt' Access All Alternates lookup 0 subtable" acircumflex.sc
EndChar

StartChar: Atilde
Encoding: 195 195 133
Width: 771
GlyphClass: 2
Flags: W
AnchorPoint: "Anchor-2" 385.25 714 basechar 0
AnchorPoint: "Anchor-1" 385.25 0 basechar 0
LayerCount: 2
Fore
SplineSet
121.825195312 0 m 1,0,-1
 121.825195312 74 l 1,1,-1
 383.96484375 373 l 1,2,-1
 129.53515625 639 l 1,3,-1
 129.53515625 714 l 1,4,-1
 611.41015625 714 l 1,5,-1
 611.41015625 634 l 1,6,-1
 347.985351562 634 l 2,7,8
 331.280273438 634 331.280273438 634 302.3671875 634 c 128,-1,9
 273.455078125 634 273.455078125 634 261.889648438 635 c 1,10,-1
 512.46484375 374 l 1,11,-1
 249.040039062 78 l 1,12,13
 282.450195312 78 282.450195312 78 314.575195312 78.5 c 128,-1,14
 346.700195312 79 346.700195312 79 381.39453125 79 c 2,15,-1
 648.674804688 79 l 1,16,-1
 648.674804688 0 l 1,17,-1
 121.825195312 0 l 1,0,-1
EndSplineSet
Substitution2: "'c2sc' Capitals to Small Capitals lookup 34 subtable" atilde.sc
Substitution2: "'aalt' Access All Alternates lookup 0 subtable" atilde.sc
EndChar

StartChar: Adieresis
Encoding: 196 196 134
Width: 771
GlyphClass: 2
Flags: W
AnchorPoint: "Anchor-2" 376.13 536 basechar 0
AnchorPoint: "Anchor-1" 376.13 0 basechar 0
LayerCount: 2
Fore
SplineSet
157.6796875 0 m 1,0,-1
 157.6796875 537 l 1,1,-1
 427.530273438 537 l 2,2,3
 496.919921875 537 496.919921875 537 548.962890625 523 c 128,-1,4
 601.004882812 509 601.004882812 509 629.275390625 479.5 c 128,-1,5
 657.544921875 450 657.544921875 450 657.544921875 403 c 0,6,7
 657.544921875 354 657.544921875 354 626.0625 325 c 128,-1,8
 594.580078125 296 594.580078125 296 538.040039062 286 c 1,9,-1
 538.040039062 282 l 1,10,11
 598.434570312 275 598.434570312 275 637.627929688 244 c 128,-1,12
 676.8203125 213 676.8203125 213 676.8203125 158 c 0,13,14
 676.8203125 110 676.8203125 110 650.477539062 74.5 c 128,-1,15
 624.134765625 39 624.134765625 39 570.165039062 19.5 c 128,-1,16
 516.1953125 0 516.1953125 0 432.669921875 0 c 2,17,-1
 157.6796875 0 l 1,0,-1
423.674804688 68 m 2,18,19
 494.349609375 68 494.349609375 68 530.330078125 90 c 128,-1,20
 566.309570312 112 566.309570312 112 566.309570312 161 c 0,21,22
 566.309570312 207 566.309570312 207 529.6875 227 c 128,-1,23
 493.065429688 247 493.065429688 247 423.674804688 247 c 2,24,-1
 266.905273438 247 l 1,25,-1
 266.905273438 68 l 1,26,-1
 423.674804688 68 l 2,18,19
415.96484375 315 m 2,27,28
 482.78515625 315 482.78515625 315 514.91015625 334.5 c 128,-1,29
 547.03515625 354 547.03515625 354 547.03515625 394 c 0,30,31
 547.03515625 431 547.03515625 431 516.837890625 449.5 c 128,-1,32
 486.639648438 468 486.639648438 468 421.10546875 468 c 2,33,-1
 266.905273438 468 l 1,34,-1
 266.905273438 315 l 1,35,-1
 415.96484375 315 l 2,27,28
EndSplineSet
Substitution2: "'c2sc' Capitals to Small Capitals lookup 34 subtable" adieresis.sc
Substitution2: "'aalt' Access All Alternates lookup 0 subtable" adieresis.sc
EndChar

StartChar: AE
Encoding: 198 198 136
Width: 771
GlyphClass: 2
Flags: W
AnchorPoint: "Anchor-2" 387.815 536 basechar 0
AnchorPoint: "Anchor-1" 387.815 0 basechar 0
LayerCount: 2
Fore
SplineSet
344.125 -10 m 0,0,1
 269.594726562 -10 269.594726562 -10 205.344726562 1.5 c 128,-1,2
 141.094726562 13 141.094726562 13 98.6904296875 29 c 1,3,-1
 98.6904296875 106 l 1,4,5
 141.094726562 90 141.094726562 90 205.344726562 75.5 c 128,-1,6
 269.594726562 61 269.594726562 61 346.6953125 61 c 0,7,8
 409.66015625 61 409.66015625 61 453.349609375 71 c 128,-1,9
 497.040039062 81 497.040039062 81 519.52734375 102 c 128,-1,10
 542.014648438 123 542.014648438 123 542.014648438 155 c 0,11,12
 542.014648438 199 542.014648438 199 492.54296875 222.5 c 128,-1,13
 443.0703125 246 443.0703125 246 324.849609375 246 c 2,14,-1
 240.040039062 246 l 1,15,-1
 240.040039062 315 l 1,16,-1
 314.5703125 315 l 2,17,18
 380.10546875 315 380.10546875 315 425.080078125 324 c 128,-1,19
 470.0546875 333 470.0546875 333 493.184570312 352 c 128,-1,20
 516.315429688 371 516.315429688 371 516.315429688 399 c 0,21,22
 516.315429688 438 516.315429688 438 477.764648438 457 c 128,-1,23
 439.21484375 476 439.21484375 476 359.544921875 476 c 0,24,25
 297.865234375 476 297.865234375 476 250.3203125 467 c 128,-1,26
 202.775390625 458 202.775390625 458 161.655273438 443 c 1,27,-1
 121.8203125 507 l 1,28,29
 171.934570312 526 171.934570312 526 233.615234375 536.5 c 128,-1,30
 295.294921875 547 295.294921875 547 364.684570312 547 c 0,31,32
 448.209960938 547 448.209960938 547 506.03515625 530 c 128,-1,33
 563.860351562 513 563.860351562 513 594.057617188 482 c 128,-1,34
 624.254882812 451 624.254882812 451 624.254882812 409 c 0,35,36
 624.254882812 362 624.254882812 362 587.6328125 331.5 c 128,-1,37
 551.009765625 301 551.009765625 301 476.48046875 287 c 1,38,-1
 476.48046875 283 l 1,39,40
 525.309570312 275 525.309570312 275 565.787109375 259 c 128,-1,41
 606.264648438 243 606.264648438 243 630.037109375 216.5 c 128,-1,42
 653.809570312 190 653.809570312 190 653.809570312 149 c 0,43,44
 653.809570312 104 653.809570312 104 621.684570312 68 c 128,-1,45
 589.559570312 32 589.559570312 32 520.8125 11 c 128,-1,46
 452.065429688 -10 452.065429688 -10 344.125 -10 c 0,0,1
EndSplineSet
Substitution2: "'c2sc' Capitals to Small Capitals lookup 34 subtable" ae.sc
Substitution2: "'aalt' Access All Alternates lookup 0 subtable" ae.sc
EndChar

StartChar: Ccedilla
Encoding: 199 199 137
Width: 771
GlyphClass: 2
Flags: W
AnchorPoint: "Anchor-2" 400.263 536 basechar 0
AnchorPoint: "Anchor-1" 411.827 0 basechar 0
LayerCount: 2
Fore
SplineSet
123.987304688 0 m 1,0,-1
 123.987304688 537 l 1,1,-1
 233.212890625 537 l 1,2,-1
 233.212890625 279 l 1,3,-1
 559.602539062 537 l 1,4,-1
 700.952148438 537 l 1,5,-1
 362.997070312 281 l 1,6,-1
 721.512695312 0 l 1,7,-1
 581.447265625 0 l 1,8,-1
 233.212890625 275 l 1,9,-1
 233.212890625 0 l 1,10,-1
 123.987304688 0 l 1,0,-1
EndSplineSet
Substitution2: "'c2sc' Capitals to Small Capitals lookup 34 subtable" ccedilla.sc
Substitution2: "'aalt' Access All Alternates lookup 0 subtable" ccedilla.sc
EndChar

StartChar: Egrave
Encoding: 200 200 138
Width: 771
GlyphClass: 2
Flags: W
AnchorPoint: "Anchor-2" 385.25 536 basechar 0
AnchorPoint: "Anchor-1" 385.25 0 basechar 0
LayerCount: 2
Fore
SplineSet
102.549804688 0 m 1,0,-1
 102.549804688 536 l 1,1,-1
 211.775390625 536 l 1,2,-1
 211.775390625 314 l 1,3,-1
 560.009765625 314 l 1,4,-1
 560.009765625 536 l 1,5,-1
 667.950195312 536 l 1,6,-1
 667.950195312 0 l 1,7,-1
 560.009765625 0 l 1,8,-1
 560.009765625 242 l 1,9,-1
 211.775390625 242 l 1,10,-1
 211.775390625 0 l 1,11,-1
 102.549804688 0 l 1,0,-1
EndSplineSet
Substitution2: "'c2sc' Capitals to Small Capitals lookup 34 subtable" egrave.sc
Substitution2: "'aalt' Access All Alternates lookup 0 subtable" egrave.sc
EndChar

StartChar: Edieresis
Encoding: 203 203 141
Width: 771
GlyphClass: 2
Flags: W
AnchorPoint: "Anchor-2" 389.247 528 basechar 0
AnchorPoint: "Anchor-1" 389.247 0 basechar 0
LayerCount: 2
Fore
SplineSet
330.137695312 0 m 1,0,-1
 330.137695312 465 l 1,1,-1
 87.2724609375 465 l 1,2,-1
 87.2724609375 537 l 1,3,-1
 682.227539062 537 l 1,4,-1
 682.227539062 465 l 1,5,-1
 438.077148438 465 l 1,6,-1
 438.077148438 0 l 1,7,-1
 330.137695312 0 l 1,0,-1
EndSplineSet
Substitution2: "'c2sc' Capitals to Small Capitals lookup 34 subtable" edieresis.sc
Substitution2: "'aalt' Access All Alternates lookup 0 subtable" edieresis.sc
EndChar

StartChar: Iacute
Encoding: 205 205 143
Width: 771
GlyphClass: 2
Flags: W
AnchorPoint: "Anchor-2" 374.705 536 basechar 0
AnchorPoint: "Anchor-1" 374.705 0 basechar 0
LayerCount: 2
Fore
SplineSet
156.254882812 0 m 1,0,-1
 156.254882812 536 l 1,1,-1
 265.48046875 536 l 1,2,-1
 265.48046875 316 l 1,3,-1
 440.240234375 316 l 2,4,5
 563.599609375 316 563.599609375 316 625.922851562 277.5 c 128,-1,6
 688.245117188 239 688.245117188 239 688.245117188 162 c 0,7,8
 688.245117188 111 688.245117188 111 661.259765625 74.5 c 128,-1,9
 634.275390625 38 634.275390625 38 579.01953125 19 c 128,-1,10
 523.764648438 0 523.764648438 0 440.240234375 0 c 2,11,-1
 156.254882812 0 l 1,0,-1
436.384765625 68 m 2,12,13
 501.919921875 68 501.919921875 68 541.112304688 90 c 128,-1,14
 580.3046875 112 580.3046875 112 580.3046875 158 c 0,15,16
 580.3046875 205 580.3046875 205 543.040039062 226 c 128,-1,17
 505.775390625 247 505.775390625 247 435.099609375 247 c 2,18,-1
 265.48046875 247 l 1,19,-1
 265.48046875 68 l 1,20,-1
 436.384765625 68 l 2,12,13
EndSplineSet
Substitution2: "'c2sc' Capitals to Small Capitals lookup 34 subtable" iacute.sc
Substitution2: "'aalt' Access All Alternates lookup 0 subtable" iacute.sc
EndChar

StartChar: Icircumflex
Encoding: 206 206 144
Width: 771
GlyphClass: 2
Flags: W
AnchorPoint: "Anchor-3" 746.475 536 basechar 0
AnchorPoint: "Anchor-2" 386.675 536 basechar 0
AnchorPoint: "Anchor-1" 386.675 0 basechar 0
LayerCount: 2
Fore
SplineSet
209.344726562 242 m 1,0,-1
 209.344726562 311 l 1,1,-1
 546.014648438 311 l 1,2,-1
 546.014648438 242 l 1,3,-1
 209.344726562 242 l 1,0,-1
435.504882812 -10 m 0,4,5
 335.275390625 -10 335.275390625 -10 262.030273438 18.5 c 128,-1,6
 188.78515625 47 188.78515625 47 149.592773438 107.5 c 128,-1,7
 110.400390625 168 110.400390625 168 110.400390625 264 c 0,8,9
 110.400390625 367 110.400390625 367 153.447265625 429 c 128,-1,10
 196.495117188 491 196.495117188 491 272.952148438 518.5 c 128,-1,11
 349.41015625 546 349.41015625 546 447.0703125 546 c 0,12,13
 507.46484375 546 507.46484375 546 556.9375 536.5 c 128,-1,14
 606.41015625 527 606.41015625 527 650.099609375 509 c 1,15,-1
 615.405273438 436 l 1,16,17
 574.28515625 453 574.28515625 453 535.735351562 460.5 c 128,-1,18
 497.184570312 468 497.184570312 468 452.209960938 468 c 0,19,20
 373.825195312 468 373.825195312 468 324.352539062 445.5 c 128,-1,21
 274.879882812 423 274.879882812 423 251.75 378.5 c 128,-1,22
 228.620117188 334 228.620117188 334 228.620117188 266 c 0,23,24
 228.620117188 195 228.620117188 195 253.03515625 151 c 128,-1,25
 277.450195312 107 277.450195312 107 326.922851562 87 c 128,-1,26
 376.39453125 67 376.39453125 67 448.35546875 67 c 0,27,28
 504.89453125 67 504.89453125 67 555.009765625 76.5 c 128,-1,29
 605.125 86 605.125 86 642.389648438 99 c 1,30,-1
 642.389648438 20 l 1,31,32
 603.83984375 6 603.83984375 6 547.299804688 -2 c 128,-1,33
 490.759765625 -10 490.759765625 -10 435.504882812 -10 c 0,4,5
EndSplineSet
Substitution2: "'c2sc' Capitals to Small Capitals lookup 34 subtable" icircumflex.sc
Substitution2: "'aalt' Access All Alternates lookup 0 subtable" icircumflex.sc
EndChar

